<?xml version="1.0" standalone="no"?>
<!DOCTYPE svg PUBLIC "-//W3C//DTD SVG 20010904//EN"
 "http://www.w3.org/TR/2001/REC-SVG-20010904/DTD/svg10.dtd">
<svg version="1.0" xmlns="http://www.w3.org/2000/svg"
 width="1097.000000pt" height="1280.000000pt" viewBox="0 0 1097.000000 1280.000000"
 preserveAspectRatio="xMidYMid meet">
<metadata>
Created by potrace 1.15, written by Peter Selinger 2001-2017
</metadata>
<g transform="translate(0.000000,1280.000000) scale(0.100000,-0.100000)"
fill="#000000" stroke="none">
<path d="M1 12718 c0 -46 5 -105 10 -133 6 -27 14 -196 19 -375 4 -179 13
-377 19 -440 6 -63 15 -223 21 -355 6 -132 16 -303 21 -380 6 -77 12 -315 15
-530 3 -218 10 -412 16 -440 6 -27 14 -225 19 -440 28 -1399 31 -1479 60
-1730 6 -49 13 -240 16 -423 6 -375 3 -361 86 -400 l43 -20 31 -109 c18 -59
37 -153 43 -208 14 -120 34 -1067 33 -1535 0 -184 -5 -729 -9 -1210 l-9 -875
-155 -5 c-166 -5 -184 -10 -214 -61 -20 -35 -21 -112 -1 -129 8 -7 15 -19 15
-26 0 -8 12 -33 27 -55 26 -40 26 -40 10 -87 -10 -26 -17 -64 -17 -85 0 -44
26 -106 47 -114 26 -10 47 -67 48 -133 2 -77 20 -117 81 -176 27 -27 47 -57
54 -83 13 -50 66 -105 117 -121 21 -7 47 -19 58 -26 11 -8 36 -14 56 -14 l36
0 43 -112 c24 -62 52 -125 62 -140 10 -15 43 -79 73 -142 73 -156 449 -712
562 -832 48 -50 270 -197 503 -334 96 -56 196 -117 222 -136 111 -79 326 -171
558 -237 203 -58 271 -67 474 -66 l181 2 -110 13 c-234 28 -282 36 -355 54
-41 10 -113 26 -160 35 -145 28 -296 85 -500 188 -193 98 -244 129 -532 330
-198 138 -231 167 -344 309 -54 68 -118 146 -142 173 -77 86 -221 330 -380
642 -65 128 -72 160 -31 135 17 -11 24 -10 46 8 45 35 73 24 87 -35 23 -97
143 -330 207 -403 17 -19 68 -91 113 -161 63 -95 122 -167 244 -296 88 -93
185 -188 214 -210 29 -22 85 -72 123 -111 39 -39 86 -79 105 -89 19 -10 73
-46 121 -79 149 -108 232 -144 644 -281 22 -7 117 -35 210 -62 190 -54 194
-54 780 -71 152 -5 274 -13 295 -20 45 -15 62 1 24 22 -27 14 -3 15 299 16
186 0 327 -4 327 -9 0 -5 -29 -14 -65 -20 -35 -6 -93 -20 -127 -30 -37 -11
-130 -24 -223 -31 -88 -6 -167 -13 -175 -15 -8 -1 86 -3 210 -4 222 -1 227 -1
330 29 58 17 118 30 133 30 16 0 52 11 80 25 103 48 161 59 328 60 117 0 161
4 173 14 13 11 37 12 104 8 48 -4 101 -11 119 -16 28 -8 34 -6 48 16 19 28 35
28 125 -5 104 -38 240 -65 300 -58 66 7 393 31 660 48 269 18 363 16 437 -6
42 -13 66 -15 78 -9 14 8 1 15 -61 31 -107 29 -253 44 -349 37 -132 -10 -299
-26 -320 -31 -15 -4 -16 -3 -5 4 8 5 60 17 115 27 55 9 143 26 195 37 164 33
339 34 452 2 12 -4 19 2 24 20 10 42 -9 62 -68 70 -92 11 -158 30 -150 42 5 9
29 8 92 -3 114 -20 202 -14 233 15 l24 22 57 -25 57 -25 -6 22 c-10 35 -71 88
-100 88 -14 0 -39 -7 -55 -15 -34 -17 -129 -22 -360 -16 l-155 3 160 27 c208
36 366 72 359 83 -3 4 -49 8 -102 8 -74 0 -143 -10 -292 -40 -215 -45 -348
-61 -336 -42 13 22 60 39 119 45 32 3 64 11 71 16 7 6 85 27 172 46 87 20 185
45 217 55 31 11 64 20 72 20 9 0 15 9 15 25 0 14 -2 25 -4 25 -3 0 -60 -9
-128 -20 -152 -26 -328 -71 -411 -106 -93 -39 -160 -59 -287 -88 -197 -43
-568 -106 -631 -106 -178 0 81 72 481 135 93 14 196 37 235 51 205 76 357 126
410 134 33 5 85 15 115 21 33 7 97 9 162 5 65 -3 109 -2 113 4 9 15 45 12 51
-5 8 -19 64 -48 64 -32 0 7 -7 21 -15 31 -8 11 -15 33 -15 49 0 15 -5 37 -10
48 -10 18 -12 18 -38 2 -15 -9 -36 -27 -47 -40 -23 -27 -26 -27 -195 -24
l-125 2 90 33 c50 18 105 40 123 50 35 18 39 43 6 38 -10 -1 -37 -5 -59 -9
-49 -7 -92 -28 -220 -107 -84 -51 -113 -64 -185 -78 -138 -27 -282 -68 -320
-90 -21 -13 -71 -27 -125 -34 -49 -8 -202 -33 -340 -58 -137 -24 -251 -43
-253 -41 -1 1 16 15 38 30 64 45 37 42 -38 -4 -63 -38 -121 -62 -147 -61 -27
2 107 103 188 143 111 55 156 70 289 98 57 11 144 34 193 50 50 15 135 41 190
57 144 42 232 80 476 203 134 68 227 109 246 109 31 0 43 14 43 51 0 10 -4 19
-8 19 -17 0 -129 -48 -167 -72 -22 -13 -89 -51 -150 -83 -60 -33 -128 -73
-151 -90 -22 -17 -65 -41 -95 -53 -110 -44 -449 -127 -604 -147 -27 -4 -67
-13 -88 -21 -20 -8 -56 -14 -80 -14 l-42 1 45 23 c25 13 61 27 80 30 93 18
466 111 555 138 110 33 244 96 338 160 81 54 197 148 197 159 0 5 -16 9 -36 9
-30 0 -44 -9 -87 -54 -63 -65 -134 -119 -199 -152 -82 -41 -425 -154 -548
-180 -241 -50 -267 -56 -330 -83 -116 -48 -201 -115 -350 -277 l-65 -70 -85
-12 c-47 -7 -152 -21 -235 -32 -82 -11 -184 -24 -225 -30 -41 -5 -189 -10
-328 -10 -201 0 -299 5 -480 25 -516 56 -645 93 -1071 305 -320 160 -394 213
-646 461 -197 195 -216 217 -305 355 -72 111 -124 177 -215 273 -66 69 -149
164 -185 210 -36 46 -86 105 -111 130 -25 25 -54 61 -63 79 -9 18 -46 70 -83
115 -75 94 -87 119 -78 167 19 99 54 116 229 106 67 -4 238 -13 381 -21 551
-31 635 -36 844 -50 119 -8 263 -22 321 -30 58 -9 170 -20 250 -25 364 -23
1308 -139 1351 -166 4 -2 90 -9 191 -14 219 -12 332 -26 414 -51 60 -19 61
-20 67 -61 3 -25 15 -51 31 -66 28 -29 7 -27 641 -51 333 -13 642 -28 840 -41
83 -5 236 -15 340 -20 105 -6 305 -20 445 -30 140 -11 465 -36 722 -55 257
-20 585 -49 730 -65 332 -38 501 -56 653 -70 66 -6 302 -31 525 -55 223 -25
475 -49 560 -55 85 -5 167 -12 181 -16 l26 -6 6 184 c3 100 11 310 18 466 12
309 9 354 -25 404 -19 28 -24 53 -29 139 -4 57 -14 142 -22 189 -8 47 -22 148
-31 225 -8 77 -23 176 -34 220 -19 83 -30 167 -55 421 -8 82 -21 172 -29 200
-8 27 -36 150 -61 274 -26 124 -49 228 -51 231 -2 4 -17 75 -34 158 -16 82
-45 199 -64 258 -54 170 -97 330 -107 398 -10 75 -77 256 -171 465 -38 85 -95
232 -127 325 -65 192 -195 503 -281 675 -32 63 -65 140 -75 170 -9 30 -27 71
-40 90 -30 47 -503 917 -543 1000 -40 84 -336 571 -404 664 -71 98 -223 286
-303 376 -224 248 -618 647 -772 780 -94 82 -213 189 -265 238 -157 149 -515
441 -630 513 -29 19 -141 93 -248 165 -294 197 -661 414 -1075 635 -334 178
-397 209 -555 270 -177 69 -351 152 -514 243 -80 46 -156 81 -196 91 -149 38
-654 186 -765 225 -160 55 -526 161 -706 204 -79 19 -346 78 -594 131 -247 52
-537 116 -644 140 l-193 45 -387 -1 -386 -1 420 -48 c530 -60 565 -65 1190
-186 44 -8 179 -41 300 -73 121 -33 285 -73 365 -91 80 -18 201 -49 270 -70
69 -21 199 -59 290 -85 646 -184 724 -213 1085 -390 127 -62 379 -176 560
-253 362 -154 424 -185 660 -337 88 -57 246 -146 352 -199 106 -52 221 -114
257 -135 111 -68 393 -276 611 -451 66 -53 195 -153 286 -222 167 -127 270
-219 624 -553 104 -99 261 -247 349 -330 161 -152 205 -204 356 -420 46 -66
135 -187 198 -268 128 -168 207 -291 504 -797 113 -192 286 -523 333 -635 20
-49 106 -224 190 -390 167 -327 203 -409 367 -835 60 -157 136 -353 169 -437
64 -164 74 -206 31 -129 -26 47 -52 71 -52 47 0 -19 58 -164 80 -199 17 -27
24 -32 35 -22 20 16 29 -24 21 -93 -6 -58 12 -124 54 -192 19 -32 24 -54 25
-111 0 -39 5 -77 11 -85 18 -22 62 -167 73 -239 5 -36 19 -108 30 -161 33
-156 115 -713 128 -874 l6 -69 -29 18 c-16 10 -41 30 -55 43 l-26 24 -17 -41
c-16 -39 -15 -43 4 -88 13 -28 19 -56 15 -70 -5 -22 -9 -24 -52 -17 -64 9 -91
24 -102 54 -7 20 -10 8 -10 -56 -1 -45 4 -85 9 -88 22 -14 8 -26 -27 -23 l-38
3 -8 60 c-4 33 -10 81 -13 107 l-6 47 39 3 38 3 -3 45 c-4 50 -39 180 -53 194
-19 20 -17 -3 5 -93 l23 -93 -23 -10 c-31 -14 -54 -4 -54 25 0 12 -9 49 -20
81 -12 32 -18 66 -15 75 6 20 -18 45 -52 55 -12 4 -25 17 -28 29 -18 70 -30
103 -38 114 -7 10 -3 13 17 13 22 0 26 -4 26 -30 0 -38 19 -80 37 -80 10 0 11
5 3 19 -5 11 -10 35 -10 54 0 19 -12 56 -26 83 -16 29 -29 73 -33 108 -6 57
-7 60 -39 68 -28 8 -38 19 -63 71 -16 34 -29 71 -29 83 0 12 -24 86 -54 165
-64 171 -83 236 -90 308 -4 39 -18 74 -51 131 -25 42 -45 83 -45 90 0 10 -3
11 -11 3 -7 -7 -4 -28 10 -71 12 -34 21 -74 21 -90 0 -16 24 -87 53 -158 76
-183 167 -460 193 -589 25 -124 21 -135 -43 -135 -28 0 -35 6 -51 37 -11 21
-22 55 -25 75 -8 54 -43 128 -61 128 -11 0 -6 -23 25 -101 21 -55 39 -104 39
-109 0 -4 -12 -10 -27 -13 -16 -3 -40 -9 -56 -13 -24 -6 -27 -4 -27 18 0 14
-12 53 -26 88 -15 38 -24 74 -21 90 3 14 -3 50 -13 80 -11 30 -19 74 -20 97 0
24 -12 73 -27 109 l-26 67 22 19 c13 10 27 18 31 18 8 0 44 -129 55 -197 11
-72 28 -51 21 25 -4 37 -9 92 -12 122 -4 38 -13 63 -28 80 -37 41 -71 138 -69
196 2 47 -1 56 -35 95 -40 46 -62 103 -62 159 0 18 -7 38 -15 44 -8 6 -23 52
-34 101 -28 125 -59 226 -60 195 -1 -14 -8 -36 -17 -48 -13 -19 -18 -21 -31
-11 -20 17 -63 104 -63 128 0 11 -4 22 -9 26 -5 3 -13 20 -16 38 -4 17 -25 69
-46 114 -22 45 -39 93 -39 107 0 33 -28 103 -56 141 -12 17 -26 42 -29 58 -4
15 -26 49 -50 75 -23 26 -96 119 -161 207 -93 125 -126 177 -147 235 -16 45
-36 81 -49 89 -19 12 -20 11 -13 -6 4 -10 18 -46 31 -81 31 -87 83 -171 218
-352 108 -144 160 -227 186 -294 l10 -28 -42 31 c-23 17 -43 29 -45 27 -7 -7
60 -111 85 -131 18 -16 25 -35 31 -80 4 -33 15 -75 25 -93 19 -36 55 -190 56
-234 0 -15 12 -42 28 -60 18 -21 53 -97 92 -203 34 -93 85 -228 111 -299 27
-71 49 -141 49 -156 0 -14 11 -60 25 -100 29 -86 28 -80 12 -80 -7 0 -18 -5
-24 -11 -9 -9 -6 -17 12 -31 16 -12 27 -37 35 -76 7 -31 18 -68 25 -82 27 -50
65 -181 65 -222 0 -25 12 -66 30 -105 16 -34 30 -67 30 -71 0 -4 -16 -16 -36
-27 l-36 -19 39 -13 c47 -17 58 -31 73 -96 7 -29 19 -59 27 -68 13 -15 9 -19
-36 -34 -54 -17 -70 -45 -27 -45 35 0 86 -46 86 -77 0 -14 18 -71 40 -125 22
-55 40 -113 40 -130 0 -16 5 -39 11 -50 14 -27 2 -38 -50 -45 -51 -7 -57 -33
-7 -33 45 0 101 -46 81 -67 -17 -16 -29 -16 -94 -1 l-50 11 -3 69 -3 69 -23
-21 c-18 -17 -22 -32 -22 -78 0 -32 -5 -63 -11 -69 -9 -9 -4 -18 17 -37 35
-31 39 -31 57 -5 8 11 17 16 21 11 3 -5 32 -19 65 -31 88 -32 123 -92 61 -106
-44 -10 -94 11 -131 53 -18 20 -34 32 -36 26 -6 -17 -64 -94 -71 -94 -12 0
-52 65 -52 84 0 9 5 26 10 36 8 14 5 29 -9 57 -11 21 -27 83 -36 138 -9 55
-19 110 -22 123 -5 21 -2 22 51 22 l56 0 0 -40 c0 -35 3 -40 24 -40 18 0 25 7
29 29 4 18 18 36 37 47 39 24 38 34 -3 34 -42 0 -81 34 -73 64 3 11 6 31 6 44
0 15 6 22 20 22 18 0 17 4 -12 33 -18 18 -39 51 -47 72 -16 46 -49 105 -60
105 -8 0 3 -110 15 -148 4 -13 1 -28 -6 -37 -12 -15 2 -33 53 -66 11 -8 -19
-56 -44 -70 -22 -11 -44 -2 -73 30 -27 30 -34 27 -47 -21 -7 -24 -14 -45 -16
-47 -2 -3 -21 12 -42 33 l-40 39 -10 -41 c-13 -46 -8 -67 27 -104 18 -19 23
-33 18 -51 -5 -21 -13 -26 -48 -29 -24 -3 -50 -8 -59 -12 -13 -5 -20 2 -33 33
-13 34 -14 49 -4 84 10 40 9 45 -23 91 l-34 48 28 24 c34 29 56 30 90 4 30
-24 65 -26 73 -5 3 8 -1 34 -9 57 -9 24 -21 72 -28 107 -11 57 -14 62 -26 45
-7 -10 -13 -41 -13 -70 l0 -51 -52 -22 c-30 -13 -55 -18 -61 -12 -4 4 -14 39
-20 77 -13 76 -21 94 -43 94 -17 0 -19 -57 -3 -114 8 -28 8 -41 -1 -50 -15
-15 -56 31 -69 80 -5 19 -26 55 -45 79 -20 24 -36 48 -36 54 0 6 -4 11 -10 11
-16 0 -12 -13 22 -85 l31 -67 -17 -47 c-20 -55 -14 -76 25 -97 20 -10 29 -22
29 -39 0 -23 -3 -25 -50 -25 -47 0 -49 -1 -38 -20 16 -25 61 -44 92 -38 23 5
25 1 36 -61 23 -132 24 -159 5 -187 -18 -28 -13 -40 20 -46 18 -3 20 -12 23
-81 3 -77 3 -77 -23 -77 -23 0 -24 2 -13 20 26 41 -28 70 -85 46 -16 -8 -17 1
-17 113 0 95 -3 123 -14 127 -19 7 -33 47 -41 114 -7 58 -30 137 -46 156 -7 9
-5 15 8 22 17 10 17 11 0 29 -9 11 -21 42 -27 71 -5 28 -23 75 -40 105 -24 42
-30 66 -30 111 0 51 -3 60 -29 82 -33 27 -54 82 -73 189 -8 47 -23 86 -45 120
-30 46 -54 110 -69 185 -4 17 -13 30 -21 30 -9 0 -12 -7 -9 -17 2 -10 11 -47
20 -83 26 -108 82 -264 110 -306 34 -53 42 -95 23 -133 -14 -28 -14 -31 3 -36
11 -3 27 -20 38 -38 23 -39 67 -220 59 -242 -5 -10 -20 -15 -50 -15 -50 0 -77
-20 -53 -39 9 -7 33 -9 69 -5 49 6 56 4 66 -14 15 -27 14 -75 -1 -90 -9 -9 -3
-15 27 -28 l40 -15 -3 -59 c-3 -40 -10 -64 -23 -78 -18 -20 -18 -21 1 -27 29
-9 47 -50 55 -125 4 -36 12 -71 18 -78 12 -16 4 -24 -36 -38 l-32 -11 33 -17
c17 -9 32 -19 32 -21 0 -3 -34 -5 -75 -5 l-75 0 -15 36 c-8 20 -15 51 -15 68
-1 17 -7 54 -14 81 -12 44 -12 52 2 68 15 16 15 20 2 28 -8 4 -20 12 -26 16
-5 4 -15 58 -22 120 -12 124 -43 217 -79 241 l-23 14 0 -66 c0 -36 4 -74 10
-84 5 -9 14 -37 19 -62 12 -57 33 -113 49 -132 9 -11 9 -28 2 -68 -10 -53 -7
-81 12 -133 13 -33 1 -46 -42 -47 -24 -1 -24 -1 -6 -15 11 -8 30 -15 43 -15
14 0 23 -6 23 -15 0 -10 -10 -15 -34 -15 -77 0 -93 29 -75 132 9 53 9 70 0 82
-8 9 -10 28 -6 49 6 29 3 37 -13 46 -28 15 -35 43 -22 91 12 44 4 65 -43 117
l-19 22 -38 -30 c-45 -36 -72 -33 -90 11 -14 34 -7 71 17 96 13 13 15 18 5 22
-7 2 -27 16 -43 30 -26 21 -30 31 -26 56 3 22 -4 48 -24 86 -33 64 -33 64 -14
-60 18 -118 18 -120 0 -120 -8 0 -19 17 -26 43 -6 23 -24 89 -40 146 -16 58
-29 106 -29 108 0 10 40 1 50 -12 7 -8 17 -15 23 -15 14 0 2 93 -24 176 -15
49 -18 69 -9 72 13 5 -26 35 -50 38 -8 2 -34 6 -57 10 -36 5 -44 4 -50 -11 -8
-21 53 -145 71 -145 6 0 12 17 12 40 1 23 4 44 8 47 12 12 34 -22 50 -79 9
-32 19 -64 22 -73 11 -27 -33 -17 -55 13 -17 23 -22 25 -31 12 -22 -32 -20
-59 8 -130 27 -68 28 -76 13 -87 -36 -28 -61 -16 -87 42 -13 31 -24 60 -24 65
0 5 12 21 28 37 l27 27 -30 6 c-78 16 -110 69 -102 167 4 57 3 63 -14 63 -12
0 -24 11 -30 26 -25 68 -13 3 32 -166 100 -377 173 -722 213 -1007 6 -39 4
-43 -15 -43 -32 0 -59 19 -59 42 0 12 -11 80 -24 152 -14 72 -27 161 -31 198
-6 59 -5 67 9 62 27 -10 18 11 -12 28 -24 15 -29 26 -40 95 -7 43 -23 125 -37
183 -13 58 -28 123 -31 145 -4 22 -13 49 -19 60 -7 11 -19 52 -26 90 -7 39
-21 87 -31 108 -19 39 -33 91 -49 190 -8 54 -47 162 -55 154 -2 -2 5 -44 15
-93 10 -49 22 -117 25 -151 l7 -61 -36 -28 -37 -28 39 -19 c49 -25 93 -66 93
-87 0 -9 -11 -39 -25 -66 -14 -27 -25 -50 -25 -51 0 -1 15 1 34 4 34 5 35 4
46 -37 24 -90 50 -221 70 -360 11 -80 22 -157 25 -172 4 -24 1 -28 -18 -28
-12 0 -29 -4 -37 -9 -30 -20 -93 127 -104 244 -4 33 -13 77 -20 98 l-13 39 -7
-32 c-11 -57 -7 -136 13 -237 24 -122 28 -190 14 -204 -9 -9 -4 -22 23 -52 44
-52 44 -67 -2 -67 -28 0 -35 -3 -32 -17 2 -10 16 -24 31 -31 35 -17 34 -28 -3
-47 -28 -14 -31 -14 -49 4 -26 26 -42 109 -45 233 -2 82 -7 112 -24 147 -22
44 -18 60 13 61 5 0 -6 13 -25 29 -34 28 -34 30 -24 70 9 34 9 41 -3 41 -20 0
-47 69 -73 184 -17 77 -20 104 -11 123 15 33 14 53 -4 53 -22 0 -42 36 -92
167 -48 124 -63 204 -43 227 9 11 7 16 -10 21 -23 7 -42 44 -59 120 -7 27 -17
55 -23 62 -12 15 -74 18 -82 4 -8 -13 21 -34 38 -28 10 4 16 -7 21 -41 4 -26
22 -85 40 -132 18 -47 38 -107 44 -135 7 -27 28 -90 47 -138 32 -80 34 -90 21
-110 -13 -21 -13 -25 9 -50 13 -16 24 -39 24 -52 0 -13 5 -27 10 -30 16 -10
12 -40 -8 -59 -18 -16 -18 -18 14 -51 20 -22 35 -49 39 -76 4 -23 24 -92 45
-154 52 -156 57 -188 31 -214 -30 -30 -26 -57 13 -92 l34 -30 -5 -77 c-6 -87
-15 -104 -40 -79 -16 16 -23 90 -12 127 2 8 -2 14 -8 13 -7 -2 -20 11 -29 28
-17 34 -12 73 13 101 13 14 13 20 3 33 -7 8 -18 15 -24 15 -7 0 -23 11 -36 25
-27 29 -40 32 -40 8 0 -9 -5 -32 -12 -50 -12 -32 -14 -33 -65 -33 -58 0 -71
14 -23 25 31 7 51 25 28 25 -14 0 -78 60 -78 73 0 4 9 7 19 7 11 0 23 5 26 11
4 6 16 14 27 18 17 6 13 11 -29 37 -53 33 -83 81 -83 132 0 41 -19 53 -72 46
-41 -6 -47 -4 -65 22 -11 16 -23 45 -27 64 -7 41 -38 120 -47 120 -12 0 -8
-81 5 -122 8 -24 38 -126 66 -228 43 -153 53 -205 59 -301 6 -98 10 -120 30
-148 26 -37 20 -51 -25 -54 l-28 -2 -18 105 c-9 58 -22 133 -27 168 -5 34 -19
77 -30 96 -12 18 -21 46 -21 62 0 29 -15 100 -66 304 -35 139 -41 190 -21 190
8 0 22 -11 31 -25 l16 -24 35 21 c20 11 34 25 33 30 -2 6 -25 26 -51 45 l-47
35 0 -26 c0 -19 -5 -26 -20 -26 -26 0 -60 34 -60 60 0 12 -7 35 -16 51 -8 17
-21 59 -29 94 -7 35 -25 83 -39 107 -26 43 -26 43 -26 13 1 -16 10 -55 21 -85
54 -147 62 -183 49 -218 -12 -33 -10 -37 40 -109 42 -60 50 -77 39 -84 -18
-12 -60 -2 -81 19 -12 12 -25 65 -42 167 -25 149 -62 267 -110 350 -42 71
-128 279 -129 310 0 16 3 38 7 48 7 14 3 17 -22 17 -35 0 -72 39 -72 75 0 12
-11 42 -24 66 -14 24 -39 82 -56 129 -17 47 -43 103 -58 125 -15 22 -33 53
-40 70 -20 45 -146 237 -150 227 -5 -16 37 -101 109 -219 112 -183 113 -186
193 -402 42 -113 76 -206 76 -208 0 -2 -29 -3 -64 -3 l-64 0 21 -45 21 -44 18
30 c17 27 23 30 59 27 39 -3 41 -6 58 -53 10 -28 37 -92 61 -143 27 -60 46
-122 55 -177 8 -46 23 -101 34 -123 21 -42 19 -52 -11 -52 -10 0 -27 -6 -39
-12 -18 -11 -23 -10 -44 14 -14 16 -27 47 -31 75 -8 59 -29 113 -44 113 -5 0
-27 -16 -48 -36 l-37 -35 37 6 c42 7 51 -3 62 -70 4 -22 9 -47 12 -56 4 -13
-4 -15 -53 -11 -76 6 -90 14 -105 63 -10 35 -10 46 4 70 15 26 15 29 -3 45
-34 30 -72 120 -67 159 2 19 1 35 -3 35 -4 0 -21 12 -38 26 -29 24 -31 30 -31
93 0 56 -4 71 -21 87 -60 54 -93 142 -77 203 7 25 6 36 -4 42 -23 15 -66 10
-105 -13 l-38 -23 40 -3 c48 -4 65 -17 65 -48 0 -14 14 -50 30 -81 l30 -56
-30 -22 c-22 -16 -27 -24 -18 -33 7 -7 22 -12 33 -12 31 0 54 -30 75 -97 l18
-58 -30 -6 c-58 -13 -56 -29 3 -29 l55 0 37 -153 c42 -173 44 -192 21 -183 -9
3 -31 6 -50 6 l-34 0 0 68 c0 61 -3 71 -26 93 -35 32 -64 95 -64 140 0 24 -7
42 -21 55 -12 10 -35 46 -51 79 -24 47 -28 63 -19 77 17 27 13 40 -11 36 -16
-2 -23 4 -28 22 -4 14 -24 58 -44 98 -36 72 -39 92 -10 92 8 0 14 4 14 9 0 10
-108 36 -116 28 -2 -2 0 -17 5 -33 6 -16 15 -48 21 -72 6 -24 26 -60 43 -80
18 -20 68 -108 111 -194 65 -129 80 -168 85 -221 5 -45 15 -77 33 -105 19 -27
33 -73 47 -145 11 -58 22 -109 23 -114 5 -14 -16 -16 -24 -2 -5 8 -31 62 -59
122 -28 59 -55 107 -60 107 -6 0 -6 -8 1 -19 5 -11 10 -29 10 -41 0 -18 -3
-19 -21 -9 -20 10 -21 16 -15 82 5 54 3 74 -8 86 -24 27 -126 240 -141 295
-24 91 -54 167 -85 218 -24 38 -28 53 -20 63 9 11 4 21 -26 47 -21 18 -50 44
-63 58 -13 14 -22 18 -19 10 79 -231 79 -230 5 -230 -30 0 -44 7 -67 32 -33
35 -29 48 20 68 44 18 37 30 -17 30 -27 0 -53 4 -59 8 -7 4 -26 45 -44 91 -32
83 -32 83 -64 78 -17 -3 -38 -8 -46 -11 -11 -4 -25 12 -50 59 -26 47 -36 60
-41 48 -5 -16 -7 -15 -17 3 -27 51 36 46 93 -7 25 -23 45 -40 45 -37 0 2 -14
33 -31 69 -36 73 -66 119 -80 119 -14 0 -10 -26 6 -40 30 -25 0 -34 -59 -20
-47 11 -57 11 -77 -4 -13 -9 -41 -16 -62 -16 -77 0 -119 87 -58 123 41 24 58
21 92 -12 32 -33 33 -33 19 3 -8 21 -6 27 10 36 28 15 36 13 73 -20 19 -17 38
-30 41 -30 15 0 -34 77 -63 97 -19 14 -43 52 -66 100 -20 43 -40 86 -45 95
-15 27 -13 28 32 28 58 0 120 -33 173 -92 50 -56 64 -91 47 -119 -10 -15 -8
-20 7 -29 11 -5 27 -10 37 -10 13 0 15 6 9 28 -4 15 -8 41 -8 58 0 22 -8 35
-26 46 -14 8 -40 37 -57 65 l-31 50 161 17 c229 23 407 36 495 36 l76 0 23
-44 c13 -24 36 -59 52 -77 27 -31 29 -32 30 -12 0 12 -4 33 -10 48 -9 24 -8
25 12 14 17 -9 28 -7 60 11 48 27 91 20 115 -18 10 -15 30 -42 45 -60 15 -18
38 -52 50 -75 30 -59 34 -30 5 42 -21 52 -22 61 -10 74 13 13 11 15 -11 21
-32 8 -32 14 -2 48 15 17 31 25 42 22 17 -4 104 43 104 56 0 3 -10 10 -22 15
-13 6 -26 27 -34 53 l-12 42 29 0 c16 0 29 -5 29 -11 0 -6 9 -23 21 -37 12
-16 18 -34 15 -47 -4 -16 5 -32 34 -60 22 -21 43 -36 46 -32 6 5 -24 92 -60
178 -5 12 4 23 36 42 l43 25 14 -26 c8 -15 26 -43 41 -62 15 -19 45 -66 66
-105 20 -38 45 -81 54 -95 10 -14 39 -68 66 -120 42 -82 49 -92 54 -70 6 23 7
23 16 7 9 -16 12 -17 23 -3 11 13 9 21 -8 49 -27 45 -27 47 12 47 18 0 41 6
51 13 17 13 16 18 -23 94 -22 45 -45 84 -51 88 -18 11 -11 32 17 44 24 11 31
9 71 -19 24 -17 46 -29 48 -27 3 2 -29 48 -71 102 -41 54 -75 102 -75 106 0
14 43 39 66 39 24 0 51 -37 92 -125 28 -60 63 -117 68 -112 8 7 -30 103 -58
146 -34 54 -34 65 -7 92 24 24 23 27 -28 44 -30 10 -43 22 -61 60 -13 26 -21
49 -19 51 2 3 27 7 55 11 61 7 74 -1 108 -69 18 -36 21 -48 10 -48 -7 0 -19
-7 -26 -15 -11 -13 -8 -15 14 -15 19 0 32 -10 52 -42 24 -38 25 -44 14 -79
-13 -38 -13 -38 34 -84 49 -47 85 -113 86 -153 0 -31 19 -66 106 -197 40 -60
82 -132 93 -158 12 -27 25 -45 31 -42 15 9 12 24 -9 53 -10 15 -26 51 -35 79
-10 29 -22 55 -27 59 -5 3 -30 49 -55 102 -25 53 -65 138 -90 188 -24 50 -44
94 -44 97 0 4 13 13 30 22 16 9 30 22 30 30 0 19 -13 19 -51 0 -28 -15 -30
-15 -39 7 -5 13 -18 44 -28 69 l-20 47 26 26 27 26 -32 0 c-38 0 -67 24 -87
72 -17 43 -14 48 30 48 50 0 88 -39 119 -123 31 -81 188 -330 193 -304 2 9 -8
36 -23 61 -18 31 -24 52 -19 70 4 16 2 26 -5 26 -25 0 -81 62 -86 98 -3 20
-25 74 -48 119 -40 79 -41 83 -22 96 17 13 16 15 -18 26 -31 11 -38 19 -56 72
-11 32 -16 59 -12 59 19 0 121 -107 121 -128 0 -14 11 -27 30 -37 16 -8 34
-25 41 -36 6 -11 13 -19 15 -16 12 12 -81 181 -121 219 l-43 42 24 29 c13 16
24 37 24 48 0 26 12 24 40 -6 30 -32 45 -33 25 -1 -16 24 -12 48 10 76 7 8 20
40 30 70 22 71 63 147 90 168 12 10 28 37 37 62 58 158 73 207 99 319 18 80
29 154 29 202 0 76 0 76 42 117 23 23 46 42 50 42 4 0 8 5 8 10 0 6 -11 10
-25 10 l-25 0 0 239 c0 152 4 242 10 246 6 4 7 11 4 17 -13 21 -33 133 -34
186 0 49 -45 253 -71 319 -6 15 -14 64 -19 108 -13 116 -110 355 -144 355 -7
0 -12 14 -12 34 0 21 -15 58 -41 102 -22 38 -52 90 -67 116 -49 87 -147 208
-285 350 -151 157 -215 204 -399 294 -64 32 -147 75 -183 96 -54 32 -96 45
-225 74 -88 19 -229 50 -314 69 -249 55 -289 59 -530 60 -224 0 -226 0 -340
-32 -63 -18 -217 -57 -341 -88 -286 -69 -485 -138 -582 -200 -101 -65 -223
-147 -284 -192 -66 -48 -186 -194 -217 -265 -13 -30 -54 -100 -90 -155 -175
-267 -245 -473 -295 -860 -10 -78 -23 -148 -28 -155 -6 -8 -7 -21 -2 -33 10
-25 10 -156 1 -210 -6 -32 -12 -41 -30 -43 -23 -3 -23 -4 -6 -23 20 -22 27
-61 54 -311 20 -182 41 -285 73 -359 16 -36 16 -38 -9 -64 -17 -19 -24 -35
-20 -49 3 -11 6 -25 6 -30 0 -5 7 -3 16 5 13 10 17 10 25 -2 31 -48 67 -271
41 -255 -8 5 -10 2 -6 -8 3 -9 10 -16 15 -16 14 0 11 -32 -6 -64 -20 -38 -13
-43 28 -17 l34 21 35 -38 c66 -72 70 -82 52 -135 -14 -41 -20 -47 -43 -47 -30
0 -55 22 -65 57 -4 11 -13 27 -21 33 -8 7 -15 25 -15 41 0 24 -10 34 -57 65
-81 52 -83 52 -83 9 0 -28 9 -47 35 -78 35 -41 44 -78 25 -107 -7 -12 -17 -9
-57 20 -26 18 -50 35 -52 37 -10 8 1 116 16 150 14 35 14 38 -5 53 -11 8 -55
42 -99 76 -104 81 -113 85 -89 49 29 -47 58 -75 76 -75 9 0 27 -11 40 -25 13
-14 30 -25 38 -25 10 0 12 -5 6 -17 -4 -10 -10 -42 -13 -72 l-6 -53 -26 28
c-15 16 -72 74 -126 129 -98 98 -113 117 -133 169 l-10 26 51 -26 c70 -35 79
-26 19 21 -48 39 -110 68 -120 58 -3 -3 1 -8 8 -10 10 -4 18 -63 8 -63 -2 0
-98 57 -212 128 -327 199 -574 340 -574 325 0 -17 49 -63 115 -108 69 -48 95
-71 95 -87 0 -4 -9 -16 -20 -26 -20 -18 -19 -19 77 -60 53 -23 98 -40 100 -39
2 2 -29 26 -68 53 -78 54 -74 66 13 40 54 -16 208 -101 333 -186 39 -26 81
-51 93 -54 21 -7 41 -50 29 -63 -10 -10 -66 18 -146 72 -80 55 -139 87 -181
100 -14 4 44 -38 128 -94 148 -98 252 -161 265 -161 4 0 7 11 7 25 0 25 1 25
25 9 30 -20 31 -28 4 -40 -19 -9 -10 -18 85 -93 120 -95 143 -122 121 -141
-17 -14 -33 -5 -70 37 -31 35 -189 129 -265 158 -39 15 -78 37 -89 51 -10 13
-21 21 -24 18 -17 -17 -187 110 -187 140 0 6 -27 24 -60 39 -50 23 -64 26 -82
16 -21 -11 -21 -12 -2 -23 11 -6 37 -24 57 -40 30 -23 37 -35 35 -60 -1 -28 5
-47 31 -85 13 -21 41 3 41 35 0 22 5 20 64 -28 51 -41 61 -54 46 -56 -18 -3
-18 -5 5 -42 25 -39 25 -39 5 -50 -18 -9 -26 -5 -62 35 -46 51 -164 115 -210
115 -22 0 -44 14 -86 54 -65 61 -87 74 -215 122 -51 20 -140 55 -198 80 -112
46 -189 58 -189 29 0 -8 17 -19 43 -25 85 -23 183 -52 241 -72 l58 -21 -32
-17 -32 -16 44 -36 c24 -19 54 -39 68 -43 33 -10 158 -73 190 -95 14 -9 50
-25 80 -35 30 -9 93 -38 140 -63 47 -25 106 -56 133 -69 26 -13 47 -28 47 -33
0 -6 6 -10 14 -10 7 0 30 -18 50 -40 27 -30 36 -49 36 -74 0 -41 -8 -66 -22
-66 -5 0 -101 61 -211 137 -181 122 -246 168 -390 280 -40 31 -103 64 -377
196 -69 33 -137 66 -152 73 -32 17 -88 18 -88 2 0 -6 -17 7 -37 29 -21 23 -67
55 -102 72 -35 17 -72 38 -81 46 -25 22 -80 37 -80 21 0 -6 5 -17 12 -24 17
-17 4 -24 -23 -11 -16 7 -38 40 -63 92 -35 75 -39 80 -49 60 -8 -18 -18 -23
-50 -23 l-41 0 28 -29 27 -28 -84 17 c-104 22 -125 33 -143 75 -19 46 -29 49
-49 19 -16 -25 -20 -26 -79 -20 -82 8 -276 48 -370 76 l-77 23 3 41 c2 34 7
42 26 44 30 4 27 13 -10 37 -39 24 -46 46 -47 146 -1 71 -3 78 -28 94 -25 17
-26 17 -19 -1 20 -51 27 -124 24 -236 l-3 -123 -37 -3 c-32 -3 -44 3 -83 39
-44 40 -45 41 -45 16 0 -24 -3 -25 -77 -30 -91 -5 -122 9 -136 64 -5 19 -7
156 -5 305 5 309 -2 530 -28 824 -21 226 -24 496 -8 550 7 22 8 55 3 90 -5 30
-13 147 -18 259 -6 113 -15 243 -20 290 -25 203 -43 685 -60 1596 -5 248 -12
459 -15 470 -27 89 -60 1110 -37 1153 11 21 10 22 -39 22 l-50 0 1 -82z m6199
-3013 c113 -20 246 -40 295 -45 111 -11 197 -37 345 -105 63 -28 129 -55 145
-59 108 -26 107 -25 162 -121 7 -11 51 -43 99 -69 59 -33 116 -76 174 -132 48
-46 90 -81 93 -78 15 15 60 -33 130 -138 41 -62 112 -167 158 -233 155 -226
219 -395 244 -649 14 -136 30 -263 50 -383 6 -34 5 -43 -7 -43 -15 0 -38 52
-38 86 0 11 -7 46 -15 77 -13 50 -13 61 -1 80 13 20 7 42 -66 247 -44 124 -82
241 -85 260 -4 21 -21 51 -43 76 -39 43 -54 79 -65 155 -7 58 -53 131 -99 161
-28 18 -39 35 -52 77 -18 61 -63 153 -93 191 -24 29 -27 21 -7 -18 15 -29 37
-132 28 -132 -3 0 -50 47 -106 105 -55 58 -107 105 -113 105 -22 0 -13 -14 35
-54 43 -35 202 -247 202 -268 0 -20 155 -295 177 -313 21 -18 22 -23 11 -53
-11 -27 -10 -37 5 -65 16 -30 87 -232 87 -248 0 -4 -11 -9 -24 -11 l-25 -3 28
-41 c37 -53 42 -81 48 -253 4 -142 -1 -202 -16 -185 -13 15 -30 94 -36 174 -7
92 -44 291 -57 307 -6 8 -6 18 0 29 7 13 0 29 -31 70 -23 29 -43 51 -45 49 -2
-1 22 -100 52 -218 31 -118 56 -223 56 -233 0 -15 -3 -15 -25 6 -14 13 -25 21
-25 18 0 -3 11 -41 25 -84 41 -127 46 -234 11 -234 -12 0 -86 145 -86 170 0 5
-9 10 -20 10 -22 0 -40 28 -40 64 0 19 -9 29 -37 42 -25 12 -48 37 -76 81 -21
35 -41 63 -43 63 -11 0 1 -25 56 -110 33 -51 60 -103 60 -114 0 -25 9 -38 35
-52 11 -6 34 -36 51 -68 17 -31 40 -64 52 -72 12 -8 32 -33 43 -56 17 -34 20
-54 16 -131 -4 -103 -25 -237 -37 -237 -9 0 -15 47 -31 253 -10 114 -16 157
-26 157 -9 0 -13 -33 -15 -132 l-3 -133 -45 79 c-43 75 -99 151 -106 143 -11
-11 26 -89 62 -128 23 -26 54 -70 69 -100 23 -45 27 -62 22 -109 -6 -63 -47
-192 -62 -193 -13 -1 -83 139 -91 183 -4 19 -14 43 -22 53 -18 20 -21 72 -9
127 6 27 5 31 -3 18 -16 -26 -30 -22 -31 10 l-1 27 -13 -30 -13 -30 -16 37
c-23 54 -21 81 23 253 l7 30 17 -32 c18 -34 21 -92 8 -160 -5 -24 -4 -40 0
-37 5 3 9 16 9 28 0 13 10 35 21 50 18 23 21 36 16 78 -4 27 -10 55 -15 62 -5
6 -12 34 -16 61 -3 28 -15 79 -26 113 -11 35 -20 73 -20 84 0 12 -7 26 -17 33
-13 10 -14 17 -5 45 15 42 15 105 0 202 -8 50 -17 78 -25 78 -16 0 -16 -6 2
-66 18 -61 19 -74 1 -74 -8 0 -17 15 -21 37 -4 25 -21 51 -52 82 -25 24 -66
75 -90 113 -24 37 -48 68 -53 68 -6 0 -10 -1 -10 -3 0 -6 68 -159 74 -164 3
-4 6 -11 6 -17 0 -6 -4 -4 -10 4 -18 28 -22 -13 -5 -59 8 -24 15 -65 15 -92 0
-79 -24 -65 -106 61 l-72 109 6 -86 c4 -67 2 -85 -8 -81 -7 2 -20 22 -28 43
-18 47 -62 119 -68 113 -2 -3 3 -74 11 -159 19 -195 19 -209 0 -209 -8 0 -50
52 -92 116 l-77 115 -15 -37 c-10 -27 -11 -39 -3 -42 25 -8 61 -44 117 -117
51 -66 59 -84 63 -128 2 -29 -1 -63 -6 -77 -9 -24 -9 -24 -60 27 -57 57 -102
138 -102 183 0 33 -22 40 -54 17 -17 -13 -17 -15 11 -48 16 -19 69 -85 116
-148 62 -80 87 -121 87 -141 0 -29 -56 -150 -70 -150 -4 0 -10 -14 -14 -31 -7
-35 -79 -113 -98 -107 -7 3 -23 39 -36 82 -20 65 -26 75 -38 65 -22 -18 -17
-67 12 -104 16 -22 26 -48 27 -71 1 -37 -4 -43 -81 -102 -13 -9 -37 -39 -53
-67 -16 -27 -40 -63 -54 -80 l-25 -30 -18 24 c-9 14 -39 56 -65 94 -27 38 -51
67 -53 64 -7 -6 34 -93 51 -107 22 -18 105 -166 105 -187 0 -11 11 -23 28 -29
33 -13 71 -82 79 -144 5 -34 9 -40 29 -40 16 0 29 -10 40 -32 16 -31 16 -32
-16 -58 -17 -14 -54 -38 -81 -53 l-48 -28 -26 41 c-21 33 -24 44 -14 56 13 16
-4 44 -28 44 -7 0 -28 16 -45 35 -17 20 -32 34 -35 32 -2 -2 24 -55 57 -117
33 -63 60 -115 60 -116 0 -5 -121 -74 -131 -74 -7 0 -29 15 -48 33 -25 24 -32
27 -27 12 4 -11 10 -34 13 -50 5 -30 4 -31 -55 -44 -44 -10 -65 -10 -80 -2
-28 15 -30 14 -34 -11 -5 -39 -91 -37 -101 2 -7 27 -21 25 -35 -5 -14 -31 -49
-33 -86 -4 -35 27 -89 107 -81 119 3 6 25 10 49 10 46 0 63 -13 84 -62 6 -16
18 -28 27 -28 16 0 20 15 6 24 -5 3 -12 22 -16 43 -11 61 -142 253 -173 253
-13 0 -12 -4 5 -22 26 -29 83 -122 83 -136 0 -6 -23 -18 -50 -27 -46 -15 -53
-15 -74 -1 -14 8 -50 54 -82 102 -32 47 -60 81 -62 75 -5 -16 41 -91 77 -125
19 -18 31 -40 31 -55 0 -18 20 -45 67 -93 58 -59 65 -69 53 -83 -12 -14 -10
-20 16 -40 16 -14 35 -24 42 -25 6 0 12 -7 12 -15 0 -12 -14 -15 -64 -15 -92
0 -278 26 -385 54 l-91 23 0 -23 c0 -20 7 -24 48 -30 61 -9 99 -28 107 -55 9
-28 -8 -39 -61 -39 -26 0 -53 8 -75 23 -44 29 -101 105 -95 126 3 11 -19 36
-66 76 -39 33 -91 79 -117 103 -46 42 -46 43 -25 58 21 15 20 16 -42 76 -35
34 -91 100 -123 148 -33 48 -76 106 -95 129 -20 24 -36 55 -37 69 0 15 -3 21
-6 15 -6 -17 -23 -17 -23 0 0 8 -11 24 -25 37 l-26 24 16 -44 c20 -57 58 -120
84 -142 12 -10 21 -24 21 -32 0 -8 27 -55 61 -106 33 -50 59 -94 56 -96 -6 -7
-124 137 -177 216 -24 36 -66 107 -92 159 l-48 94 0 -44 c1 -58 15 -86 147
-280 141 -208 222 -297 291 -322 37 -14 72 -40 141 -108 106 -105 129 -135
113 -151 -7 -7 -20 -5 -44 10 -50 30 -78 37 -78 18 0 -20 -7 -20 -61 -1 -54
19 -47 12 65 -67 87 -61 117 -91 104 -103 -7 -7 -223 74 -270 102 -39 23 -78
77 -78 108 l0 22 50 -25 c49 -24 69 -25 56 -3 -4 6 -38 31 -76 55 -102 66
-294 248 -350 332 -76 112 -200 368 -200 413 0 20 -7 46 -16 57 -14 18 -15 15
-9 -31 3 -27 15 -83 26 -123 23 -85 23 -92 6 -92 -7 0 -18 15 -25 34 -7 18
-35 71 -63 117 -28 46 -76 152 -107 234 l-56 150 -4 320 c-2 259 0 339 13 423
9 57 15 106 12 108 -5 6 -33 -135 -48 -246 -17 -126 -14 -414 6 -545 21 -144
56 -297 93 -412 16 -51 28 -93 26 -93 -2 0 -10 13 -19 29 -14 28 -81 78 -91
69 -2 -3 31 -48 74 -99 88 -108 143 -192 215 -329 59 -113 61 -115 185 -249
53 -58 89 -102 79 -98 -71 27 -277 206 -277 241 0 8 -18 36 -40 61 -22 26 -58
73 -80 106 -48 70 -235 427 -255 486 -20 57 -33 147 -41 278 -3 61 -15 154
-25 208 -10 54 -19 120 -20 145 l-1 47 -12 -61 c-8 -38 -9 -85 -5 -125 5 -35
12 -143 18 -239 12 -213 18 -243 81 -385 57 -127 62 -149 26 -116 -42 40 -95
155 -126 273 -55 211 -60 264 -60 605 0 247 -3 314 -12 311 -16 -6 -25 -105
-34 -385 -5 -161 -10 -215 -20 -224 -12 -10 -14 21 -14 194 0 191 4 237 32
357 6 25 14 104 17 175 6 110 11 139 34 188 29 63 54 78 43 25 -18 -84 -38
-208 -42 -258 l-4 -55 21 60 c11 33 23 85 26 115 3 30 12 64 19 75 8 11 14 29
14 40 0 11 20 88 45 170 106 349 116 386 110 406 -7 21 -7 21 -28 1 -12 -10
-28 -23 -36 -27 -30 -17 0 27 118 172 126 156 160 187 307 276 50 30 109 67
130 81 101 66 259 124 525 192 l264 67 170 3 c94 2 193 7 220 12 28 5 57 8 65
6 8 -2 107 -19 220 -39z m1485 -969 c13 -13 27 -40 30 -59 14 -71 0 -68 -37 7
-39 77 -36 95 7 52z m164 -322 c21 -15 22 -20 16 -90 -7 -72 -6 -77 28 -142
19 -37 41 -87 47 -112 15 -55 28 -190 19 -190 -9 0 -63 125 -88 203 -17 56
-45 189 -66 320 -5 31 9 35 44 11z m-3903 -191 c-3 -16 -9 -72 -13 -125 -5
-77 -9 -98 -21 -98 -12 0 -13 9 -8 48 20 155 29 202 38 202 6 0 8 -12 4 -27z
m3387 -104 c52 -78 72 -136 63 -183 -3 -18 1 -58 9 -89 8 -32 15 -77 15 -100
l0 -42 -20 33 c-11 17 -24 32 -28 32 -17 0 0 -48 24 -71 21 -20 24 -32 24 -91
0 -65 -30 -168 -49 -168 -4 0 -11 15 -16 32 -6 18 -18 34 -27 36 -16 3 -18 -5
-18 -67 0 -69 -1 -71 -25 -71 -24 0 -25 -2 -25 -65 0 -65 6 -75 28 -53 6 6 15
9 18 5 10 -9 -13 -83 -31 -101 -8 -8 -15 -31 -15 -51 0 -37 -45 -135 -62 -135
-14 0 -29 49 -22 75 3 14 24 44 45 69 49 55 53 104 13 139 -34 29 -44 100 -20
145 9 18 21 32 26 32 5 0 5 13 -1 32 -10 36 -12 118 -3 118 3 0 14 -5 24 -10
18 -10 19 -8 12 22 -8 39 -8 85 3 191 l8 78 27 -26 c31 -29 55 -34 41 -7 -49
93 -68 162 -74 260 -3 56 -2 102 2 102 4 0 28 -32 54 -71z m-168 -61 c62 -72
88 -133 93 -218 2 -43 -1 -87 -7 -104 l-12 -29 -28 34 c-16 19 -31 32 -34 29
-3 -3 6 -36 19 -75 24 -72 29 -121 16 -142 -10 -15 -128 141 -137 182 -4 17
-15 36 -23 43 -13 10 -17 39 -20 142 -4 133 3 160 28 100 9 -22 11 -59 6 -130
-8 -110 2 -128 30 -55 l17 46 28 -33 29 -33 -29 70 c-16 39 -32 87 -36 108 -8
41 1 107 15 107 4 0 25 -19 45 -42z m835 -275 c13 -36 20 -78 20 -128 0 -85
-20 -215 -33 -215 -4 0 -20 25 -34 56 -21 47 -26 75 -29 168 -3 61 -6 142 -8
181 l-4 70 34 -39 c19 -21 43 -63 54 -93z m-848 -246 c21 -48 38 -96 38 -107
0 -22 -32 -43 -53 -34 -12 4 -14 -3 -10 -39 7 -56 -17 -109 -61 -136 -25 -16
-38 -37 -64 -108 -46 -124 -45 -123 -76 -72 -27 45 -34 36 -15 -20 9 -26 8
-37 -10 -66 -11 -19 -19 -35 -18 -35 1 0 17 4 35 9 26 8 34 7 39 -5 6 -15 39
-19 47 -6 3 5 0 25 -6 45 -10 33 -8 40 28 96 21 34 41 61 44 61 3 0 14 -14 24
-31 30 -50 15 -107 -40 -158 l-45 -41 22 -40 c26 -46 34 -47 17 -2 -12 31 -11
33 42 87 42 42 57 52 67 43 19 -15 8 -41 -51 -126 -94 -135 -117 -162 -134
-162 -21 0 -74 83 -103 161 -11 30 -31 63 -44 74 -13 11 -44 55 -69 97 l-45
77 57 26 c44 20 61 24 74 16 27 -17 28 -15 28 37 0 38 12 73 59 170 33 67 64
137 71 155 10 30 12 31 22 12 18 -33 80 -105 89 -105 19 0 7 29 -35 86 -58 77
-63 100 -37 160 l22 48 26 -40 c15 -21 44 -78 65 -127z m703 43 c16 -30 19
-86 9 -139 -16 -79 -49 11 -39 105 4 35 8 64 11 64 2 0 10 -13 19 -30z m240
-75 c0 -38 -4 -107 -9 -153 -10 -94 -25 -97 -46 -11 -14 56 -8 120 17 212 14
49 18 55 27 40 6 -10 10 -49 11 -88z m-129 -129 c18 -52 14 -188 -4 -194 -6
-2 -7 -32 -4 -69 6 -84 -15 -288 -35 -333 l-16 -35 -18 40 c-30 66 -33 120
-14 266 10 76 15 148 12 159 -6 23 -4 24 23 8 10 -7 22 -9 25 -6 4 3 -1 54 -9
112 -9 59 -16 117 -16 129 0 22 1 22 20 -3 11 -14 27 -47 36 -74z m-106 -51
c10 -12 8 -40 -8 -142 l-20 -128 -1 143 c0 78 3 142 8 142 5 0 14 -7 21 -15z
m-430 -106 c0 -14 -9 -34 -19 -43 -19 -17 -20 -17 -35 13 -20 38 -20 51 0 80
l17 24 18 -24 c10 -13 19 -36 19 -50z m-219 -6 c10 -28 -2 -65 -38 -112 l-27
-34 -28 33 c-15 19 -28 42 -28 52 0 10 19 39 41 63 45 48 61 48 80 -2z m854
17 c20 -38 19 -79 -2 -167 -29 -117 -43 -96 -43 62 0 112 2 135 15 135 8 0 21
-13 30 -30z m-700 -130 c0 -76 -8 -83 -39 -31 -18 31 -18 35 -3 67 27 56 42
43 42 -36z m125 28 c-5 -13 -12 -40 -15 -61 -5 -32 -9 -36 -21 -27 -22 19 -17
59 12 85 33 31 36 31 24 3z m-746 -138 c25 -35 46 -70 46 -78 0 -8 -9 -30 -21
-48 l-21 -34 46 0 c24 0 48 -5 52 -11 3 -6 -9 -26 -27 -45 -34 -35 -30 -45 8
-19 21 15 24 13 61 -37 l38 -52 -50 -38 c-28 -21 -54 -38 -57 -38 -4 0 -19 20
-33 44 -14 24 -66 100 -116 170 -49 69 -90 132 -90 140 0 20 101 129 110 119
4 -4 28 -37 54 -73z m997 -36 c-7 -29 -27 -78 -46 -109 -19 -32 -35 -69 -35
-83 0 -14 -22 -74 -50 -133 -27 -59 -50 -114 -50 -121 0 -7 -9 -2 -20 12 -27
34 -27 103 0 130 11 11 24 20 30 20 14 0 40 55 40 85 0 36 18 68 36 61 11 -4
14 5 14 43 0 43 16 102 50 186 l12 30 15 -35 c12 -29 13 -44 4 -86z m-431 -2
c0 -45 -18 -89 -44 -111 -13 -11 -17 -9 -26 14 -20 54 -7 123 33 173 16 20 36
-23 37 -76z m264 1 c38 -61 43 -87 24 -128 -14 -31 -19 -31 -46 -2 -44 46 -64
126 -42 168 16 29 25 24 64 -38z m-6511 21 c87 -12 131 -22 134 -31 3 -8 -4
-91 -16 -185 -12 -95 -26 -251 -31 -348 -5 -96 -16 -213 -24 -260 -27 -146
-83 -589 -126 -980 -42 -391 -94 -735 -114 -759 -9 -11 -13 -4 -20 35 -5 27
-11 604 -13 1281 -3 1228 -3 1233 17 1253 13 13 29 19 43 16 12 -3 80 -13 150
-22z m3022 -46 c9 -35 28 -86 41 -114 28 -59 29 -64 11 -64 -20 0 -41 28 -66
90 -30 74 -39 150 -19 150 10 0 21 -21 33 -62z m3945 -32 c0 -69 -18 -146 -50
-215 -17 -35 -32 -62 -35 -59 -2 2 7 53 21 114 14 60 30 132 36 161 14 61 28
60 28 -1z m-240 -52 c-19 -133 -17 -127 -45 -108 -35 23 -38 45 -15 105 50
127 79 128 60 3z m-3789 9 c40 -120 34 -153 -6 -41 -12 35 -26 71 -30 82 -6
14 -4 18 6 14 8 -2 21 -27 30 -55z m3354 31 c-1 -26 -39 -134 -47 -134 -5 0
-19 5 -30 11 -18 10 -20 9 -14 -6 17 -45 28 -107 22 -130 -4 -14 -29 -42 -61
-65 -31 -23 -67 -59 -81 -80 -36 -55 -57 -53 -88 9 -18 33 -17 33 10 62 30 31
17 38 -26 14 -22 -12 -27 -11 -42 2 -10 9 -18 24 -18 34 0 15 93 109 109 109
3 0 22 -28 41 -63 l35 -62 3 49 c3 45 9 56 60 111 31 33 68 82 82 108 22 41
46 58 45 31z m155 -56 c16 -29 30 -62 30 -74 0 -28 -30 -114 -40 -114 -13 0
-53 103 -54 140 0 31 20 100 30 100 2 0 17 -24 34 -52z m-286 10 c19 -43 8
-66 -50 -110 -45 -35 -50 -36 -61 -21 -24 32 -15 63 35 113 26 27 51 49 55 50
4 0 14 -14 21 -32z m-5523 -38 c57 -28 121 -53 141 -56 21 -4 66 -23 100 -43
53 -31 64 -42 72 -73 8 -33 4 -48 -37 -137 -26 -55 -66 -144 -88 -198 -23 -54
-65 -152 -94 -218 -29 -66 -80 -196 -113 -290 -33 -93 -85 -233 -116 -309 -31
-76 -90 -243 -131 -370 -91 -284 -129 -400 -132 -405 -2 -3 -8 0 -13 5 -6 6 1
81 20 204 16 107 59 411 95 675 167 1215 174 1265 185 1265 4 0 54 -23 111
-50z m6156 -32 c28 -26 31 -86 7 -144 -9 -22 -20 -49 -25 -62 -8 -22 -10 -22
-33 -7 l-25 16 6 -54 c8 -75 -2 -116 -38 -157 l-31 -35 4 96 c3 87 6 99 31
133 21 26 34 64 49 136 12 55 24 100 27 100 2 0 15 -10 28 -22z m-3578 -186
l53 -72 18 22 19 23 53 -55 c52 -53 178 -225 178 -242 0 -18 -40 18 -66 60
-32 51 -59 72 -92 72 -19 0 -21 -3 -13 -17 5 -10 12 -40 16 -68 l8 -50 -35 35
c-19 19 -53 67 -75 105 -23 39 -68 102 -100 140 -58 68 -93 138 -93 183 0 19
5 16 38 -21 22 -23 63 -75 91 -115z m3167 81 c14 -36 15 -50 5 -83 -16 -53
-30 -59 -58 -25 -27 31 -41 28 -23 -5 16 -29 5 -67 -31 -108 -42 -48 -27 -54
20 -8 l38 37 27 -31 c14 -17 26 -38 26 -47 0 -30 -32 -82 -67 -109 l-36 -27
-18 24 -19 24 0 -50 c0 -27 -4 -55 -8 -62 -14 -22 -66 -35 -112 -28 -37 5 -43
4 -32 -6 21 -22 13 -47 -23 -69 -29 -18 -38 -20 -50 -10 -22 18 -18 48 8 56
29 9 187 163 187 183 0 9 6 27 13 41 12 23 11 28 -15 58 -47 55 -34 134 28
171 33 20 84 103 84 137 0 29 37 -12 56 -63z m-2825 3 c99 -95 337 -388 380
-467 10 -19 9 -20 -11 -9 -55 30 -231 226 -345 385 -98 137 -107 170 -24 91z
m3109 -19 c0 -33 -30 -137 -39 -137 -9 0 -51 68 -51 81 0 5 11 25 25 43 14 18
25 43 25 56 0 22 1 23 20 5 12 -10 20 -31 20 -48z m-3426 -305 c103 -129 235
-290 294 -358 59 -69 108 -129 110 -134 4 -11 -56 3 -102 25 -21 10 -59 38
-84 61 -25 24 -58 48 -74 55 -21 9 -28 18 -28 39 0 40 -20 89 -40 100 -10 6
-30 10 -44 10 -22 0 -26 4 -26 31 0 36 -10 58 -60 124 -21 28 -41 60 -45 73
-6 22 -8 22 -24 8 -26 -24 -29 -20 -24 27 4 36 -1 56 -31 115 -64 127 -66 129
178 -176z m2666 193 c11 -52 17 -65 32 -65 10 0 22 -10 27 -22 10 -27 5 -36
-11 -20 -8 8 -18 5 -40 -13 -16 -14 -36 -25 -43 -25 -13 0 -85 90 -85 106 0
10 91 104 100 104 4 0 13 -29 20 -65z m937 -25 c-34 -73 -47 -86 -47 -46 0 50
38 116 66 116 8 0 2 -24 -19 -70z m-268 6 c25 -39 27 -74 7 -119 -28 -63 -32
-65 -64 -33 l-30 28 5 -66 c3 -36 2 -66 -3 -66 -12 0 -54 62 -54 79 0 7 8 25
19 39 10 15 35 60 55 100 20 39 38 72 40 72 3 0 14 -15 25 -34z m-155 -18 c9
-34 7 -66 -3 -72 -5 -4 -19 10 -31 29 -18 29 -20 38 -10 50 18 22 37 18 44 -7z
m-4926 -112 c106 -55 192 -103 192 -108 0 -15 -291 -529 -528 -933 -302 -515
-882 -1412 -882 -1365 0 7 6 21 14 29 7 9 41 93 76 186 78 214 177 458 236
583 41 87 107 259 284 732 64 172 208 512 299 708 32 70 61 143 65 161 14 74
27 112 39 109 7 -2 99 -48 205 -102z m4297 37 l45 -58 -22 -15 c-13 -8 -36
-27 -53 -43 l-30 -27 54 20 c49 19 55 19 77 5 24 -15 24 -15 24 16 0 22 9 40
31 60 44 41 63 39 56 -6 -5 -29 -2 -37 16 -47 42 -22 72 -77 63 -114 -4 -13
-19 -32 -36 -44 -28 -20 -31 -20 -55 -4 l-25 16 0 -34 c0 -19 -6 -41 -12 -50
-13 -15 -130 -88 -142 -88 -8 0 -59 111 -53 116 6 6 124 82 146 93 17 9 24 8
39 -7 19 -19 19 -18 14 23 -3 34 0 47 17 64 11 11 21 23 21 25 0 6 -128 -66
-197 -111 -62 -39 -69 -40 -83 -12 -13 23 2 49 27 49 13 0 13 3 3 15 -8 9 -17
12 -24 7 -36 -28 -47 -22 -72 33 -24 56 -33 135 -14 135 6 0 10 7 10 15 0 12
5 12 24 4 18 -9 30 -7 52 5 16 8 35 15 41 16 7 0 33 -26 58 -57z m378 3 c15
-24 27 -50 27 -58 0 -21 -68 -108 -85 -108 -21 0 -65 63 -65 94 0 17 14 42 41
71 23 25 44 45 48 45 3 0 18 -20 34 -44z m-589 -107 c23 -26 56 -73 72 -103
25 -48 27 -59 16 -76 -7 -11 -8 -20 -2 -20 12 0 43 -33 81 -84 32 -43 36 -56
17 -56 -7 0 -40 -14 -73 -30 -33 -16 -72 -30 -88 -30 -15 0 -59 -16 -98 -36
-39 -19 -72 -34 -74 -32 -2 2 -6 28 -10 60 -7 53 -6 57 18 73 14 9 50 19 80
22 49 5 58 10 86 46 17 22 31 44 31 48 0 4 -22 -1 -50 -13 -47 -19 -51 -20
-75 -4 -33 22 -32 32 8 52 43 22 119 75 115 80 -2 2 -33 -6 -68 -17 -46 -14
-74 -30 -97 -56 -18 -19 -33 -37 -33 -38 0 -2 16 -13 35 -25 19 -12 35 -27 35
-34 0 -7 -24 -19 -55 -26 -44 -10 -61 -11 -82 -1 l-26 12 39 41 39 41 -30 -6
c-16 -4 -40 -9 -52 -13 -17 -5 -26 2 -48 36 l-26 41 26 30 c14 17 25 36 25 43
0 7 10 21 21 32 21 19 22 19 38 -5 9 -14 24 -34 34 -45 18 -21 19 -21 12 -1
-3 11 -9 41 -12 66 -6 50 4 62 66 79 40 10 58 2 105 -51z m1190 23 c-9 -36
-56 -112 -66 -106 -19 12 -7 71 23 107 34 41 53 41 43 -1z m-159 -87 c-31 -48
-39 -55 -47 -41 -17 30 -12 75 13 110 l24 36 23 -24 24 -23 -37 -58z m-4257
-18 c27 -25 30 -67 5 -67 -10 0 -30 8 -44 18 -15 9 -45 29 -68 45 -44 29 -52
50 -23 66 18 10 84 -21 130 -62z m4077 33 c21 -41 19 -61 -13 -99 l-27 -33
-39 16 c-49 20 -49 20 -43 -6 3 -11 0 -36 -8 -55 -13 -31 -13 -33 8 -33 19 0
17 -4 -18 -40 -21 -22 -46 -40 -54 -40 -12 0 -12 3 -3 12 7 7 12 18 12 25 0
16 -32 17 -48 1 -19 -19 -15 53 4 80 8 12 40 38 70 57 29 19 73 59 96 90 24
30 44 55 45 55 1 0 9 -13 18 -30z m-2901 -107 c81 -78 156 -140 236 -195 l25
-17 -26 0 c-61 -2 -186 89 -319 232 -60 64 -61 67 -35 67 21 0 50 -21 119 -87z
m1629 75 c-30 -14 -29 -26 2 -34 24 -6 25 -7 8 -21 -17 -13 -16 -14 5 -8 45
13 92 -25 107 -87 6 -24 4 -27 -29 -33 -55 -11 -82 12 -96 79 -9 42 -19 62
-46 85 l-35 31 53 -1 c46 0 50 -2 31 -11z m1507 -7 c-5 -11 -10 -36 -10 -56 0
-29 -5 -38 -27 -48 -30 -12 -44 -29 -54 -62 -5 -16 -13 -7 -38 45 -46 95 -39
153 9 75 12 -19 23 -35 25 -35 2 0 19 23 39 50 20 28 43 50 51 50 12 0 13 -4
5 -19z m-1605 -22 c19 -17 35 -35 35 -40 0 -8 -63 -29 -89 -29 -10 0 -8 7 7
23 27 29 28 37 3 37 -11 0 -32 5 -48 11 -22 8 -24 12 -13 19 29 19 69 10 105
-21z m-2428 -27 c20 -26 35 -53 31 -58 -4 -3 -101 58 -122 76 -4 5 -5 13 -2
19 9 14 73 -12 93 -37z m1199 -70 c64 -43 144 -125 144 -148 0 -29 -141 38
-207 99 -47 44 -83 102 -83 137 0 20 3 19 43 -13 23 -19 70 -52 103 -75z m920
47 c15 -12 15 -14 -7 -20 -33 -10 -112 -10 -125 -1 -10 6 -34 45 -34 55 0 9
151 -21 166 -34z m-1871 -82 c0 -13 -28 -15 -63 -3 -22 7 -23 6 -17 -16 4 -12
19 -35 33 -50 41 -44 11 -33 -64 25 l-69 52 42 3 42 3 -15 34 c-27 64 -17 67
49 15 34 -28 62 -56 62 -63z m179 21 c42 -51 76 -98 76 -105 0 -9 -15 -13 -44
-13 -40 0 -47 4 -83 48 -22 26 -43 55 -46 65 -8 22 2 97 13 97 4 0 42 -42 84
-92z m-599 62 c3 -5 -2 -21 -11 -35 l-17 -25 -13 26 c-8 14 -14 30 -14 35 0
12 47 11 55 -1z m2475 -15 l-23 -25 35 0 c49 0 98 -57 98 -114 0 -22 -6 -26
-56 -36 -51 -11 -59 -10 -83 8 -26 19 -26 19 -53 -1 -25 -18 -33 -19 -95 -9
-57 10 -70 9 -84 -4 -15 -14 -20 -14 -48 1 -20 10 -44 14 -64 10 -18 -3 -37
-2 -42 2 -19 14 -75 91 -75 102 0 14 -17 14 -26 0 -3 -6 6 -24 22 -40 60 -63
-21 -47 -89 18 -29 27 -45 49 -40 54 6 6 57 3 124 -6 63 -8 128 -15 145 -15
23 0 36 -7 48 -25 21 -31 36 -32 36 -1 0 20 8 26 53 39 l52 15 43 -42 c42 -40
43 -40 32 -11 -10 26 -8 31 12 46 l23 17 -30 7 c-50 11 -57 14 -50 25 3 5 40
10 82 10 l76 0 -23 -25z m191 -60 c28 -60 23 -85 -16 -85 -19 0 -26 7 -31 28
-4 15 -13 40 -21 55 -13 26 -13 30 4 43 29 22 37 17 64 -41z m1359 50 c0 -18
-77 -155 -87 -155 -15 0 -18 61 -4 76 5 5 14 26 21 47 10 32 16 37 41 37 16 0
29 -2 29 -5z m-3900 -70 l55 -55 -65 25 c-35 14 -65 25 -67 25 -6 0 -3 47 4
53 11 12 18 8 73 -48z m3369 -51 c-23 -24 -135 -68 -143 -55 -13 20 25 59 89
93 l70 37 3 -26 c2 -16 -5 -34 -19 -49z m-3799 -78 c69 -51 163 -130 210 -174
l85 -81 -55 -53 c-30 -29 -118 -111 -195 -182 -77 -71 -340 -319 -585 -551
-537 -508 -844 -794 -848 -790 -2 2 57 95 131 207 174 263 385 599 509 811 54
93 182 297 284 454 102 158 195 305 206 327 41 80 80 126 107 126 17 0 69 -33
151 -94z m843 50 c30 -20 58 -40 61 -45 10 -15 -3 -36 -34 -54 -18 -11 -30
-27 -32 -45 l-3 -27 -47 43 c-43 40 -66 77 -56 88 3 2 23 -9 46 -26 23 -16 44
-30 46 -30 6 0 -37 82 -51 98 -17 18 -17 46 0 39 8 -3 39 -21 70 -41z m2330
30 c34 -26 19 -36 -52 -36 -65 0 -70 -2 -73 -22 -2 -19 -10 -24 -40 -26 -59
-5 -46 14 40 57 84 44 99 47 125 27z m835 -38 c2 -27 0 -48 -5 -48 -4 0 -26 7
-50 16 -75 29 -63 89 17 82 34 -3 35 -4 38 -50z m-2100 -2 c44 -23 102 -94
102 -125 0 -12 -53 2 -86 24 -22 14 -94 111 -94 127 0 8 34 -3 78 -26z m2416
-13 c-20 -27 -38 -50 -39 -51 -2 -2 -1 6 2 17 5 21 55 81 67 81 3 0 -10 -21
-30 -47z m-124 28 c0 -25 -23 -65 -52 -91 -31 -29 -32 -29 -45 -10 -21 29 -8
56 40 85 45 27 57 30 57 16z m-325 -17 c46 -30 33 -56 -54 -108 -43 -25 -81
-46 -84 -46 -9 0 -47 76 -47 95 0 8 8 15 19 15 10 0 35 14 56 30 42 34 74 38
110 14z m-1638 -38 c10 -13 25 -37 34 -54 13 -23 26 -31 59 -37 43 -7 111 -57
97 -71 -4 -4 -30 2 -58 14 l-51 21 4 -30 c4 -24 2 -29 -11 -23 -9 4 -53 17
-99 30 -46 13 -98 31 -115 41 -29 17 -77 75 -77 93 0 11 105 -8 160 -29 59
-22 63 -12 16 35 l-34 34 28 0 c18 0 35 -9 47 -24z m-1183 -16 c55 -38 86 -75
86 -106 l0 -23 -62 25 c-34 13 -63 22 -65 20 -2 -2 13 -25 33 -51 l36 -48 -29
7 c-74 19 -120 70 -107 121 l6 26 25 -23 25 -23 -7 37 c-7 35 -2 68 9 68 3 0
25 -14 50 -30z m1386 3 l125 -18 -85 -3 c-95 -3 -211 17 -218 38 -4 10 3 12
24 7 16 -3 86 -14 154 -24z m505 16 c4 -5 0 -18 -9 -28 -15 -17 -13 -22 34
-72 27 -29 50 -54 50 -55 0 -9 -104 -34 -120 -29 -25 8 -60 52 -60 76 0 9 17
28 38 41 l37 23 -64 5 c-70 5 -89 22 -44 38 38 14 130 15 138 1z m283 -28 c18
-59 15 -68 -23 -81 -41 -13 -57 -5 -80 41 -17 31 -12 38 45 62 48 21 45 22 58
-22z m402 27 c0 -24 -16 -37 -81 -66 -36 -16 -85 -42 -108 -56 -42 -27 -101
-33 -107 -11 -5 18 85 68 112 62 20 -3 23 -1 19 13 -4 14 2 19 28 24 19 4 42
15 52 26 20 23 85 28 85 8z m-880 -18 c0 -24 -50 -43 -97 -36 -76 10 -74 21 8
35 75 12 89 12 89 1z m330 -12 c0 -13 7 -32 15 -42 22 -29 18 -53 -10 -72 -29
-19 -40 -14 -63 32 l-18 35 30 34 c37 40 46 43 46 13z m979 -14 c17 -37 -9
-77 -47 -72 -36 4 -39 29 -7 67 32 38 38 38 54 5z m-343 -74 c20 0 17 -9 -8
-30 l-23 -19 22 -20 c19 -18 20 -24 11 -56 -6 -19 -15 -35 -20 -35 -14 0 -26
44 -21 73 6 31 4 32 -57 13 -25 -7 -51 -11 -58 -9 -14 5 -45 73 -37 81 2 3 33
22 67 43 l63 39 23 -40 c13 -22 30 -40 38 -40z m-2072 18 c44 -29 116 -76 158
-104 75 -50 78 -51 78 -28 0 29 5 29 75 3 49 -18 85 -49 85 -71 0 -5 -22 -8
-50 -8 -35 0 -50 -4 -50 -13 0 -27 57 -61 118 -72 47 -8 57 -25 15 -25 -88 1
-202 29 -277 67 -75 38 -79 41 -58 52 19 10 28 9 56 -8 37 -23 76 -27 94 -9
16 16 15 38 -2 38 -38 0 -151 45 -205 81 -71 47 -156 149 -125 149 3 0 43 -24
88 -52z m236 -8 c82 -41 104 -70 53 -70 -21 0 -79 31 -162 86 -6 5 10 24 20
24 5 0 45 -18 89 -40z m2548 28 c18 -18 15 -39 -10 -65 -20 -21 -23 -22 -40
-6 -23 21 -23 38 2 63 23 23 31 25 48 8z m-3651 -81 c29 -52 11 -48 -56 13
-62 57 -61 85 2 39 23 -17 47 -40 54 -52z m1823 59 c40 -21 47 -22 77 -10 41
18 104 18 127 1 17 -13 38 -81 28 -91 -3 -4 -62 -6 -132 -6 -83 0 -130 -4
-138 -12 -21 -21 6 -38 59 -38 37 0 49 -4 49 -15 0 -12 -16 -15 -80 -15 l-80
0 0 42 c0 28 -7 49 -20 63 -11 12 -25 36 -30 54 -8 28 -6 33 13 41 38 15 81
11 127 -14z m1345 -26 c-4 -6 -32 -25 -63 -43 -46 -26 -53 -33 -35 -35 14 -2
20 -8 16 -18 -8 -22 -27 -17 -51 16 l-23 30 23 10 c50 21 123 49 131 49 5 1 5
-4 2 -9z m-455 -14 c0 -7 11 -35 25 -61 14 -26 24 -49 22 -52 -2 -2 -49 -14
-103 -28 -55 -13 -148 -38 -209 -55 l-110 -31 -17 22 c-10 12 -18 30 -18 40 0
16 8 19 53 19 38 1 67 9 107 30 68 37 82 37 116 3 l26 -28 -5 35 c-3 19 -8 42
-11 50 -5 11 9 22 51 42 69 31 73 32 73 14z m-201 -20 c9 -11 5 -16 -20 -25
-40 -14 -66 -14 -74 0 -18 28 71 53 94 25z m-2042 -45 c32 -27 74 -66 93 -86
l35 -38 -60 42 c-116 81 -168 131 -136 131 6 0 36 -22 68 -49z m-509 -96 c-3
-4 -29 10 -57 30 -41 30 -48 39 -38 50 10 11 20 6 57 -30 24 -24 41 -47 38
-50z m143 67 c42 -27 79 -75 66 -88 -12 -12 -127 86 -127 109 0 13 15 8 61
-21z m338 -64 c91 -93 91 -93 70 -110 -12 -10 -25 -18 -29 -18 -5 0 -45 37
-89 82 -63 63 -81 88 -81 110 0 49 32 33 129 -64z m1114 61 c30 -8 37 -14 32
-27 -12 -31 -10 -36 12 -40 27 -4 73 -56 73 -83 0 -11 12 -40 26 -64 l26 -44
-84 5 c-97 6 -198 22 -218 34 -11 7 -12 14 -2 34 l12 26 39 -21 c38 -20 41
-20 75 -4 20 10 36 20 36 24 0 4 -21 13 -47 19 -59 16 -73 28 -73 59 0 22 3
24 31 18 22 -5 34 -3 40 6 15 24 10 39 -14 39 -13 0 -32 7 -43 15 -18 14 -18
14 11 15 17 0 47 -5 68 -11z m695 -6 c3 -9 -12 -13 -52 -13 -44 0 -56 3 -56
16 0 12 10 14 52 12 30 -2 53 -8 56 -15z m1186 -52 c40 -41 39 -45 -11 -56
-43 -9 -65 -1 -91 35 l-22 30 32 14 c47 21 50 20 92 -23z m-2064 6 c51 -25 66
-57 27 -57 -27 0 -71 31 -87 61 -14 25 2 24 60 -4z m1420 -25 c0 -13 -15 -23
-52 -35 -48 -15 -52 -15 -64 1 -29 37 -13 47 79 51 30 1 37 -3 37 -17z m-520
-26 c0 -52 -52 -58 -71 -9 -12 33 -4 43 37 43 32 0 34 -2 34 -34z m-130 -6
c40 -40 14 -60 -81 -60 -39 0 -59 18 -59 54 0 29 112 34 140 6z m-190 -17 l22
-28 -28 -3 c-16 -2 -33 -8 -38 -13 -6 -5 -27 -9 -47 -9 -40 0 -69 26 -69 62 0
16 10 18 69 18 64 0 71 -2 91 -27z m680 10 c0 -14 -89 -65 -107 -61 -10 2 -19
11 -21 20 -2 12 10 20 45 31 55 17 83 20 83 10z m-2307 -79 c21 -36 37 -68 34
-70 -12 -13 -60 11 -70 35 -6 14 -22 39 -34 54 -30 37 -29 47 5 47 23 0 33
-11 65 -66z m375 49 c72 -44 87 -79 60 -138 -14 -30 -19 -31 -44 -4 -10 12
-38 35 -61 51 -34 23 -43 35 -43 58 0 47 41 62 88 33z m2579 -63 c7 -14 23
-47 36 -75 13 -27 45 -84 71 -126 25 -41 48 -88 49 -105 2 -25 -2 -29 -27 -32
-53 -6 -75 6 -106 61 -37 64 -37 77 -4 111 24 23 24 26 8 26 -48 0 -96 22
-114 53 -27 43 -25 53 13 88 37 34 56 34 74 -1z m107 -19 c37 -38 47 -53 41
-70 -11 -35 -30 -24 -69 38 -58 95 -47 108 28 32z m-2778 -6 c8 -19 25 -42 37
-50 13 -8 30 -33 37 -54 9 -30 26 -49 66 -76 30 -21 54 -39 54 -41 0 -8 -61
-34 -79 -34 -20 0 -51 44 -51 72 0 7 -38 52 -85 98 l-85 85 22 17 c38 29 67
23 84 -17z m1581 9 c2 -6 -26 -16 -64 -24 -38 -7 -74 -15 -80 -18 -9 -3 -13 6
-13 27 l0 32 77 -3 c42 -2 78 -8 80 -14z m-198 0 c41 -9 39 -18 -8 -32 -67
-21 -211 -8 -211 18 0 16 157 26 219 14z m-1764 -442 c15 -18 26 -34 24 -36
-2 -2 -125 -70 -274 -151 -148 -81 -540 -300 -870 -485 -680 -382 -1112 -620
-1127 -620 -5 0 -8 3 -6 8 2 4 10 20 18 35 7 15 232 229 499 475 267 246 542
501 611 566 69 66 208 192 310 280 102 89 219 193 260 232 41 39 91 82 110 97
l34 26 192 -198 c106 -108 204 -212 219 -229z m-63 251 c106 -106 174 -181
171 -190 -8 -22 -20 -15 -65 34 -48 54 -87 93 -140 140 -54 49 -170 193 -156
193 7 0 92 -79 190 -177z m813 106 c39 -23 81 -46 95 -52 l25 -11 -27 -4 c-46
-6 -178 67 -178 99 0 15 13 11 85 -32z m1913 -43 c15 -45 11 -52 -17 -36 -12
6 -21 7 -21 2 0 -11 -76 -32 -85 -24 -8 8 -6 58 3 66 4 4 8 12 8 17 1 5 2 11
3 15 0 3 22 4 49 2 45 -3 48 -5 60 -42z m-2428 -21 c22 -30 40 -59 40 -65 0
-21 -24 -9 -62 33 -80 84 -81 87 -43 87 18 0 35 -14 65 -55z m410 34 c15 -26
5 -37 -20 -21 -33 20 -42 13 -22 -15 41 -60 32 -105 -13 -63 -24 23 -58 104
-47 114 3 3 25 6 48 6 34 0 46 -5 54 -21z m1840 -60 c0 -25 -6 -32 -35 -45
-49 -20 -112 -18 -151 7 -19 11 -34 24 -34 28 0 8 144 38 193 40 24 1 27 -3
27 -30z m-1347 -22 c48 -7 88 -16 87 -22 0 -5 -29 -11 -65 -13 l-66 -3 23 -32
c12 -18 46 -59 76 -92 63 -70 98 -133 84 -147 -6 -6 -27 -10 -47 -11 -36 -1
-63 18 -78 56 -8 18 -27 -12 -27 -44 0 -20 -8 -30 -31 -39 -48 -20 -78 -4
-127 70 -23 36 -47 67 -52 68 -20 7 -9 23 25 39 35 17 35 17 80 -15 37 -26 45
-29 45 -14 0 37 -22 92 -60 151 -22 34 -40 64 -40 67 0 3 19 2 43 -1 23 -4 82
-12 130 -18z m-205 -54 l54 -57 -64 -16 c-76 -19 -88 -13 -95 54 -11 96 26
103 105 19z m375 -79 c29 -31 56 -66 60 -78 5 -12 18 -31 29 -43 17 -19 19
-25 8 -38 -7 -8 -25 -15 -40 -15 -34 0 -90 59 -134 140 -27 49 -27 52 -10 71
9 10 21 19 26 19 5 0 33 -25 61 -56z m-681 -45 l-27 -38 -32 32 c-18 17 -33
39 -33 49 0 12 12 24 33 33 30 13 34 12 59 -12 l27 -26 -27 -38z m4715 47 c25
-52 39 -116 26 -116 -19 0 -45 39 -54 82 -5 24 -12 51 -15 61 -11 36 23 16 43
-27z m-4452 -127 c22 -33 46 -69 54 -80 13 -18 11 -19 -22 -19 -39 0 -67 27
-67 65 -1 11 -7 37 -14 58 -21 57 3 46 49 -24z m-120 -36 c25 -32 45 -61 45
-65 0 -4 -16 -12 -36 -17 -64 -18 -110 18 -116 89 -3 33 8 43 54 49 4 1 28
-25 53 -56z m4666 -161 c10 -29 14 -50 10 -47 -11 6 -41 93 -40 114 1 19 2 17
30 -67z m-4246 22 c19 -26 35 -50 35 -55 0 -4 -18 -10 -40 -14 -41 -7 -90 12
-90 35 0 5 -18 22 -40 36 -22 15 -40 31 -40 35 0 5 31 9 70 9 l69 0 36 -46z
m-214 15 c11 -6 29 -31 40 -56 22 -51 15 -65 -31 -61 -19 2 -27 12 -39 50 -13
42 -11 78 4 78 4 0 15 -5 26 -11z m-113 -25 c22 -15 62 -83 62 -104 0 -13 -86
-13 -111 0 -19 11 -69 82 -69 99 0 22 89 26 118 5z m-267 -32 c9 -15 26 -44
38 -64 19 -31 20 -38 8 -38 -17 0 -99 109 -91 122 10 16 29 8 45 -20z m855
-86 c18 -26 41 -57 53 -70 11 -12 21 -25 21 -28 0 -3 -23 -9 -50 -13 -65 -9
-90 7 -115 71 l-18 47 28 24 c15 13 32 22 39 20 6 -2 25 -25 42 -51z m-217 0
c6 -7 20 -39 31 -70 l19 -56 -24 0 c-13 0 -31 3 -40 7 -17 6 -65 95 -65 121 0
17 64 16 79 -2z m4240 -20 c28 -29 61 -116 61 -159 l0 -32 -20 25 c-11 14 -29
57 -41 95 -12 39 -26 76 -31 83 -19 22 8 13 31 -12z m-5216 -33 c13 -21 67
-105 121 -187 110 -169 117 -195 59 -229 -18 -10 -146 -47 -285 -82 -149 -38
-349 -97 -488 -145 -743 -258 -916 -316 -1280 -429 -107 -33 -235 -74 -284
-91 -100 -34 -128 -37 -120 -16 7 18 290 185 458 271 67 33 162 86 211 116
170 104 361 207 910 489 303 156 573 296 600 312 28 15 56 28 62 28 7 0 23
-17 36 -37z m843 20 c15 -15 44 -73 44 -88 0 -10 -50 -24 -65 -18 -16 5 -46
57 -59 101 -7 20 -4 22 28 22 19 0 42 -7 52 -17z m-148 -15 c5 -7 15 -33 22
-57 13 -50 6 -61 -42 -61 -23 0 -32 8 -54 51 -14 28 -23 57 -20 65 7 18 80 19
94 2z m726 -142 c20 -33 36 -63 36 -68 0 -16 -21 -7 -56 25 -30 27 -37 42 -41
82 -5 45 -4 49 10 35 9 -8 32 -42 51 -74z m-132 32 c9 -7 28 -34 42 -60 l26
-46 -30 -7 c-54 -12 -107 19 -131 77 -10 25 -10 31 2 39 21 13 73 11 91 -3z
m-264 -14 c28 -19 76 -114 58 -114 -16 0 -46 33 -80 88 -28 45 -19 55 22 26z
m-97 -30 c7 -8 13 -38 13 -65 1 -44 -1 -49 -21 -49 -36 0 -60 32 -77 103 -6
26 -5 27 33 27 23 0 44 -6 52 -16z m-124 -64 l29 -59 -29 -11 c-40 -14 -72
-13 -85 3 -8 9 -42 110 -42 124 0 2 22 3 49 3 l48 0 30 -60z m701 -72 c37 -48
39 -58 14 -58 -34 0 -62 29 -62 66 0 19 4 34 8 34 4 0 22 -19 40 -42z m-110
20 c7 -7 12 -29 12 -50 l0 -38 -43 0 c-34 0 -49 6 -67 25 -27 29 -22 38 35 59
50 18 49 18 63 4z m-173 -52 c15 -23 12 -76 -4 -76 -3 0 -16 27 -28 60 -21 58
-21 60 -2 50 10 -6 26 -21 34 -34z m-359 -17 c28 -45 24 -56 -21 -64 -25 -5
-32 -2 -42 20 -10 23 -9 30 7 48 11 11 20 24 20 29 0 17 10 7 36 -33z m852
-52 c12 -18 22 -41 22 -51 0 -10 9 -31 20 -46 11 -16 28 -59 36 -97 31 -130
45 -174 59 -180 8 -3 15 -14 15 -24 0 -11 13 -57 29 -103 25 -72 27 -85 14
-90 -30 -12 -54 -6 -62 17 -5 13 -16 29 -25 36 -20 17 -21 67 -1 75 12 4 6 14
-25 43 -48 42 -64 71 -81 139 -7 27 -22 61 -35 76 -12 15 -32 56 -43 90 -12
35 -29 77 -39 93 l-19 30 36 11 c59 19 74 16 99 -19z m-268 4 c16 -31 12 -56
-14 -80 l-23 -22 -27 31 c-33 40 -33 51 2 72 35 23 49 22 62 -1z m-391 -82
c17 -23 20 -34 12 -42 -15 -15 -66 35 -58 57 9 23 20 20 46 -15z m-109 -19 c0
-23 -5 -31 -25 -36 -31 -8 -55 10 -55 42 0 21 5 24 40 24 38 0 40 -2 40 -30z
m560 -80 c6 -10 10 -28 10 -40 0 -17 -4 -20 -22 -15 -34 11 -48 28 -55 68 l-6
37 32 -16 c17 -8 36 -24 41 -34z m101 23 c18 -49 22 -83 10 -83 -14 0 -41 60
-41 90 0 29 19 25 31 -7z m-256 -74 c14 -27 25 -57 25 -68 0 -11 8 -26 19 -33
33 -23 71 -89 96 -170 30 -93 29 -88 10 -88 -40 0 -74 30 -88 78 -8 26 -24 63
-36 82 -11 19 -21 43 -21 53 0 10 -13 49 -30 87 -34 77 -40 123 -15 113 9 -3
27 -27 40 -54z m-361 -26 c7 -31 6 -33 -18 -33 -21 0 -26 5 -26 24 0 14 5 37
11 53 10 26 12 26 19 8 4 -11 11 -35 14 -52z m4705 -25 c20 -58 21 -83 2 -62
-8 9 -31 92 -31 113 0 24 9 8 29 -51z m-3973 -145 c32 -81 61 -151 63 -156 2
-5 -6 -4 -18 2 -43 23 -101 150 -116 255 -13 83 11 49 71 -101z m-146 78 c0
-27 4 -61 10 -75 12 -34 -3 -34 -35 -1 -29 29 -33 79 -8 107 26 29 33 22 33
-31z m-1212 5 c35 -40 141 -256 149 -303 7 -43 -4 -47 -197 -72 -304 -39 -723
-103 -1250 -191 -647 -107 -1470 -241 -1524 -248 -66 -8 -38 19 70 64 54 23
171 61 259 84 240 63 556 154 780 225 416 132 1217 366 1385 405 96 22 195 46
220 54 66 21 75 19 108 -18z m5161 -133 c12 -54 26 -125 32 -158 5 -33 14 -80
18 -105 7 -35 6 -49 -6 -61 -13 -15 -11 -19 17 -39 31 -22 60 -21 60 3 0 24
-30 128 -46 159 -12 24 -18 28 -25 17 -5 -8 -9 -9 -9 -3 0 6 7 17 15 24 21 17
19 63 -5 110 -29 57 -27 104 5 118 35 16 71 15 88 -3 9 -9 18 -43 22 -82 8
-94 22 -147 51 -205 22 -44 24 -54 14 -79 -7 -16 -16 -29 -21 -29 -17 0 -9
-18 25 -64 28 -36 32 -47 22 -55 -10 -8 -22 -8 -40 -1 -15 5 -46 10 -68 10
l-41 0 6 -42 c4 -24 9 -55 13 -69 4 -19 -1 -33 -19 -55 l-26 -29 -20 45 c-26
56 -26 77 -2 89 18 10 17 13 -15 47 -55 61 -65 90 -90 260 -4 23 -2 50 4 60 8
14 5 25 -13 49 -13 17 -30 61 -38 98 -13 66 -13 67 7 67 12 0 28 5 36 10 8 5
18 10 21 10 3 0 15 -44 28 -97z m-3895 -5 c8 -13 18 -42 22 -65 5 -34 4 -43
-8 -43 -33 0 -65 63 -54 106 8 30 21 31 40 2z m1002 -186 c3 -26 11 -53 17
-60 8 -10 5 -14 -11 -19 -27 -7 -27 -11 0 -40 43 -46 70 -191 45 -240 -15 -29
-15 -31 6 -42 12 -7 30 -23 40 -37 18 -24 18 -26 1 -45 -11 -12 -28 -19 -43
-17 -22 3 -29 16 -64 122 -31 94 -37 123 -29 137 9 15 5 24 -24 53 -20 20 -38
36 -40 36 -2 0 -4 -29 -4 -64 0 -58 3 -67 28 -87 17 -14 22 -23 15 -26 -19 -7
-15 -42 13 -108 24 -58 84 -284 99 -372 l7 -43 -136 0 c-112 0 -138 3 -142 15
-9 23 3 60 32 94 l25 31 -24 32 c-36 48 -62 104 -86 185 -12 39 -33 91 -46
115 -19 34 -25 57 -25 109 0 47 -4 70 -15 79 -8 7 -15 25 -15 40 l0 28 42 -12
c38 -12 44 -18 64 -72 14 -35 23 -82 23 -116 1 -62 5 -67 33 -41 19 17 25 68
8 78 -6 4 -8 21 -5 39 5 23 1 38 -14 57 -17 22 -19 32 -11 60 13 45 13 46 -10
52 -23 6 -55 68 -47 90 3 9 25 18 52 22 51 8 75 -4 75 -39 0 -11 7 -34 15 -50
8 -15 15 -35 15 -42 0 -8 7 -14 15 -14 12 0 15 16 15 80 0 80 0 80 33 100 l32
20 17 -20 c9 -12 20 -42 24 -68z m-351 44 c14 -10 20 -30 23 -75 l5 -62 -39 7
c-46 8 -60 18 -80 55 -22 43 -17 55 24 72 46 20 44 20 67 3z m-745 -61 c6 -19
10 -43 8 -52 -3 -16 -7 -14 -31 9 -32 32 -37 78 -8 78 13 0 23 -11 31 -35z
m226 -160 c23 -35 11 -43 -14 -8 -37 53 -62 113 -68 160 -5 46 -3 44 30 -39
19 -48 42 -99 52 -113z m70 150 c12 -33 14 -49 6 -57 -15 -15 -29 -3 -42 38
-24 71 9 88 36 19z m96 28 c16 -18 48 -77 48 -88 0 -12 -75 8 -87 23 -7 9 -13
31 -13 49 0 25 4 33 18 33 11 0 26 -8 34 -17z m858 -154 c20 -40 32 -91 37
-158 l6 -73 -49 37 c-27 21 -50 41 -52 45 -2 5 13 13 32 20 20 6 36 15 36 19
0 11 -31 37 -52 44 -22 8 -23 35 -2 65 17 25 33 25 44 1z m-762 -9 c18 -30 5
-43 -35 -37 -72 12 -89 57 -20 57 32 0 45 -5 55 -20z m1895 11 c14 -6 28 -19
32 -31 9 -29 -2 -70 -19 -70 -21 0 -66 58 -66 86 0 26 13 30 53 15z m-1896
-102 c29 -58 43 -93 39 -97 -3 -2 -22 4 -43 14 -31 16 -39 25 -41 52 -6 64 20
82 45 31z m1040 -62 c7 -8 25 -107 33 -182 4 -44 13 -92 19 -107 12 -31 9 -33
-20 -18 -12 7 -19 21 -19 40 0 16 -10 45 -21 65 -12 19 -19 44 -16 56 3 11 -6
47 -19 81 -13 34 -24 66 -24 71 0 8 58 3 67 -6z m911 -29 c2 -28 -1 -39 -17
-47 -27 -15 -50 -4 -57 28 -3 14 -7 31 -9 38 -6 18 7 24 45 21 33 -3 35 -6 38
-40z m917 9 c7 -18 24 -85 38 -149 26 -130 24 -133 -42 -65 -31 33 -33 38 -26
86 5 35 3 51 -4 51 -7 0 -11 22 -11 55 0 65 22 76 45 22z m-797 -10 c16 -44
16 -45 -13 -39 -34 6 -40 19 -24 48 17 32 23 30 37 -9z m1653 18 c64 -23 79
-58 34 -75 -14 -5 -28 -17 -31 -25 -12 -29 -32 -14 -44 33 -7 26 -14 55 -17
65 -5 21 2 21 58 2z m396 -7 c4 -7 10 -43 14 -79 3 -38 15 -85 27 -108 27 -52
29 -84 5 -78 -10 3 -34 8 -54 11 -46 8 -69 34 -76 86 -5 33 -2 45 16 64 l23
24 -26 40 c-23 36 -24 41 -8 45 35 9 71 7 79 -5z m143 -87 c0 -32 7 -96 16
-141 8 -45 14 -98 12 -118 -3 -36 -4 -36 -15 -12 -27 62 -46 330 -23 330 6 0
10 -26 10 -59z m-5614 11 c39 -33 228 -492 222 -541 -4 -33 -33 -40 -133 -30
-44 4 -156 12 -250 18 -93 6 -222 16 -285 21 -63 5 -214 17 -335 25 -253 19
-1023 93 -1045 101 -8 3 -112 10 -230 15 -118 5 -264 13 -325 18 -60 6 -189
10 -286 10 -137 1 -179 4 -188 15 -19 23 12 37 106 46 116 11 701 82 1033 126
146 19 319 42 385 50 66 8 197 26 290 39 185 26 602 69 813 84 73 5 136 11
139 15 13 12 69 5 89 -12z m1392 -18 c27 -19 30 -64 5 -64 -24 0 -38 10 -52
38 -21 40 6 55 47 26z m771 -6 c21 -34 41 -152 41 -242 0 -69 3 -82 25 -108
25 -29 25 -30 8 -59 -10 -16 -20 -29 -23 -29 -12 0 -31 113 -25 154 5 31 2 56
-13 92 -26 66 -55 191 -47 204 10 15 19 12 34 -12z m1441 -52 c0 -49 -4 -65
-16 -70 -28 -11 -43 -6 -77 24 -39 34 -52 38 -39 13 6 -10 13 -37 17 -61 6
-36 10 -42 23 -36 26 12 79 9 97 -6 13 -11 15 -24 10 -59 -3 -25 -1 -80 4
-121 10 -80 5 -96 -27 -86 -17 6 -19 13 -15 46 l6 39 -69 3 c-67 3 -68 3 -77
35 -8 28 -6 36 18 65 l28 33 -38 5 -39 5 -14 73 c-8 39 -12 78 -9 86 6 15 81
44 145 55 23 4 45 11 49 14 17 17 23 2 23 -57z m912 27 c21 -24 68 -176 68
-219 0 -31 -4 -36 -40 -50 -47 -19 -50 -36 -15 -88 l24 -36 -35 0 c-47 0 -121
19 -134 35 -6 7 -19 45 -29 84 l-19 72 72 36 c99 49 96 46 80 100 -8 25 -14
54 -14 65 0 23 22 23 42 1z m-1188 -9 c10 -27 7 -52 -10 -68 -25 -25 -39 -19
-50 23 -10 36 -9 39 15 49 36 14 38 14 45 -4z m1673 -16 c4 -7 10 -37 13 -65
5 -46 4 -53 -11 -53 -10 0 -21 5 -25 12 -11 18 -23 90 -17 105 6 17 29 17 40
1z m169 -93 c26 -136 22 -145 -68 -138 -69 5 -108 19 -108 40 0 19 13 16 45
-9 l28 -22 -7 34 c-4 19 -10 72 -13 118 l-6 82 54 0 54 0 21 -105z m134 90 c7
-8 13 -38 14 -65 1 -45 -1 -50 -20 -50 -27 0 -34 17 -34 81 0 51 15 64 40 34z
m-3670 -94 c7 -21 10 -56 8 -77 -3 -25 1 -48 10 -62 20 -31 22 -110 2 -122
-45 -29 -100 7 -100 65 0 34 1 35 41 35 33 0 40 3 35 16 -3 9 -8 41 -11 72 -3
32 -8 69 -10 85 -7 40 10 33 25 -12z m455 -56 l35 -50 -27 -22 c-29 -24 -29
-24 5 -42 18 -10 22 -20 22 -57 0 -42 -1 -45 -22 -38 -49 14 -53 21 -69 128
-15 100 -11 142 11 134 5 -2 25 -25 45 -53z m1013 29 c30 -8 -3 -24 -49 -24
-45 0 -49 2 -49 24 0 22 2 23 43 13 23 -5 48 -11 55 -13z m-1617 -116 c17
-113 17 -120 2 -125 -14 -5 -43 85 -43 132 0 18 -9 44 -21 59 l-20 26 33 0 34
0 15 -92z m3854 55 c25 -29 33 -49 14 -37 -6 3 -34 9 -63 13 l-51 7 35 22 c19
12 36 22 38 22 2 0 14 -12 27 -27z m-2862 -8 c4 -8 4 -36 0 -62 -4 -39 -2 -51
14 -66 19 -16 21 -16 38 3 11 12 31 20 51 20 54 0 64 -8 64 -51 l0 -39 -47 0
c-34 0 -53 6 -70 22 l-23 22 -39 -38 -39 -38 -5 99 c-3 54 -8 108 -12 121 -7
20 -4 22 28 22 21 0 37 -6 40 -15z m152 -27 l13 -38 -30 0 c-16 0 -39 -5 -50
-11 -28 -15 -48 10 -48 58 l0 34 51 -3 c49 -3 51 -4 64 -40z m2905 27 c0 -16
-20 -19 -57 -9 -37 10 -26 24 17 24 29 0 40 -4 40 -15z m-2420 -54 c0 -22 4
-51 10 -65 11 -30 -5 -36 -25 -10 -9 14 -13 10 -24 -25 -20 -68 -32 -53 -47
56 -9 72 -3 83 46 83 40 0 40 0 40 -39z m252 -8 c21 -19 23 -65 4 -108 -13
-30 -13 -30 -24 36 -18 98 -16 105 20 72z m1697 -64 c6 -18 11 -47 11 -65 0
-27 -4 -34 -20 -34 -19 0 -26 15 -33 70 -1 14 -6 30 -9 36 -9 14 0 24 23 24
10 0 21 -12 28 -31z m138 -21 c24 -19 12 -52 -22 -58 -23 -4 -30 -11 -29 -27
0 -18 -3 -20 -17 -12 -25 13 -30 24 -44 90 l-12 57 55 -19 c30 -10 61 -24 69
-31z m147 -9 c33 -39 33 -49 -3 -49 -17 0 -33 -5 -37 -12 -5 -7 -13 3 -21 27
-12 34 -11 39 5 51 24 19 27 18 56 -17z m210 15 c3 -9 6 -27 6 -41 0 -24 -2
-25 -37 -19 -38 7 -73 37 -73 62 0 21 96 19 104 -2z m-9846 -183 c62 -32 232
-216 362 -391 68 -91 167 -217 220 -280 53 -63 170 -209 260 -325 91 -115 217
-268 281 -340 149 -167 381 -392 487 -475 46 -36 103 -81 127 -100 52 -41 69
-51 332 -175 283 -133 399 -176 587 -220 203 -46 862 -68 1106 -36 50 7 70 6
87 -5 45 -28 160 -13 267 36 30 13 84 26 140 31 50 5 114 13 141 18 176 33
267 -11 180 -88 -45 -40 -81 -48 -260 -61 -82 -6 -211 -15 -285 -21 -170 -13
-1056 -7 -1120 9 -46 11 -197 39 -355 67 -192 34 -318 79 -514 182 -135 71
-366 186 -391 195 -8 3 -81 64 -162 134 -80 71 -172 151 -203 178 -31 26 -68
66 -82 87 -14 21 -67 72 -118 114 -51 41 -125 111 -165 157 -39 46 -108 125
-152 176 -123 141 -160 191 -296 397 -246 373 -374 523 -550 646 -38 26 -82
81 -82 102 0 16 121 7 158 -12z m6705 -85 c55 -23 87 -69 87 -128 0 -101 -78
-180 -180 -181 -127 -2 -215 152 -143 252 45 61 160 89 236 57z m494 -47 c160
-60 76 -289 -107 -289 -43 0 -56 5 -86 33 -29 26 -37 42 -41 79 -3 25 0 62 7
82 25 76 145 126 227 95z m413 -114 c0 -12 40 -14 251 -17 l251 -3 23 -27 c29
-33 41 -94 23 -115 -11 -14 -35 -15 -168 -10 -137 5 -457 39 -501 53 -22 6
-43 58 -35 87 7 31 39 45 104 46 39 1 52 -3 52 -14z m940 -10 c35 -18 70 -69
70 -103 0 -31 -22 -71 -59 -106 -24 -23 -42 -30 -86 -34 -121 -10 -174 52
-149 177 7 35 46 78 77 85 37 8 114 -2 147 -19z m532 15 c83 -23 122 -85 106
-169 -15 -83 -94 -150 -176 -151 -65 0 -147 62 -167 128 -4 13 -4 44 0 68 14
96 126 154 237 124z m468 -205 c0 -101 -1 -106 -28 -136 l-28 -31 -27 32 c-25
29 -27 38 -27 129 0 124 21 155 83 124 27 -13 27 -14 27 -118z m-9285 -70 c49
-60 139 -186 200 -280 137 -209 359 -489 520 -654 121 -124 390 -358 559 -484
81 -60 237 -147 264 -147 6 0 66 -37 134 -83 222 -148 334 -189 658 -242 52
-8 144 -25 205 -37 89 -19 111 -27 113 -42 2 -10 0 -16 -5 -13 -17 11 -388 49
-543 57 -145 7 -163 10 -285 49 -71 23 -173 51 -225 62 -112 23 -146 33 -345
106 -290 105 -419 184 -671 408 -157 140 -288 276 -375 390 -73 94 -383 613
-411 687 l-26 67 51 38 c80 60 92 83 90 165 -1 38 0 68 1 66 2 -1 43 -52 91
-113z m5575 -1725 c0 -5 -10 -12 -22 -14 -375 -74 -560 -107 -565 -102 -11 11
32 56 60 65 18 5 102 12 187 15 108 3 178 11 230 24 88 23 110 26 110 12z
m-630 -80 c0 -6 -30 -9 -72 -9 -59 1 -66 3 -38 9 53 11 110 11 110 0z m469
-24 c-2 -3 -83 -21 -179 -41 -187 -39 -422 -56 -505 -38 -34 8 -14 12 140 27
99 10 248 26 330 36 157 18 221 23 214 16z"/>
<path d="M7321 8915 c2 -5 37 -59 77 -118 49 -74 72 -102 72 -87 0 39 -41 106
-98 162 -30 29 -53 49 -51 43z"/>
<path d="M7104 8727 c3 -15 25 -70 49 -123 36 -83 42 -91 45 -65 3 30 3 31 29
14 l25 -17 -20 40 c-11 21 -46 71 -78 109 -44 54 -56 64 -50 42z"/>
<path d="M7290 8696 c0 -5 13 -50 29 -100 16 -50 31 -104 35 -119 7 -32 4 -31
-50 10 -17 13 -34 23 -38 23 -4 0 28 -45 70 -100 97 -126 111 -131 75 -28 -10
29 -24 82 -31 117 -6 36 -24 90 -40 120 -34 65 -50 90 -50 77z"/>
<path d="M4176 8618 c-3 -7 -7 -42 -10 -78 -4 -36 -13 -90 -21 -120 -14 -50
-24 -101 -55 -281 -6 -32 -6 -67 -2 -79 6 -17 14 5 35 96 22 93 77 429 77 467
0 12 -20 8 -24 -5z"/>
<path d="M7537 8494 c-15 -15 -6 -54 17 -79 13 -14 29 -39 36 -55 14 -33 22
-37 39 -17 16 20 -74 169 -92 151z"/>
<path d="M6985 8343 c9 -77 11 -80 45 -75 17 2 30 6 30 9 0 8 -72 123 -78 123
-2 0 -1 -25 3 -57z"/>
<path d="M7623 8032 c-16 -10 63 -142 84 -142 19 0 15 12 -27 87 -37 66 -38
67 -57 55z"/>
<path d="M4091 7913 l1 -78 15 54 c14 55 11 101 -7 101 -6 0 -10 -33 -9 -77z"/>
<path d="M6718 7694 c-26 -65 -26 -66 -4 -45 l22 21 21 -22 c32 -36 43 -63 43
-111 0 -40 2 -45 19 -40 14 4 28 -6 50 -38 36 -49 38 -43 11 44 -14 45 -35 83
-65 118 -43 50 -71 112 -59 131 3 4 2 8 -3 8 -4 0 -20 -30 -35 -66z"/>
<path d="M4581 7663 c0 -5 8 -48 18 -97 14 -71 19 -85 29 -74 16 20 -14 178
-34 178 -8 0 -14 -3 -13 -7z"/>
<path d="M7601 7650 c-1 -8 -4 -26 -7 -40 -5 -19 -4 -22 5 -14 7 6 11 24 8 40
-2 16 -5 22 -6 14z"/>
<path d="M6533 7629 c-7 -7 -4 -17 13 -34 29 -29 30 -60 4 -103 -23 -37 -24
-42 -10 -42 6 0 16 11 22 25 13 30 25 31 58 5 14 -11 28 -20 33 -20 8 0 10
114 1 123 -4 3 -17 -1 -30 -9 -22 -15 -24 -14 -44 18 -11 18 -20 36 -20 41 0
10 -14 9 -27 -4z"/>
<path d="M4706 7555 c-17 -32 -18 -38 -4 -77 29 -82 46 -143 59 -205 14 -66
21 -71 37 -24 8 23 7 37 -7 64 -11 21 -23 85 -31 156 -8 72 -18 121 -25 121
-6 0 -19 -16 -29 -35z"/>
<path d="M6220 7405 c0 -15 104 -137 123 -144 9 -3 9 -1 1 10 -6 8 -35 44 -63
82 -29 37 -55 67 -57 67 -2 0 -4 -7 -4 -15z"/>
<path d="M6541 7303 c18 -30 53 -82 75 -112 2 -2 10 3 18 11 12 13 7 22 -41
76 -61 70 -86 81 -52 25z"/>
<path d="M5247 7307 c4 -7 31 -46 59 -87 28 -41 84 -131 123 -200 84 -144 89
-150 101 -131 6 10 -3 31 -31 69 -21 31 -37 57 -35 59 2 2 21 -3 42 -12 l38
-16 -20 23 c-51 58 -221 256 -240 281 -22 27 -53 39 -37 14z"/>
<path d="M7550 7300 c-6 -11 -13 -44 -16 -73 l-5 -52 19 55 c11 30 23 63 27
73 10 24 -12 22 -25 -3z"/>
<path d="M6117 7229 c13 -29 55 -97 92 -153 94 -142 121 -191 121 -221 0 -17
11 -35 30 -52 25 -21 30 -32 30 -70 0 -42 1 -44 26 -41 35 4 53 31 38 56 -6 9
-30 31 -52 49 l-42 32 56 31 c30 18 53 34 51 36 -2 3 -28 -5 -57 -16 -29 -11
-53 -19 -55 -18 -1 2 -10 26 -19 53 -10 28 -40 87 -67 132 -27 45 -49 92 -49
105 0 13 -4 28 -8 33 -12 18 -104 95 -113 95 -4 0 4 -23 18 -51z"/>
<path d="M5735 7110 c-3 -5 18 -39 47 -76 50 -62 53 -65 56 -39 3 24 7 26 35
21 35 -7 24 1 -46 28 -22 9 -45 28 -55 46 -18 31 -27 36 -37 20z"/>
<path d="M5240 7053 c0 -7 42 -77 94 -155 111 -170 227 -360 222 -366 -6 -5
-61 25 -123 66 -46 31 -73 35 -73 13 0 -5 21 -16 46 -26 25 -9 65 -32 90 -51
24 -19 50 -34 58 -34 7 0 29 -16 49 -35 33 -32 41 -35 97 -35 68 0 80 14 20
24 -66 10 -117 67 -231 259 -56 95 -115 192 -130 217 -31 50 -119 141 -119
123z"/>
<path d="M5000 7020 c-13 -25 -17 -19 99 -160 52 -63 135 -169 183 -234 95
-128 137 -166 159 -140 9 12 0 25 -55 77 -60 57 -83 97 -55 97 7 0 -26 37 -73
83 -80 77 -198 224 -221 275 -13 27 -23 28 -37 2z"/>
<path d="M5660 6930 c0 -4 23 -21 50 -38 44 -27 50 -29 50 -13 0 10 -7 24 -15
31 -18 15 -85 31 -85 20z"/>
<path d="M5570 6837 c0 -20 35 -78 64 -106 34 -33 36 -34 36 -12 0 19 4 22 23
17 12 -3 47 -10 77 -17 30 -6 63 -16 73 -21 12 -6 17 -5 17 6 0 19 -49 76 -50
57 0 -28 -161 15 -210 55 -16 14 -30 24 -30 21z"/>
<path d="M5950 6747 c0 -8 7 -20 15 -27 8 -7 33 -46 56 -87 23 -41 43 -73 45
-71 2 2 -5 33 -16 69 -11 35 -20 65 -20 66 0 1 18 8 40 14 22 7 40 16 40 20 0
4 -28 9 -62 11 -35 2 -71 8 -80 12 -13 6 -18 4 -18 -7z"/>
<path d="M6200 6510 c-8 -5 -36 -10 -62 -10 -27 0 -48 -4 -48 -8 0 -14 54 -84
90 -117 l32 -30 -21 42 c-31 63 -28 80 19 99 22 9 40 20 40 25 0 12 -31 11
-50 -1z"/>
<path d="M5265 6480 c8 -14 161 -120 173 -120 5 0 12 6 15 14 4 9 -15 25 -56
47 -34 17 -74 40 -89 51 -28 19 -53 24 -43 8z"/>
<path d="M5471 6376 c-9 -11 -6 -17 15 -31 14 -9 44 -33 66 -53 26 -23 36 -29
27 -15 -7 12 -10 25 -7 28 3 4 53 -5 111 -19 108 -27 147 -30 182 -17 16 6 12
9 -20 15 -22 4 -58 18 -81 30 l-40 22 4 -29 5 -29 -54 31 c-42 23 -180 81
-194 81 -1 0 -8 -6 -14 -14z"/>
<path d="M6961 7295 c59 -82 94 -99 66 -32 -18 42 -54 77 -80 77 -16 0 -14 -6
14 -45z"/>
<path d="M6538 6304 c-46 -23 -62 -44 -35 -44 6 0 37 16 67 35 65 41 41 48
-32 9z"/>
<path d="M6911 3175 c-6 -24 -11 -56 -11 -70 0 -38 112 -315 127 -315 18 0 16
42 -6 105 -30 84 -34 128 -17 168 l15 36 -28 -5 c-27 -6 -28 -4 -40 55 -7 33
-16 63 -20 66 -5 2 -14 -15 -20 -40z"/>
<path d="M8658 2937 c6 -7 12 -29 14 -50 l3 -37 37 50 37 50 -51 0 c-39 0 -48
-3 -40 -13z"/>
<path d="M8290 8995 c0 -18 87 -175 97 -175 16 0 16 0 -3 46 -26 65 -94 158
-94 129z"/>
<path d="M8545 8625 c60 -115 80 -143 91 -132 9 9 -93 191 -124 219 -19 18
-11 -2 33 -87z"/>
<path d="M2455 8630 c21 -24 112 -70 137 -70 10 0 18 5 18 10 0 6 -5 10 -11
10 -6 0 -45 16 -86 35 -59 27 -72 31 -58 15z"/>
<path d="M8754 8301 c43 -84 75 -155 73 -158 -3 -2 -23 17 -45 44 -23 26 -55
57 -73 67 -32 19 -31 19 11 -35 87 -110 89 -112 106 -99 12 11 19 9 39 -10
l25 -24 -26 65 c-37 89 -71 155 -114 219 -73 108 -71 83 4 -69z"/>
<path d="M9052 7800 c56 -77 105 -140 110 -140 11 0 -44 109 -88 176 -30 44
-96 104 -117 104 -3 0 39 -63 95 -140z"/>
<path d="M2380 7775 c0 -8 132 -105 143 -105 14 0 -30 47 -77 81 -35 26 -66
37 -66 24z"/>
<path d="M8840 7726 c0 -7 121 -226 126 -226 5 0 -62 156 -83 192 -16 28 -43
49 -43 34z"/>
<path d="M9177 7625 c-4 -8 -2 -17 3 -20 6 -4 48 -81 94 -173 46 -92 102 -203
125 -247 l41 -79 0 47 c0 54 -63 191 -143 309 -25 37 -50 82 -56 100 -14 40
-39 78 -50 78 -5 0 -11 -7 -14 -15z"/>
<path d="M2441 7494 c20 -25 250 -174 267 -174 18 0 -37 43 -165 128 -92 62
-129 78 -102 46z"/>
<path d="M9016 7408 c4 -13 19 -50 34 -83 14 -33 37 -86 50 -118 12 -32 25
-56 27 -53 8 8 -70 251 -86 264 -23 19 -33 14 -25 -10z"/>
<path d="M2446 7299 c16 -27 174 -112 174 -94 0 2 -34 26 -76 54 -71 48 -114
65 -98 40z"/>
<path d="M777 7253 c-15 -14 -5 -21 46 -27 28 -3 69 -9 90 -12 35 -6 37 -5 37
20 0 29 -3 31 -29 14 -15 -9 -28 -9 -59 0 -44 13 -75 15 -85 5z"/>
<path d="M2915 7222 c10 -11 378 -280 498 -366 37 -26 67 -44 67 -40 0 14
-105 119 -145 145 -23 15 -95 66 -161 114 -112 82 -179 122 -242 146 -17 6
-23 7 -17 1z"/>
<path d="M8400 7209 c0 -11 18 -50 41 -87 l41 -67 -5 41 c-7 56 -42 134 -61
134 -9 0 -16 -9 -16 -21z"/>
<path d="M8510 7219 c0 -19 46 -83 88 -123 l31 -29 -11 36 c-12 39 -108 142
-108 116z"/>
<path d="M1090 7184 c0 -31 21 -54 63 -64 89 -23 84 -23 57 0 -47 40 -103 80
-112 80 -4 0 -8 -7 -8 -16z"/>
<path d="M2698 7145 c3 -16 24 -32 75 -56 40 -19 115 -71 171 -117 56 -46 127
-102 158 -125 31 -23 62 -54 69 -69 13 -32 52 -38 84 -14 18 13 18 14 -5 21
-13 4 -44 26 -69 50 -25 23 -89 74 -141 113 -52 40 -108 83 -125 96 -16 13
-73 46 -126 73 -87 45 -95 48 -91 28z"/>
<path d="M9150 7095 c22 -58 95 -185 107 -185 18 0 -53 150 -88 185 l-30 30
11 -30z"/>
<path d="M8476 7015 c-16 -24 -16 -25 9 -25 18 0 29 -9 44 -37 l20 -38 -6 40
c-6 42 -27 85 -42 85 -5 0 -16 -11 -25 -25z"/>
<path d="M9470 7039 c0 -2 11 -40 25 -84 14 -44 25 -96 25 -115 0 -61 21 -113
75 -190 61 -86 255 -469 255 -502 1 -37 42 -129 86 -188 42 -59 58 -102 98
-274 14 -59 27 -111 30 -113 13 -14 34 10 46 51 12 45 11 50 -24 134 -20 49
-45 117 -55 153 -11 35 -44 125 -75 199 -30 74 -67 178 -82 230 -30 107 -30
108 -45 93 -7 -7 -3 -27 12 -64 27 -68 90 -262 85 -266 -10 -10 -97 148 -126
231 -10 28 -28 76 -39 106 -11 30 -20 74 -21 97 0 33 -8 51 -40 92 -27 34 -40
60 -40 81 0 46 13 36 44 -35 15 -36 34 -65 42 -65 18 0 19 -3 -14 71 -16 35
-39 94 -52 132 -13 37 -29 67 -36 67 -9 0 -8 -9 2 -37 14 -40 18 -93 8 -93
-11 0 -48 53 -67 94 -10 23 -24 47 -31 56 -7 8 -21 36 -31 62 -9 26 -26 55
-36 64 -11 9 -19 15 -19 13z"/>
<path d="M2483 6841 l-21 -34 21 -30 22 -29 3 31 c2 17 2 46 0 64 l-3 32 -22
-34z"/>
<path d="M8624 6740 c3 -17 15 -53 27 -80 17 -39 24 -48 35 -39 10 8 8 19 -12
56 -13 25 -24 57 -24 69 0 16 -6 24 -16 24 -13 0 -15 -7 -10 -30z"/>
<path d="M9092 6683 c17 -32 45 -80 62 -106 25 -39 32 -44 34 -27 7 44 -80
190 -114 190 -10 0 -5 -16 18 -57z"/>
<path d="M9316 6718 c11 -38 161 -333 266 -526 85 -155 98 -185 87 -198 -11
-13 -9 -19 11 -34 40 -30 80 -52 80 -43 0 5 -23 49 -51 98 -54 94 -79 153 -79
189 0 11 -16 36 -34 55 -44 43 -94 143 -104 207 -6 37 -22 69 -57 119 -31 43
-45 70 -37 73 7 2 12 21 12 45 l-1 42 -20 -38 c-23 -44 -40 -44 -54 1 -5 18
-13 32 -18 32 -4 0 -5 -10 -1 -22z"/>
<path d="M3644 6658 c50 -69 57 -84 52 -116 -4 -29 -3 -31 14 -22 10 5 28 10
40 10 20 0 20 1 6 22 -9 12 -16 30 -16 39 0 10 -23 33 -50 53 -58 42 -69 45
-46 14z"/>
<path d="M8354 6566 c-9 -24 97 -218 151 -276 24 -26 170 -263 224 -365 38
-71 38 -88 4 -116 l-28 -22 25 5 c14 3 32 8 40 12 11 4 26 -13 54 -60 34 -57
37 -68 27 -90 -15 -34 -16 -32 26 -51 32 -15 43 -29 70 -93 17 -41 48 -131 68
-200 52 -176 73 -234 108 -286 16 -25 31 -43 33 -42 3 4 -26 101 -41 141 -6
15 -1 17 38 17 36 0 49 5 61 22 15 21 16 21 35 3 36 -32 63 -100 60 -152 -3
-44 -1 -49 24 -61 17 -8 27 -21 27 -35 1 -12 7 -33 15 -47 l14 -25 1 32 c0 33
-21 105 -64 215 l-26 68 35 22 c19 13 35 26 35 31 0 14 -113 8 -130 -8 -23
-21 -117 -37 -140 -25 -19 10 -24 26 -81 225 -12 44 -33 104 -45 133 -23 53
-23 53 -4 75 28 29 25 37 -13 37 -48 0 -71 22 -96 89 -37 102 -116 244 -232
417 -60 91 -114 175 -118 187 -5 12 -22 38 -37 58 -16 20 -44 68 -63 107 -35
72 -47 84 -57 58z"/>
<path d="M8141 6556 c-9 -10 -8 -16 5 -27 20 -16 52 -79 74 -144 15 -44 20
-50 48 -53 23 -2 33 -10 41 -33 14 -41 171 -289 182 -289 6 0 5 8 -1 18 -6 9
-28 44 -50 77 l-38 60 24 26 c27 29 30 39 11 39 -22 0 -97 59 -109 85 -13 30
3 75 27 75 8 0 15 7 15 15 0 14 -3 14 -30 0 -47 -24 -76 -20 -90 15 -7 17 -26
49 -41 70 -16 22 -29 44 -29 49 0 5 -6 14 -14 20 -10 8 -16 8 -25 -3z"/>
<path d="M9076 6459 c-5 -27 -1 -37 29 -70 19 -22 35 -44 35 -49 0 -24 211
-349 272 -420 35 -39 198 -353 198 -380 0 -5 -12 -18 -27 -27 l-27 -18 39 -5
39 -5 38 -105 c72 -195 120 -300 135 -300 10 0 13 6 8 18 -38 97 -125 379
-131 422 -8 64 -22 96 -65 145 -30 33 -31 37 -15 54 16 17 14 21 -18 69 -19
28 -42 72 -52 97 l-17 47 28 22 29 23 -45 5 c-24 3 -52 9 -62 13 -17 7 -17 5
2 -26 12 -19 21 -40 21 -48 0 -8 14 -36 31 -64 22 -35 27 -53 20 -60 -15 -15
-17 -12 -116 158 -89 153 -307 499 -330 523 -10 11 -13 7 -19 -19z"/>
<path d="M8668 6313 l-26 -17 50 -45 c28 -25 55 -47 59 -49 5 -2 9 21 9 52 0
44 -4 57 -19 66 -27 14 -41 12 -73 -7z"/>
<path d="M8160 6275 c0 -3 36 -76 79 -163 l79 -159 -26 -10 c-27 -11 -27 -11
9 -12 55 -2 82 -31 151 -161 58 -110 78 -138 78 -109 0 14 -49 102 -183 328
-60 102 -121 209 -135 238 -14 29 -32 53 -39 53 -7 0 -13 -2 -13 -5z"/>
<path d="M7947 6243 c-18 -17 0 -58 73 -168 49 -73 80 -130 80 -146 0 -26 14
-43 58 -67 20 -11 22 -10 22 10 0 34 -34 95 -109 195 -37 50 -77 112 -87 137
-19 46 -25 52 -37 39z"/>
<path d="M8785 6138 c16 -51 39 -90 66 -109 30 -21 41 -11 13 12 -9 7 -30 37
-46 66 -32 56 -44 67 -33 31z"/>
<path d="M8570 5904 c0 -3 9 -19 21 -35 15 -21 18 -37 14 -61 -5 -29 -1 -38
41 -81 26 -26 49 -46 50 -44 2 2 -2 18 -8 35 -10 26 -10 37 0 52 11 18 8 23
-29 45 -22 15 -49 42 -61 61 -19 32 -28 41 -28 28z"/>
<path d="M9781 5850 c-12 -7 -9 -20 17 -78 37 -79 73 -183 91 -259 7 -29 17
-53 21 -53 29 0 12 74 -62 270 -50 131 -50 131 -67 120z"/>
<path d="M7891 5675 c0 -34 7 -48 49 -93 28 -29 50 -51 50 -47 0 14 -60 132
-79 155 l-21 25 1 -40z"/>
<path d="M8290 5667 c0 -4 11 -30 25 -57 16 -31 23 -59 20 -73 -5 -18 -1 -26
17 -34 17 -7 34 -38 62 -106 21 -53 50 -106 63 -119 40 -37 83 -119 83 -159 0
-24 7 -42 21 -55 11 -10 50 -78 86 -151 35 -73 66 -133 67 -133 7 0 -13 100
-27 132 -8 20 -50 95 -91 167 -70 120 -76 134 -76 186 0 54 -3 61 -63 144 -35
47 -87 122 -117 166 -56 86 -70 103 -70 92z"/>
<path d="M9080 5648 c0 -15 5 -39 11 -55 12 -34 51 -93 61 -93 7 0 -41 122
-61 157 -9 16 -10 15 -11 -9z"/>
<path d="M8710 5637 c0 -4 27 -81 61 -170 64 -170 219 -500 226 -480 2 6 -3
28 -11 48 -21 49 -20 82 2 94 15 8 12 12 -21 26 -31 13 -44 27 -68 78 -20 42
-29 75 -28 102 2 33 -3 45 -28 70 -22 22 -36 51 -49 103 -14 54 -27 80 -51
104 -18 18 -33 29 -33 25z"/>
<path d="M8528 5574 c-20 -13 -39 -28 -43 -34 -9 -15 21 -23 43 -11 28 15 51
4 58 -28 17 -76 67 -189 124 -280 22 -36 40 -69 40 -75 0 -6 -19 -19 -41 -28
-46 -19 -46 -43 0 -27 46 16 78 -3 106 -63 14 -29 25 -59 25 -67 0 -8 13 -44
29 -80 38 -87 143 -417 139 -439 -1 -10 9 -31 24 -46 24 -27 42 -71 68 -173 6
-24 17 -43 24 -43 24 0 -37 249 -90 364 -50 110 -84 205 -84 239 0 12 -7 31
-15 41 -8 11 -15 31 -15 46 0 21 -40 95 -152 278 -12 19 -49 115 -84 214 -46
134 -70 189 -91 209 l-28 27 -37 -24z"/>
<path d="M10090 5541 c0 -10 15 -51 34 -92 54 -118 54 -119 9 -120 -34 0 -36
-2 -19 -12 63 -39 82 -71 126 -209 27 -85 49 -138 57 -138 14 0 14 3 -13 110
-7 31 -17 91 -22 135 -7 56 -23 114 -56 195 -25 63 -46 120 -46 127 0 7 -5 13
-11 13 -7 0 -9 -10 -5 -25 9 -35 -9 -31 -24 5 -14 34 -30 40 -30 11z"/>
<path d="M9141 5453 c0 -5 25 -57 54 -118 54 -108 70 -101 19 9 -13 28 -24 66
-24 84 0 27 -3 32 -25 32 -14 0 -25 -3 -24 -7z"/>
<path d="M9931 5440 c-1 -8 3 -31 8 -50 24 -93 24 -90 -9 -90 -41 0 -40 -26 3
-33 17 -3 42 -8 55 -12 19 -6 22 -4 22 21 -1 30 -79 191 -79 164z"/>
<path d="M8118 5312 c10 -21 24 -49 33 -62 14 -22 16 -22 47 -6 33 17 45 33
16 22 -24 -9 -54 12 -70 50 -8 19 -21 34 -29 34 -12 0 -11 -6 3 -38z"/>
<path d="M7644 5265 c21 -100 18 -123 -12 -93 -6 6 -15 9 -19 5 -10 -11 6 -23
60 -46 l47 -20 0 30 c0 34 -16 67 -55 119 l-27 35 6 -30z"/>
<path d="M6960 5238 c0 -2 9 -32 20 -68 24 -78 24 -86 5 -70 -24 20 -29 4 -8
-27 11 -15 35 -56 54 -90 18 -35 40 -63 47 -63 8 0 12 6 10 13 -3 6 -27 78
-54 159 -28 84 -54 147 -61 148 -7 0 -13 -1 -13 -2z"/>
<path d="M7096 5183 c8 -37 71 -173 80 -173 19 0 -7 91 -41 143 -21 31 -40 57
-42 57 -2 0 -1 -12 3 -27z"/>
<path d="M10013 5177 c4 -10 12 -48 19 -84 8 -45 20 -75 36 -92 14 -14 22 -19
19 -11 -3 8 -18 53 -33 100 -15 47 -31 90 -37 95 -7 7 -8 4 -4 -8z"/>
<path d="M6348 5023 c24 -33 92 -100 92 -91 0 10 -41 80 -58 101 -8 9 -24 17
-34 17 -19 0 -19 -1 0 -27z"/>
<path d="M8139 4978 c20 -40 37 -75 39 -77 1 -3 7 0 13 6 8 8 1 30 -26 77 -51
92 -72 86 -26 -6z"/>
<path d="M9011 4972 c-15 -28 -14 -57 3 -71 7 -6 26 -39 41 -72 26 -58 28 -90
11 -130 -8 -18 58 -109 79 -109 20 0 20 1 -24 114 -22 56 -51 141 -66 190 -14
50 -27 92 -29 94 -3 2 -9 -5 -15 -16z"/>
<path d="M7755 4960 c-3 -5 1 -20 9 -32 8 -13 20 -44 26 -69 13 -52 69 -128
70 -95 0 10 -12 45 -26 78 -22 47 -25 63 -17 81 9 19 7 26 -8 35 -23 15 -46
15 -54 2z"/>
<path d="M9173 4924 c3 -27 20 -82 36 -123 17 -41 31 -80 31 -87 0 -9 11 -14
30 -14 17 0 30 2 30 4 0 2 -22 51 -50 110 -27 58 -49 116 -47 128 1 15 -4 23
-17 26 -17 4 -18 -1 -13 -44z"/>
<path d="M9900 4944 c0 -5 9 -43 21 -84 33 -121 101 -217 86 -122 -8 50 -107
241 -107 206z"/>
<path d="M5890 4877 c0 -63 1 -66 30 -81 29 -14 30 -14 36 9 7 26 -24 103 -49
124 -16 12 -17 8 -17 -52z"/>
<path d="M6233 4929 c-9 -9 -1 -25 29 -63 23 -28 53 -77 68 -108 22 -46 30
-55 39 -44 8 10 7 19 -8 37 -10 13 -37 58 -60 99 -51 90 -54 93 -68 79z"/>
<path d="M7238 4913 c5 -10 8 -23 5 -29 -4 -11 58 -44 82 -44 34 0 -4 56 -51
76 -43 18 -47 18 -36 -3z"/>
<path d="M10296 4895 c-8 -43 -5 -58 37 -152 18 -40 38 -72 46 -73 16 0 13 11
-31 158 -17 56 -34 102 -38 102 -4 0 -11 -16 -14 -35z"/>
<path d="M6090 4816 c45 -67 63 -71 40 -12 -9 24 -8 26 20 26 17 0 30 4 30 9
0 12 -36 21 -83 21 l-38 0 31 -44z"/>
<path d="M6470 4852 c0 -12 58 -103 83 -129 l20 -23 -21 0 c-32 0 -27 -14 13
-33 44 -21 42 -21 55 3 10 18 3 29 -46 83 -31 34 -61 72 -67 85 -10 21 -37 31
-37 14z"/>
<path d="M9390 4799 c0 -29 30 -157 55 -232 14 -43 25 -83 25 -90 0 -7 10 -28
22 -47 l21 -35 18 40 c16 36 16 41 2 46 -8 3 -33 51 -54 107 -32 83 -37 107
-28 123 11 22 7 30 -38 78 -15 15 -23 19 -23 10z"/>
<path d="M7150 4796 c0 -14 113 -236 120 -236 24 0 5 49 -42 111 -16 20 -28
41 -28 47 0 6 17 23 37 37 l38 25 -37 0 c-20 0 -48 4 -62 10 -14 5 -26 8 -26
6z"/>
<path d="M5980 4768 c0 -2 9 -27 20 -56 25 -65 25 -72 0 -72 -30 0 -24 -27 8
-34 15 -3 37 -8 50 -12 20 -6 22 -3 22 29 0 26 -10 48 -40 85 -34 44 -60 70
-60 60z"/>
<path d="M7847 4714 c-9 -13 -17 -33 -17 -46 l0 -23 19 24 19 24 23 -51 c13
-29 30 -52 36 -52 21 0 15 17 -25 84 l-38 63 -17 -23z"/>
<path d="M8244 4714 c3 -8 30 -86 60 -172 69 -199 66 -192 82 -192 19 0 18 9
-15 92 -15 40 -38 105 -51 143 -28 86 -57 145 -71 145 -6 0 -8 -7 -5 -16z"/>
<path d="M8627 4723 c-3 -5 17 -75 44 -156 27 -81 49 -154 49 -162 0 -16 16
-20 24 -6 3 5 -5 35 -18 68 -14 32 -36 101 -51 153 -27 96 -38 119 -48 103z"/>
<path d="M8760 4700 c0 -33 43 -180 52 -180 12 0 9 88 -4 131 -6 21 -19 46
-30 55 -17 16 -18 16 -18 -6z"/>
<path d="M6170 4691 c0 -6 5 -13 10 -16 6 -3 10 -16 10 -27 0 -12 12 -46 28
-77 l27 -56 3 54 c4 74 -2 93 -37 114 -33 19 -41 21 -41 8z"/>
<path d="M10011 4664 c-1 -28 35 -170 49 -192 9 -13 10 -3 7 43 -5 59 -54 192
-56 149z"/>
<path d="M9306 4595 c4 -27 7 -71 8 -97 1 -49 3 -52 30 -42 25 10 19 63 -14
129 l-30 60 6 -50z"/>
<path d="M7155 4568 c22 -71 71 -168 87 -168 13 0 15 5 9 28 -5 16 -16 43 -26
61 -11 23 -15 44 -10 67 6 34 5 34 -30 34 -33 0 -36 -2 -30 -22z"/>
<path d="M10373 4553 c10 -63 74 -257 86 -261 13 -4 15 74 2 82 -5 3 -16 47
-26 98 -19 98 -28 118 -53 118 -11 0 -13 -8 -9 -37z"/>
<path d="M8130 4562 c0 -27 36 -123 43 -115 13 12 7 54 -13 93 -22 44 -30 49
-30 22z"/>
<path d="M10205 4538 c23 -152 27 -168 42 -168 13 0 14 10 9 63 -7 59 -37 147
-51 147 -4 0 -4 -19 0 -42z"/>
<path d="M8450 4520 c0 -6 12 -34 26 -62 19 -38 24 -59 19 -84 -6 -33 -5 -34
30 -34 19 0 35 2 35 4 0 2 -11 28 -25 58 -31 67 -31 76 3 80 26 3 26 4 -15 26
-45 24 -73 28 -73 12z"/>
<path d="M7977 4471 c3 -14 14 -50 24 -78 l18 -53 -25 0 c-22 0 -25 -4 -22
-32 4 -40 20 -46 38 -13 7 14 18 24 24 22 6 -2 29 -68 52 -148 30 -104 46
-145 58 -147 25 -5 20 27 -17 109 -19 41 -44 106 -57 144 -13 39 -31 81 -40
95 -28 42 -30 58 -10 82 l18 24 -34 10 c-33 11 -33 10 -27 -15z"/>
<path d="M9196 4443 c14 -70 74 -200 74 -163 0 41 -23 148 -36 168 -21 32 -46
29 -38 -5z"/>
<path d="M8870 4406 c0 -8 14 -45 31 -83 17 -37 36 -90 44 -118 14 -57 45
-125 56 -125 7 0 19 35 19 58 0 7 -12 25 -27 40 -15 15 -28 34 -29 42 -22 142
-43 200 -74 200 -11 0 -20 -6 -20 -14z"/>
<path d="M10095 4360 c9 -66 21 -100 35 -100 13 0 13 -1 -7 73 -22 83 -37 98
-28 27z"/>
<path d="M8211 4314 c11 -38 34 -120 52 -182 27 -99 33 -111 44 -96 15 20 18
94 4 94 -13 0 -41 87 -41 127 0 28 5 36 31 47 l31 13 -48 12 c-27 7 -59 22
-71 33 l-22 21 20 -69z"/>
<path d="M9407 4280 c17 -109 50 -210 69 -210 8 0 14 7 14 15 0 30 -30 129
-45 145 -22 25 -18 65 10 98 14 17 25 31 25 33 0 2 -19 4 -43 4 l-43 0 13 -85z"/>
<path d="M7370 4336 c0 -15 41 -96 49 -96 12 0 57 37 51 42 -14 12 -100 58
-100 54z"/>
<path d="M9552 4289 c3 -27 11 -56 18 -62 10 -10 12 -8 6 6 -3 10 -6 39 -6 63
0 26 -5 44 -11 44 -8 0 -10 -17 -7 -51z"/>
<path d="M7815 4228 c4 -18 35 -154 70 -303 36 -148 74 -315 85 -369 11 -55
22 -101 24 -103 2 -2 20 6 41 18 l37 22 -26 14 c-14 8 -26 22 -26 33 0 11 -14
63 -31 116 -24 76 -30 108 -26 157 3 52 0 68 -19 98 -37 59 -53 106 -63 185
-6 49 -18 89 -35 119 -32 53 -40 57 -31 13z"/>
<path d="M10484 4236 c-6 -26 64 -445 77 -460 20 -22 20 12 0 169 -31 249 -60
358 -77 291z"/>
<path d="M7434 4193 c4 -9 11 -36 16 -59 6 -24 44 -121 85 -215 41 -95 75
-180 75 -189 0 -27 -22 -40 -66 -40 -39 0 -43 2 -58 40 -9 22 -21 40 -27 40
-7 0 -8 -7 -4 -17 4 -10 11 -50 15 -88 4 -39 12 -81 19 -94 17 -31 6 -68 -26
-84 l-26 -14 40 -6 c22 -4 46 -14 53 -22 34 -41 42 18 10 80 -25 48 -27 123
-4 132 24 9 80 -22 100 -56 10 -17 21 -31 24 -31 3 0 3 28 -1 63 -7 76 -49
224 -94 332 -18 44 -36 91 -39 105 -7 33 -75 140 -88 140 -6 0 -7 -8 -4 -17z"/>
<path d="M7166 4073 c24 -58 46 -124 49 -145 7 -41 23 -58 35 -38 9 14 -44
180 -79 248 -12 23 -27 42 -35 42 -9 0 0 -33 30 -107z"/>
<path d="M10294 4158 c4 -13 11 -60 16 -104 11 -107 25 -157 50 -179 11 -10
22 -16 25 -14 3 4 -26 129 -66 282 -5 20 -15 37 -21 37 -6 0 -8 -9 -4 -22z"/>
<path d="M9120 4164 c0 -6 9 -37 20 -69 11 -32 20 -69 20 -82 0 -18 5 -23 26
-23 21 0 25 -3 19 -17 -17 -42 -17 -99 -1 -116 23 -22 46 -11 46 23 0 56 -59
215 -95 256 -19 21 -34 34 -35 28z"/>
<path d="M8581 4151 c-28 -5 -31 -8 -20 -17 16 -13 95 -54 104 -54 3 0 -5 18
-17 40 -13 22 -25 39 -28 39 -3 -1 -20 -4 -39 -8z"/>
<path d="M9598 4108 c28 -75 52 -91 52 -35 0 39 -24 77 -50 77 -18 0 -18 -2
-2 -42z"/>
<path d="M7340 4129 c0 -25 51 -202 77 -266 14 -35 31 -63 39 -63 22 0 18 18
-47 181 -63 159 -69 172 -69 148z"/>
<path d="M9030 3994 c0 -58 2 -61 45 -104 24 -24 47 -42 49 -39 3 3 -17 49
-44 104 l-50 99 0 -60z"/>
<path d="M8516 3990 c12 -88 67 -210 95 -210 10 0 -25 95 -70 190 l-31 65 6
-45z"/>
<path d="M9487 3996 c-6 -16 24 -143 47 -197 9 -22 13 -50 9 -76 -5 -40 9 -83
28 -83 5 0 23 10 39 21 23 17 37 20 69 15 40 -6 40 -6 47 30 7 40 -2 124 -15
137 -11 11 -31 -46 -31 -91 0 -31 -2 -34 -25 -28 -58 15 -73 26 -89 65 -22 56
-20 78 9 117 l25 33 -42 29 c-63 42 -65 43 -71 28z"/>
<path d="M9635 3999 c-4 -5 0 -18 9 -28 9 -10 16 -34 16 -54 0 -20 5 -37 10
-37 14 0 12 104 -2 118 -15 15 -25 15 -33 1z"/>
<path d="M8652 3945 c-18 -29 -20 -35 -6 -35 49 0 102 -116 87 -191 -5 -27 -9
-30 -32 -25 -74 18 -104 19 -99 5 18 -50 37 -121 42 -159 4 -25 17 -63 30 -85
21 -33 22 -42 11 -59 -16 -26 -5 -60 24 -76 20 -10 21 -8 21 59 0 59 3 72 19
81 31 16 39 12 61 -30 11 -22 27 -40 35 -40 21 0 19 12 -13 88 -39 91 -45 119
-32 156 9 27 4 49 -30 151 -22 65 -40 120 -40 122 0 2 17 3 37 3 l37 0 -54 35
c-30 19 -59 35 -65 35 -5 0 -20 -16 -33 -35z m108 -317 c11 -18 20 -50 20 -70
0 -32 -3 -38 -21 -38 -11 0 -28 -4 -38 -10 -16 -8 -20 -1 -34 57 -18 74 -12
93 29 93 17 0 31 -10 44 -32z"/>
<path d="M9380 3939 c0 -57 33 -165 61 -199 l21 -25 -6 25 c-4 14 -22 75 -41
135 -32 103 -34 107 -35 64z"/>
<path d="M9250 3774 c0 -84 -12 -102 -59 -86 -30 11 -51 1 -51 -24 0 -17 30
-26 46 -13 7 6 25 9 40 7 21 -2 33 -15 57 -58 38 -72 47 -81 47 -45 0 60 18
101 52 116 l32 16 -53 28 c-40 22 -60 42 -82 80 l-29 50 0 -71z"/>
<path d="M10417 3679 c15 -15 75 -17 80 -1 3 8 -9 12 -43 12 -35 0 -45 -3 -37
-11z"/>
<path d="M10560 3682 c0 -4 7 -17 15 -30 9 -12 22 -39 30 -59 l14 -38 0 38 c1
42 -25 97 -46 97 -7 0 -13 -3 -13 -8z"/>
<path d="M9586 3576 c-6 -24 3 -58 26 -103 9 -18 13 -19 23 -9 11 10 9 24 -8
74 -12 34 -25 62 -28 62 -4 0 -10 -11 -13 -24z"/>
<path d="M7643 3523 c-12 -13 -34 -23 -48 -23 -40 0 -29 -17 19 -29 39 -10 46
-16 65 -60 11 -27 26 -82 32 -123 16 -106 21 -121 53 -137 24 -11 30 -11 44 3
15 15 13 19 -23 56 -38 39 -38 39 -25 80 11 34 11 42 -2 57 -15 19 -36 61 -72
148 l-21 50 -22 -22z"/>
<path d="M9660 3338 l0 -62 21 21 c19 19 20 25 9 57 -19 58 -30 52 -30 -16z"/>
<path d="M7150 1102 c0 -25 35 -56 55 -49 20 8 19 30 -3 50 -25 23 -52 22 -52
-1z"/>
<path d="M7016 1024 c-22 -8 -62 -36 -90 -62 -69 -65 -121 -94 -257 -140 -63
-22 -147 -53 -185 -70 -112 -47 -227 -77 -419 -107 -78 -12 -245 -44 -312 -60
-13 -3 -23 -12 -23 -21 0 -10 6 -13 18 -10 9 3 76 15 147 27 72 12 148 25 170
29 22 4 70 13 108 19 135 23 304 73 442 131 77 32 199 84 270 114 78 34 145
56 168 56 26 0 37 4 37 15 0 10 -11 15 -37 16 l-38 1 40 13 c22 8 52 14 68 14
30 1 32 4 17 32 -13 23 -66 25 -124 3z"/>
<path d="M7212 943 c-24 -8 -41 -20 -39 -26 4 -13 63 -35 95 -36 30 -1 51 41
32 64 -15 18 -32 18 -88 -2z"/>
<path d="M7312 653 c-7 -3 -19 -17 -27 -33 -13 -25 -12 -29 4 -44 20 -18 120
-50 129 -42 8 9 -49 66 -65 66 -16 0 -17 32 -1 48 9 9 8 12 -7 11 -11 0 -26
-3 -33 -6z"/>
<path d="M7254 273 c-4 -16 -12 -34 -18 -42 -9 -12 -8 -13 7 -8 10 4 26 7 35
7 9 0 33 10 52 22 l35 21 -35 13 c-55 20 -69 17 -76 -13z"/>
</g>
</svg>
