<?xml version="1.0" standalone="no"?>
<!DOCTYPE svg PUBLIC "-//W3C//DTD SVG 20010904//EN"
 "http://www.w3.org/TR/2001/REC-SVG-20010904/DTD/svg10.dtd">
<svg version="1.0" xmlns="http://www.w3.org/2000/svg"
 width="1280.000000pt" height="1223.000000pt" viewBox="0 0 1280.000000 1223.000000"
 preserveAspectRatio="xMidYMid meet">
<metadata>
Created by potrace 1.15, written by Peter Selinger 2001-2017
</metadata>
<g transform="translate(0.000000,1223.000000) scale(0.100000,-0.100000)"
fill="#000000" stroke="none">
<path d="M9830 12219 c-413 -61 -1172 -200 -2390 -440 -704 -139 -1601 -304
-1840 -339 -80 -12 -202 -24 -271 -27 -195 -9 -216 2 -370 193 -119 148 -179
207 -239 237 -89 44 -287 19 -318 -40 -26 -49 -44 -127 -62 -278 -43 -348 -82
-466 -288 -874 -168 -332 -200 -405 -239 -549 -23 -85 -26 -116 -27 -257 0
-142 3 -171 26 -261 91 -344 208 -463 485 -494 188 -20 299 15 406 130 77 83
116 148 173 289 81 203 140 439 225 906 23 127 43 231 44 233 6 8 988 143
1082 149 149 8 189 -3 258 -73 61 -62 107 -145 130 -234 22 -84 16 -248 -11
-305 -43 -91 -115 -116 -841 -295 -290 -72 -552 -138 -581 -147 -30 -9 -71
-33 -96 -55 -177 -155 -7 -430 311 -505 109 -25 415 -25 563 1 118 20 312 66
534 125 l148 40 -5 -227 c-4 -238 -16 -310 -54 -344 -67 -59 -837 -212 -1523
-302 -337 -44 -444 -51 -619 -36 -118 9 -173 10 -226 2 -209 -33 -314 -111
-323 -242 -6 -77 9 -118 81 -225 111 -165 207 -400 367 -895 262 -815 377
-1119 543 -1435 71 -137 141 -231 204 -272 113 -75 330 -115 515 -95 136 15
225 46 325 114 128 88 286 137 448 139 110 1 141 -10 160 -55 23 -54 35 -196
24 -268 -17 -106 -33 -128 -112 -155 -215 -71 -841 -211 -2067 -463 -841 -173
-1037 -226 -1108 -303 -29 -30 -41 -81 -42 -165 0 -107 37 -155 185 -239 262
-147 420 -187 660 -165 213 20 435 63 1180 227 605 134 1040 223 1170 240 74
9 98 -13 122 -113 16 -71 18 -136 18 -787 0 -506 -4 -747 -13 -840 -13 -129
-25 -202 -36 -212 -7 -7 -90 8 -621 112 -1227 241 -2054 350 -2845 375 -301 9
-435 21 -454 40 -11 11 8 72 129 425 57 165 117 347 134 405 59 209 80 379 61
503 -24 160 -70 251 -189 379 -94 101 -186 172 -429 333 -106 71 -191 132
-190 136 3 8 508 581 713 809 196 219 473 497 521 526 49 29 61 53 75 149 14
92 2 152 -48 247 -90 172 -350 378 -686 542 -153 75 -264 106 -381 106 -111 0
-183 -17 -296 -71 -106 -50 -145 -75 -345 -218 -261 -187 -599 -406 -950 -616
-401 -240 -487 -298 -563 -380 -68 -72 -89 -131 -78 -218 28 -237 291 -291
721 -150 176 57 346 139 653 315 178 103 329 178 355 178 11 0 14 -7 10 -22
-12 -51 -89 -317 -150 -518 -152 -500 -176 -604 -177 -755 0 -141 17 -187 128
-354 162 -244 234 -422 243 -600 18 -338 -94 -1101 -178 -1223 -37 -52 -238
-117 -584 -188 -421 -87 -809 -186 -940 -241 -93 -38 -140 -87 -151 -154 -22
-148 50 -260 241 -375 265 -160 318 -158 1056 54 777 223 891 244 1354 253
1015 19 1636 -125 3530 -820 248 -91 590 -218 760 -282 2285 -863 2506 -943
2590 -930 288 44 771 143 1075 221 721 184 1397 425 1881 670 256 130 320 200
306 334 -8 69 -32 123 -74 163 -25 23 -43 29 -114 37 -128 14 -628 30 -969 30
-1135 1 -1808 77 -3295 375 -629 126 -736 155 -789 214 -27 29 -31 104 -12
208 42 232 62 532 76 1138 13 583 31 851 61 906 17 32 156 63 444 98 582 73
1192 113 2030 136 570 15 673 23 810 65 90 28 141 58 192 112 59 64 78 123 78
239 0 90 -2 99 -38 173 -111 224 -433 429 -836 531 -188 47 -283 59 -501 59
-175 0 -220 -3 -307 -22 -115 -25 -220 -61 -304 -102 -241 -122 -1146 -326
-1404 -318 -89 3 -89 3 -111 36 -28 41 -38 116 -31 230 6 111 30 187 71 228
65 65 361 138 566 139 116 0 129 -2 184 -28 32 -15 89 -49 125 -76 190 -140
388 -174 586 -100 123 46 194 118 328 333 219 353 435 782 714 1421 157 360
244 533 328 656 58 85 95 183 95 253 0 91 -101 247 -291 448 -245 261 -517
459 -704 513 -46 14 -82 16 -165 12 -131 -7 -209 -22 -805 -157 -601 -136
-689 -153 -796 -154 -149 -2 -170 26 -171 219 0 307 62 342 737 425 298 36
456 68 558 110 102 42 148 84 191 175 32 68 43 80 117 135 107 80 216 143 412
241 447 224 769 340 1002 360 153 13 196 23 267 61 105 56 144 134 135 273
-10 174 -120 380 -349 655 -297 355 -573 532 -853 545 -49 2 -119 0 -155 -6z
m-531 -946 c21 -5 23 -10 18 -47 -12 -89 -192 -395 -347 -590 l-61 -77 -47 7
c-26 4 -119 26 -207 50 -285 78 -376 80 -614 14 -120 -34 -168 -35 -202 -4
-10 9 -45 71 -78 138 -72 147 -108 192 -162 206 -48 13 -47 28 3 53 153 76
1568 285 1697 250z m-379 -2908 c17 -21 8 -95 -41 -340 -70 -349 -206 -851
-292 -1082 -56 -149 -151 -274 -241 -317 -92 -43 -361 -69 -487 -47 -91 17
-129 43 -151 106 -41 118 29 217 197 280 35 14 144 38 242 55 332 57 398 90
461 230 65 148 23 294 -126 437 -132 127 -270 189 -456 204 -178 15 -234 27
-272 61 -40 36 -50 77 -31 138 16 54 49 76 182 119 357 116 970 210 1015 156z
m-2316 -460 c14 -57 26 -128 26 -158 0 -68 -37 -144 -93 -193 -94 -80 -309
-164 -625 -245 -315 -80 -379 -50 -438 211 -14 63 -30 133 -35 155 -8 36 -6
42 16 62 26 23 180 76 330 113 112 28 742 158 771 159 19 1 25 -11 48 -104z
m10 -1208 c18 -25 21 -42 21 -135 0 -114 -17 -187 -57 -237 -26 -33 -127 -84
-254 -128 -116 -40 -382 -112 -388 -106 -10 10 -246 572 -242 577 4 3 403 43
561 55 28 2 115 3 194 3 l144 -1 21 -28z"/>
<path d="M1221 10679 c-223 -20 -314 -75 -296 -180 8 -48 59 -154 117 -245
192 -299 753 -770 1143 -959 303 -148 484 -169 666 -78 117 58 144 124 155
368 9 184 -7 329 -45 410 -44 93 -92 151 -367 433 l-256 262 -511 -1 c-282 -1
-554 -5 -606 -10z"/>
</g>
</svg>
