<svg xmlns="http://www.w3.org/2000/svg" viewBox="0 0 86 90.34"><defs><style>.cls-1{fill:#fff;}</style></defs><title>mi</title><g id="Warstwa_2" data-name="Warstwa 2"><g id="Layer_3" data-name="Layer 3"><path class="cls-1" d="M0,56.13,1.71,70c.07,0,7.73-.86,21.1,1.21C35.17,73.15,55.08,78,79.74,90.34L86,77.82C34.69,52.17,1.39,56,0,56.13Z"/><path class="cls-1" d="M16.53,27.83l3.68,13.5a1.55,1.55,0,0,1-.34.09c.1,0,10.84-1.65,41.74,11.59l5.52-12.86C31.68,25,18.76,27.22,16.53,27.83Z"/><path class="cls-1" d="M65.88,26.65l7-12.14C44.24-1.92,22.58,0,21.67.12l1.39,13.93C23.24,14,41.12,12.43,65.88,26.65Z"/></g></g></svg>