<svg xmlns="http://www.w3.org/2000/svg" viewBox="0 0 137.57 155.3"><defs><style>.cls-1{fill:#fff;}</style></defs><title>a</title><g id="Warstwa_2" data-name="Warstwa 2"><g id="Layer_1" data-name="Layer 1"><path class="cls-1" d="M137.51,108.07C136.38,86.76,121.9,69.47,103,61.49c.86-5.51-1.37-11-7.19-12.6-5-1.36-11.77,1.64-12.65,7.19,0,.22-.09.45-.12.67a72.31,72.31,0,0,0-25.7,2.86c-.21-5.24-.32-10.49-.3-15.75a319.22,319.22,0,0,0,47.38-7.26c5.46-1.26,8.62-7.42,7.18-12.65A10.43,10.43,0,0,0,99,16.76a289.6,289.6,0,0,1-41.28,6.43q.36-6.45.94-12.91C59.15,4.69,53.57,0,48.35,0c-6,0-9.77,4.7-10.28,10.28-.43,4.63-.75,9.27-1,13.9q-13.37.18-26.78-.82C4.69,22.94,0,28.35,0,33.64c0,5.92,4.7,9.86,10.28,10.28,8.73.66,17.47.92,26.2.83q0,11.85.71,23.67A110.27,110.27,0,0,0,21.37,79.69c-9,7.64-17,18.17-18.56,30.12C1,123,5.49,135.48,16.94,142.78c9.06,5.77,21.64,5.63,31.33,1.74l1.3-.56c5,9.72,22,4.18,18.94-7.81-.39-1.53-.76-3.06-1.14-4.6A104.28,104.28,0,0,0,75.12,123,131.36,131.36,0,0,0,98,81.77c12,6.31,20.1,18.43,18.83,32.76-.41,4.66-3.46,9.7-6.66,13.13a22.33,22.33,0,0,1-6.41,4.87,19.59,19.59,0,0,1-7.25,2.18c-5.58.43-10.28,4.35-10.28,10.28,0,5.28,4.69,10.72,10.28,10.29C120.56,153.42,138.78,132.11,137.51,108.07ZM28.23,125.58c-6.91-2.35-6.31-12.56-3-18.88,3.16-6.07,8.37-11.11,14.08-15.3q1.95,16.17,5.24,32.16C39.43,126.41,33.92,127.51,28.23,125.58Zm34-19.29Q60,93.51,58.79,80.6a57.94,57.94,0,0,1,19-3.49A109.46,109.46,0,0,1,62.19,106.29Z"/></g></g></svg>