<svg xmlns="http://www.w3.org/2000/svg" viewBox="0 0 136.16 158.17"><defs><style>.cls-1{fill:#fff;}</style></defs><title>chi</title><g id="Warstwa_2" data-name="Warstwa 2"><g id="Layer_1" data-name="Layer 1"><path class="cls-1" d="M135.51,105.38c-3.68-21.28-27.07-29.7-46.07-28A128,128,0,0,0,51,87.53q3.66-17.18,6.61-34.46a406,406,0,0,0,51-6c5.52-1,8.56-7.61,7.18-12.65-1.59-5.76-7.14-8.19-12.65-7.18a362,362,0,0,1-42.24,5.1q1.64-11,3-22.07C64.6,4.71,58.71,0,53.62,0,47.5,0,44,4.72,43.34,10.28Q41.93,21.7,40.18,33.07q-15,.09-29.9-1C4.69,31.71,0,37.09,0,42.39c0,5.91,4.69,9.89,10.28,10.29q13.25.93,26.47.93Q32.22,79,26.18,104c-2.06,8.55,7.14,16.45,15.11,11.61A134.08,134.08,0,0,1,84.34,98.82c7.12-1.46,14.34-1.76,21.29.5a14.83,14.83,0,0,1,9.78,10.32c1.18,4.29.06,9.63-2.26,13.9-2.87,5.26-8.08,8.61-13.58,11.17-13.34,6.2-30.36,2.62-44.47-.67-12.91-3-18.39,16.83-5.47,19.84,20.72,4.82,41.65,7.27,61.5-2A43,43,0,0,0,135.51,105.38Z"/></g></g></svg>