<svg xmlns="http://www.w3.org/2000/svg" viewBox="0 0 160.3 161.83"><defs><style>.cls-1{fill:#fff;}</style></defs><title>e</title><g id="Warstwa_2" data-name="Warstwa 2"><g id="Layer_1" data-name="Layer 1"><path class="cls-1" d="M150.35,136.68q-20.28-.31-40.54-1.34a43.91,43.91,0,0,1-6.68-.66c-1.67-.36-1.89-.42-2.64-1.75a20.88,20.88,0,0,1-.19-3.33,91.08,91.08,0,0,1,2.57-10.39c3.13-12,1-27.28-12.4-31.79-.6-.21-1.22-.38-1.84-.53l22-22.28c6.32-6.39,1.73-17.53-7.27-17.56L29.8,46.76c-13.27,0-13.26,20.52,0,20.57l49.05.19L3,144.23c-9.33,9.43,5.21,24,14.55,14.54l45-45.48.19-.1a46.47,46.47,0,0,1,13.81-5.68,27.27,27.27,0,0,1,6.66-.74c.17.28.4.55.35.27.84,3-.94,8.36-2.09,12.61a37.84,37.84,0,0,0-.64,18.87c3.28,13.65,17,16.77,29,17.39,13.5.7,27,1.12,40.54,1.34C163.62,157.47,163.6,136.9,150.35,136.68Z"/><path class="cls-1" d="M101.81,8.42A301.14,301.14,0,0,1,50.73.34C37.85-2.83,32.39,17,45.26,20.18A335.52,335.52,0,0,0,101.81,29c5.6.39,10.29-5,10.29-10.29C112.1,12.8,107.4,8.81,101.81,8.42Z"/></g></g></svg>