<svg xmlns="http://www.w3.org/2000/svg" viewBox="0 0 153.47 147.75"><defs><style>.cls-1{fill:#fff;}</style></defs><title>fu</title><g id="Warstwa_2" data-name="Warstwa 2"><g id="Layer_1" data-name="Layer 1"><path class="cls-1" d="M96.38,18.57a139.54,139.54,0,0,1-41.29-17C43.75-5.37,33.42,12.42,44.71,19.34A157.81,157.81,0,0,0,90.91,38.4C103.81,41.44,109.29,21.61,96.38,18.57Z"/><path class="cls-1" d="M107.89,105.94c-2.48-13.65-13-25-25.23-30.9-2.77-1.34-5.75-2.29-8.53-3.52C72,70.59,69.69,69,69.4,68.22a13.61,13.61,0,0,1-.51-6.66,65.5,65.5,0,0,1,2.56-9.93c4-12.67-15.82-18.05-19.83-5.47-3.81,12-5.94,25.84,2.82,36.21,4.37,5.18,10.56,7.57,16.7,10a32.43,32.43,0,0,1,12.07,8.47c5.6,6.09,6.56,14.93,1.27,21.23a15,15,0,0,1-22,1.14c-9.65-9.08-24.22,5.44-14.55,14.55,11.36,10.69,27.15,12.81,41.19,6.46S110.55,120.61,107.89,105.94Z"/><path class="cls-1" d="M34.26,84.11Q17.77,100.24,2.94,117.92c-3.6,4.29-4.22,10.32,0,14.54,3.7,3.7,10.93,4.3,14.54,0q14.83-17.67,31.33-33.81C58.3,89.37,43.75,74.83,34.26,84.11Z"/><path class="cls-1" d="M152,114.94a167.76,167.76,0,0,0-28.8-37.1c-9.51-9.23-24.07,5.3-14.54,14.54a148.1,148.1,0,0,1,25.58,32.94C140.85,136.83,158.63,126.47,152,114.94Z"/></g></g></svg>