<svg xmlns="http://www.w3.org/2000/svg" viewBox="0 0 166.39 149.66"><defs><style>.cls-1{fill:#fff;}</style></defs><title>ha</title><g id="Warstwa_2" data-name="Warstwa 2"><g id="Layer_1" data-name="Layer 1"><path class="cls-1" d="M156.44,29.56l-26-.47q-.49-9.4-1-18.81C129.17,4.69,125,0,119.18,0c-5.38,0-10.57,4.68-10.28,10.28l1,18.44-45.43-.81c-13.27-.24-13.24,20.33,0,20.57l46.51.83q.84,16.14,1.69,32.27c.19,3.66.42,7.86.42,12.22a72.43,72.43,0,0,0-18.37-.51c-11.53,1.17-24.27,6-29.18,17.44A27.8,27.8,0,0,0,74,143.29c10.89,8.44,25,8,36.77,1.63,9.21-4.94,15.41-14.2,18.95-24a62.2,62.2,0,0,1,15.15,11.78c9.1,9.69,23.62-4.88,14.55-14.54a81,81,0,0,0-25.79-18.28c.4-8.94-.36-18-.83-26.83q-.62-11.7-1.22-23.41l24.91.45C169.71,50.37,169.69,29.8,156.44,29.56ZM94.17,129.25a11.52,11.52,0,0,1-3.56-.18,19.61,19.61,0,0,1-2.48-.74c.89.3-1.12-.84-.72-.45-2.71-2.17-3.58-4.39-3.69-6.47a5.53,5.53,0,0,1,2.45-4.47,22,22,0,0,1,9.71-3.21,55.13,55.13,0,0,1,14.47.46C107.79,121.61,103,127.48,94.17,129.25Z"/><path class="cls-1" d="M36.63,119.08c-4.76-1.31-10.73,1.29-12.37,6.12l-.17-.1c-1.85-1.17-2.44-6.19-2.66-8.64a323.42,323.42,0,0,1-.84-33.1A415.2,415.2,0,0,1,26.82,16.5c1-5.52-1.4-11.06-7.18-12.65C14.63,2.47,8,5.5,7,11A454.85,454.85,0,0,0,.08,98.36c.27,14.12-.55,30.17,9.61,41.26,10,10.89,31.07,7.75,34.12-7.89C44.88,126.23,42.33,120.65,36.63,119.08Z"/></g></g></svg>