<svg xmlns="http://www.w3.org/2000/svg" viewBox="0 0 155.61 133.22"><defs><style>.cls-1{fill:#fff;}</style></defs><title>hi</title><g id="Warstwa_2" data-name="Warstwa 2"><g id="Layer_1" data-name="Layer 1"><path class="cls-1" d="M152.61,63.66A131.08,131.08,0,0,1,115.69,7.31C112-4,96.29-1.54,95.49,10c-1.57,22.72,4.27,45.79.4,68.37-1.59,9.24-5,18.1-11.32,24.91-5.66,6.09-12.82,9.55-20.66,9.36-7.18-.18-14.32-5.19-19.48-11.22-5.66-6.62-7.55-16.52-7.53-25.28C37,54.23,50.21,34.67,61.65,17c3.92-6.06-1.1-16.4-8.88-15.47A155.48,155.48,0,0,1,13,1.42C7.42.64,2,2.68.32,8.6-1,13.47,1.94,20.47,7.5,21.25a188.63,188.63,0,0,0,26.14,1.9c-9.94,17.23-17.72,35.58-17.28,56,.52,24.19,16.16,48.73,41.12,53.32,25.75,4.75,46.75-14.55,55.23-37.23,4.81-12.86,5.38-26.35,4.86-39.93a148.68,148.68,0,0,0,20.5,22.88c4.15,3.75,10.43,4.11,14.54,0C156.43,74.39,156.77,67.42,152.61,63.66Z"/></g></g></svg>