<svg xmlns="http://www.w3.org/2000/svg" viewBox="0 0 159.04 150.06"><defs><style>.cls-1{fill:#fff;}</style></defs><title>ho</title><g id="Warstwa_2" data-name="Warstwa 2"><g id="Layer_1" data-name="Layer 1"><path class="cls-1" d="M37,116c-5.4,0-9.24,4-10.12,8.94-.21.26-.4.6-.07.43v0l-.44.33s-.11-.06-.36,0l-.73-.19a9.84,9.84,0,0,1-2.45-2.18c-1-1.06-1.43-3-1.89-4.66-1.34-5-.42-10.87-.07-16l1.24-18.49q2.51-37,5-73.94C27.52,4.68,22.18,0,16.86,0,11,0,7,4.69,6.57,10.28Q3.41,57.33.23,104.39c-1,14.79.86,30.77,14.91,39,13.66,8,31.19-1.57,32.18-17.07C47.68,120.72,42.37,116,37,116Z"/><path class="cls-1" d="M148.06,4.09q-43.4,2.28-86.86.75C47.93,4.37,48,24.94,61.2,25.4q43.43,1.55,86.86-.74c5.59-.3,10.28-4.46,10.28-10.29C158.34,9,153.66,3.79,148.06,4.09Z"/><path class="cls-1" d="M156.18,115.84a78.33,78.33,0,0,0-30.54-20c-.1-4.37-.31-8.7-.38-12.87q-.12-7.83-.25-15.65,11-1,21.89-2.22c5.57-.62,10.29-4.21,10.29-10.28,0-5.14-4.7-10.91-10.29-10.29q-11.1,1.24-22.23,2.25c0-2.12-.07-4.24-.11-6.36l-.42-25.53c-.22-13.25-20.79-13.27-20.57,0q.29,16.78.56,33.55Q81,50.08,57.79,50.74c-13.23.37-13.27,20.94,0,20.57q23.37-.66,46.67-2.34.17,9.56.32,19.1c0,1.08,0,2.17.07,3.26a75.58,75.58,0,0,0-11.46,0c-13.61,1-26.06,5.44-34.51,16.56-8,10.53-5.49,26,4.3,34.34C72.7,150.29,85.91,152,97.56,148c12.45-4.28,21.18-14,25.33-26.33.46-1.38.84-2.79,1.17-4.21a59.55,59.55,0,0,1,17.58,12.94C150.71,140.09,165.23,125.52,156.18,115.84Zm-53.58,1.67c-2.39,7.09-10,11.6-16.45,12a12.84,12.84,0,0,1-8.59-2.13c-1.08-.69-1.32-.85-.72-.5.07.07-2.13-2.51-1.35-1.39a3.49,3.49,0,0,1-.95-2.55c1.22-8.29,12.32-10.47,18.85-11.1a57.52,57.52,0,0,1,10.66,0A40.39,40.39,0,0,1,102.6,117.51Z"/></g></g></svg>