<svg xmlns="http://www.w3.org/2000/svg" viewBox="0 0 145.92 128.35"><defs><style>.cls-1{fill:#fff;}</style></defs><title>i</title><g id="Warstwa_2" data-name="Warstwa 2"><g id="Layer_1" data-name="Layer 1"><path class="cls-1" d="M54.42,84.76c-5.63-1.55-10.88,1.87-12.65,7.18-1.33,4-2.58,8.57-5.18,11.92a12.36,12.36,0,0,1-3.75,3.27c.46-.27-1.21.34-1.89.6.22-.19-1.93-.11-.78.11-1-.2-1.16-.42-1.35-.68a14.52,14.52,0,0,1-2.41-5.32C24.67,96.13,23.88,90,23,84.16A245.07,245.07,0,0,1,22.71,13C23.5,7.43,21.44,2,15.53.32,10.65-1,3.66,1.94,2.88,7.5a280.23,280.23,0,0,0,2.54,95c2.68,13.37,11.26,27.18,26.79,25.74,16.93-1.57,24.57-16.45,29.39-30.84C63.38,92.09,59.6,86.18,54.42,84.76Z"/><path class="cls-1" d="M117.49,16c-3.45-4.43-10.95-3.6-14.54,0-4.33,4.33-3.44,10.12,0,14.54a109.25,109.25,0,0,1,22.39,61.24c.27,5.6,4.47,10.29,10.28,10.29,5.4,0,10.56-4.68,10.29-10.29A133,133,0,0,0,117.49,16Z"/></g></g></svg>