<svg xmlns="http://www.w3.org/2000/svg" viewBox="0 0 155.5 148.4"><defs><style>.cls-1{fill:#fff;}</style></defs><title>ka</title><g id="Warstwa_2" data-name="Warstwa 2"><g id="Layer_1" data-name="Layer 1"><path class="cls-1" d="M99.13,81.16C97.73,61.76,88.21,44.64,69.83,37a40.3,40.3,0,0,0-10.89-2.77Q61.15,23.67,62.73,13c.82-5.54-1.29-11-7.18-12.65C50.65-1,43.72,2,42.9,7.5q-2.09,14.06-5.24,27.87c-8.72,1.42-17.44,3.39-25.94,3.68-13.22.44-13.27,21,0,20.56,6.85-.22,13.59-1.47,20.33-2.65A355.91,355.91,0,0,1,1.39,130.24c-6.46,11.6,11.3,22,17.76,10.38A377.86,377.86,0,0,0,54.07,54.71c.27,0,.53,0,.8,0,11.38.5,18.72,7.73,22,18,4,12.64,1.71,27.55-.4,40.37-.78,4.77-2.3,10.83-5.93,13.43,0,0-2.76,1.3-2,1a5.2,5.2,0,0,0-.7.27,2.61,2.61,0,0,0-.67-.23c.69.43.49.33-.61-.29.51.54.37.44-.38-.3-.42-5.44-4.58-9.92-10.25-9.92-5.41,0-10.54,4.68-10.28,10.29.45,9.89,6.88,17,16,20,9.37,3.14,19.9-1.93,25.92-9,6.49-7.67,8.47-17.19,9.71-26.9C98.6,101.44,99.87,91.33,99.13,81.16Z"/><path class="cls-1" d="M155,90.19a252.21,252.21,0,0,0-30.08-58.78c-3.19-4.59-8.94-6.69-14.07-3.69-4.55,2.67-6.89,9.46-3.69,14.07a232.2,232.2,0,0,1,28,53.86c1.89,5.27,6.93,8.76,12.65,7.19C152.93,101.44,156.92,95.46,155,90.19Z"/></g></g></svg>