<svg xmlns="http://www.w3.org/2000/svg" viewBox="0 0 152.23 154.85"><defs><style>.cls-1{fill:#fff;}</style></defs><title>ke</title><g id="Warstwa_2" data-name="Warstwa 2"><g id="Layer_1" data-name="Layer 1"><path class="cls-1" d="M44.42,104.46c-3.74-3.74-10.88-4.25-14.54,0-1.79,2.07-4.2,5-6.51,6.09l-.07-.1a11.54,11.54,0,0,0-.71-2.13c-1-3.67-1-6.61-1.33-11.19-.42-5.48-.62-11-.71-16.46a258.77,258.77,0,0,1,6.43-61C28.22,14.19,25.39,8.54,19.8,7,14.59,5.56,8.39,8.71,7.15,14.18A286,286,0,0,0,.47,93.84c.63,10.82.55,25.4,9.87,32.89,11.88,9.55,25.44,2.3,34.08-7.73C48.08,114.76,48.6,108.64,44.42,104.46Z"/><path class="cls-1" d="M151.89,42.12c-1.57-5.69-7.16-8.27-12.65-7.18q-9.94,2-20,3.17L119.46,10C119.56-3.32,99-3.31,98.89,10q-.11,14.93-.22,29.86a286.83,286.83,0,0,1-44.23-1.47c-5.58-.62-10.28,5.14-10.28,10.28,0,6.07,4.71,9.67,10.28,10.28a288,288,0,0,0,44.12,1.45c0,9.45-.07,18.92-.78,28.34-1.41,18.88-9.06,40.77-28.3,45.93-12.8,3.43-7.36,23.27,5.47,19.84,26.29-7.05,39.22-33.05,42.57-58.1,1.66-12.46,1.55-25.07,1.59-37.62q12.86-1.44,25.6-4C150.21,53.68,153.29,47.22,151.89,42.12Z"/></g></g></svg>