<svg xmlns="http://www.w3.org/2000/svg" viewBox="0 0 142 162.53"><defs><style>.cls-1{fill:#fff;}</style></defs><title>ki</title><g id="Warstwa_2" data-name="Warstwa 2"><g id="Layer_1" data-name="Layer 1"><path class="cls-1" d="M104.19,19a318.45,318.45,0,0,1-85.27,8.21c-13.27-.5-13.22,20.07,0,20.57a339.94,339.94,0,0,0,90.74-9C122.57,35.74,117.09,15.91,104.19,19Z"/><path class="cls-1" d="M129.37,53.91A262.25,262.25,0,0,1,94,62.57,367.14,367.14,0,0,1,69,7.56C67.06,2.29,62-1.19,56.3.38,51.21,1.78,47.22,7.75,49.12,13A401.3,401.3,0,0,0,72.2,65.4,250.43,250.43,0,0,1,13,63.57c-5.53-.84-11,1.31-12.65,7.19C-1,75.67,2,82.56,7.51,83.41a285.35,285.35,0,0,0,75.71,1.43c.71,1.18,1.43,2.34,2.16,3.51a57.75,57.75,0,0,0-18.9-.85C49.64,89.67,34.6,99.94,30.59,117.16c-4.07,17.48,7.3,32.18,22.79,38.82a83.48,83.48,0,0,0,54,3.74c12.83-3.34,7.38-23.18-5.46-19.83a64.52,64.52,0,0,1-36.75-1.27,29.55,29.55,0,0,1-12.07-7.13c-3-3-3.09-6.94-2.38-10a16.27,16.27,0,0,1,6.16-9.28,26.42,26.42,0,0,1,13.65-4.53c12.49-.84,24.54,4.72,35.79,9.84,4.27,1.94,8.94,1.91,12.46-1.61,3-3,4.32-8.79,1.61-12.46q-8-10.77-15.12-22.06a271.25,271.25,0,0,0,29.6-7.63C147.43,69.73,142.05,49.87,129.37,53.91Z"/></g></g></svg>