<svg xmlns="http://www.w3.org/2000/svg" viewBox="0 0 126.8 129.5"><defs><style>.cls-1{fill:#fff;}</style></defs><title>ko</title><g id="Warstwa_2" data-name="Warstwa 2"><g id="Layer_1" data-name="Layer 1"><path class="cls-1" d="M102,7.46A397.46,397.46,0,0,1,30.36.24C24.87-.83,19.28,1.71,17.71,7.42,16.31,12.51,19.39,19,24.9,20.07A427,427,0,0,0,102,28C115.24,28.17,115.22,7.6,102,7.46Z"/><path class="cls-1" d="M116.86,108.67a489.86,489.86,0,0,1-64-2.11c-8.19-.81-17.8-1.07-25.36-4.61-3.55-1.66-4.9-3-6.48-6.06.12.18,0-.17-.32-1.08-.11-.34-.19-.58-.25-.74a6.22,6.22,0,0,0,0-.94c0-1.46-.05-.7.8-2C28.34,79.8,10.53,69.48,3.52,80.69-2.74,90.7-.11,103.28,7.16,112s19,11.83,29.88,13.3a477.61,477.61,0,0,0,79.82,4C130.09,128.8,130.13,108.23,116.86,108.67Z"/></g></g></svg>