<svg xmlns="http://www.w3.org/2000/svg" viewBox="0 0 80.77 150.21"><defs><style>.cls-1{fill:#fff;}</style></defs><title>ku</title><g id="Warstwa_2" data-name="Warstwa 2"><g id="Layer_1" data-name="Layer 1"><path class="cls-1" d="M77.76,132.74Q62.27,120,47.48,106.54c-5.12-4.68-10.16-9.46-15.15-14.28-3.67-3.56-8.63-7.5-11.42-11.64.48-.72,1.07-1.42,1.59-2.06L30,69.28Q37,60.66,43.9,52L71.73,17.56C75.25,13.2,76,7.29,71.73,3c-3.65-3.64-11-4.37-14.54,0l-30,37.14q-7.5,9.27-15,18.56C6.77,65.48.09,71.91,0,81.18-.07,89,5.84,95,10.93,100.06q8.51,8.49,17.3,16.67,17,15.85,35,30.55c4.34,3.55,10.29,4.26,14.55,0C81.43,143.61,82.1,136.3,77.76,132.74Z"/></g></g></svg>