<svg xmlns="http://www.w3.org/2000/svg" viewBox="0 0 130.87 158.19"><defs><style>.cls-1{fill:#fff;}</style></defs><title>ma</title><g id="Warstwa_2" data-name="Warstwa 2"><g id="Layer_1" data-name="Layer 1"><path class="cls-1" d="M120.59,27.25a527.61,527.61,0,0,1-110.31,2C4.69,28.73,0,34.26,0,39.5c0,6,4.7,9.8,10.28,10.29a526.93,526.93,0,0,0,110.31-2c5.56-.68,10.28-4.16,10.28-10.28C130.87,32.44,126.16,26.56,120.59,27.25Z"/><path class="cls-1" d="M124.5,132.81a75.83,75.83,0,0,0-41.6-30.3c0-.48,0-1,0-1.43-.09-4.5-.21-9-.33-13.49q12.74-.14,25.47-.68c5.6-.25,10.29-4.49,10.29-10.29,0-5.42-4.68-10.53-10.29-10.28Q95,66.91,82,67q-.12-4-.23-8.05-.66-24.52-1.33-49c-.36-13.24-20.93-13.27-20.57,0Q60.62,38.47,61.39,67q-19.26-.3-38.51-1.52c-5.6-.36-10.28,5-10.28,10.28,0,5.88,4.69,9.93,10.28,10.29Q42.4,87.29,62,87.56v.17c.11,3.79.31,7.64.43,11.5-10.13-.16-20.74,2.09-29.32,7.26-11.11,6.7-17.93,20.5-14,33.25C22.7,151.46,34.72,158,46.4,158.19c12.42.25,23-8.46,29.16-18.53a47.42,47.42,0,0,0,6-16.15,53.92,53.92,0,0,1,25.23,19.69c3.13,4.63,9,6.66,14.07,3.69C125.4,144.19,127.64,137.47,124.5,132.81Zm-69.61.4a15.69,15.69,0,0,1-4.78,3.56c.83-.45-2.15.7-2,.67-.28.08-.48.14-.63.2a5.49,5.49,0,0,0-1,0c-2.39.08-1.57,0-3.84-.67a6.94,6.94,0,0,1-2.87-1.83l-.51-.46a3.68,3.68,0,0,0-.43-.87c.84,1.43-.36-1.3-.23-.3a7.18,7.18,0,0,1,.7-4.51c3.72-7.67,14.66-8.93,21.8-9.13h.19c-.26,1.28-.56,2.55-.92,3.82A24.27,24.27,0,0,1,54.89,133.21Z"/></g></g></svg>