<svg xmlns="http://www.w3.org/2000/svg" viewBox="0 0 151.71 146.71"><defs><style>.cls-1{fill:#fff;}</style></defs><title>me</title><g id="Warstwa_2" data-name="Warstwa 2"><g id="Layer_1" data-name="Layer 1"><path class="cls-1" d="M138,48.73c-10-12.36-23.81-18.34-38.54-20q2.26-7.93,4.26-16C106.92-.07,87.09-5.53,83.9,7.34q-2.72,11-5.94,21.9-3.22.45-6.41,1.11A106.78,106.78,0,0,0,36.79,44.14a182.24,182.24,0,0,1-5.73-22C30,16.6,23.5,13.53,18.41,14.92c-5.71,1.58-8.26,7.16-7.19,12.66a194.71,194.71,0,0,0,8.53,30.26,79.88,79.88,0,0,0-9.57,12C.72,84.36-4.46,106.21,5,122c5.39,8.92,16.23,13.32,26.36,12S49.84,127.15,57,120.11c.82.93,1.64,1.85,2.47,2.76,3.78,4.15,10.72,3.83,14.54,0,4.1-4.1,3.78-10.4,0-14.54q-2.13-2.35-4.19-4.77c6-10,10.53-21.14,14.87-31.82q4.65-11.44,8.59-23.16a43.31,43.31,0,0,1,23,7.4c5.64,3.94,10.52,11.53,12.82,18.26a37,37,0,0,1,.49,23.6C125,113.35,108.49,125.07,93,126.12c-5.59.38-10.29,4.39-10.29,10.28,0,5.32,4.69,10.67,10.29,10.29,22.41-1.52,43.43-14.77,53.25-35.24C156.09,90.83,152.24,66.33,138,48.73ZM38.57,109.15a17.53,17.53,0,0,1-11.26,4.49c-4.18,0-5.47-3.26-6.29-6.54C18.77,98.15,23.61,86.86,28.7,79l.22-.32A199,199,0,0,0,44.1,103.76,60,60,0,0,1,38.57,109.15Zm5.89-45.5a91.26,91.26,0,0,1,9.23-5.42,94.23,94.23,0,0,1,17-6.74C66.94,61.82,62.78,72,58.08,81.86q-.82,1.76-1.71,3.48A178.43,178.43,0,0,1,44.46,63.65Z"/></g></g></svg>