<svg xmlns="http://www.w3.org/2000/svg" viewBox="0 0 154.06 150.27"><defs><style>.cls-1{fill:#fff;}</style></defs><title>mi</title><g id="Warstwa_2" data-name="Warstwa 2"><g id="Layer_1" data-name="Layer 1"><path class="cls-1" d="M152.62,104.81a92.2,92.2,0,0,0-15.22-17.9,139.64,139.64,0,0,0,10.75-37c.79-5.55-1.28-11-7.19-12.65-4.88-1.35-11.85,1.62-12.65,7.18a130.18,130.18,0,0,1-8,30A100.88,100.88,0,0,0,79,61.54c5.5-15.9,9.85-32.2,14.12-48.48,1.56-6-3.09-13.7-9.91-13L29.84,5.38c-5.57.56-10.28,4.26-10.28,10.28,0,5.19,4.7,10.85,10.28,10.29l39.69-4c-3.59,13.37-7.42,26.7-12.25,39.66l-1,.1C43.7,63.05,31,65.84,19.84,71.83,9.15,77.55,1.45,87.57.16,99.71-1,110.6,4.06,122.3,14.26,127.1c12.88,6.07,27.17.4,36.29-9.51,8.37-9.1,14-21.09,19.1-32.25.55-1.22,1.09-2.44,1.62-3.67h.43a81,81,0,0,1,39.41,11.21A122.88,122.88,0,0,1,75.49,131c-4.6,3.18-6.68,9-3.68,14.08,2.67,4.56,9.44,6.87,14.07,3.68a149.76,149.76,0,0,0,41.47-43.1c.94,1,1.87,2,2.77,3a56.6,56.6,0,0,1,4.74,6.48c3,4.7,9.06,6.62,14.07,3.69C153.6,116.15,155.67,109.52,152.62,104.81ZM41.38,95.24c-2.48,4.17-5.27,8.67-9.27,11.5-2.85,2-6.22,3.16-9.17,1.72.26.09-.46-.49-1-.91a7.28,7.28,0,0,0-.7-1.19,18.52,18.52,0,0,0-.61-2c-.25-1.24-.27-1.38-.08-.41,0-.71,0-1.43,0-2.14a16.33,16.33,0,0,1,1.14-4.63c-.6,1.65.92-1.33.92-1.33-.18.29,1.59-1.87,1.58-1.86,3.06-3.28,7.61-5.53,11.86-7.07a84.48,84.48,0,0,1,11.69-3.28C45.75,87.61,43.62,91.46,41.38,95.24Z"/></g></g></svg>