<svg xmlns="http://www.w3.org/2000/svg" viewBox="0 0 128.99 154.78"><defs><style>.cls-1{fill:#fff;}</style></defs><title>mo</title><g id="Warstwa_2" data-name="Warstwa 2"><g id="Layer_1" data-name="Layer 1"><path class="cls-1" d="M125.08,86.21c-2.24-5.14-9.67-6.27-14.07-3.69-5.26,3.08-5.93,8.93-3.69,14.07,2.42,5.55,1.68,11.84-.55,18.22s-7.57,11.63-14,15.16c-12.89,7.09-32.05,5.22-42.91-3.57-9.41-7.63-9.69-20-8.11-32.06a186,186,0,0,0,43.16-.68c5.56-.74,10.29-4.11,10.29-10.28,0-5-4.71-11-10.29-10.29A176.73,176.73,0,0,1,45.13,74c1.07-6.5,2.28-13,3.58-19.44a290.91,290.91,0,0,0,30.41-2.67c5.57-.78,8.53-7.79,7.19-12.66-1.63-5.92-7.11-8-12.65-7.18-6.76,1-13.57,1.58-20.39,1.92q2.55-10.65,5.49-21.19C62.34-.06,42.49-5.48,38.93,7.27q-3.72,13.34-6.79,26.82-10.22-.36-20.37-1.47C6.19,32,1.49,37.76,1.49,42.91c0,6.06,4.71,9.67,10.28,10.28,5.36.59,10.72,1,16.08,1.23q-1.58,8.22-2.93,16.48C20.83,70,16.76,69,12.71,67.83-.06,64.12-5.47,84,7.24,87.67q7.28,2.1,14.68,3.64c-1.27,9.8-2,19.6.44,29.36C25.2,132,33.7,141,43.56,146.79,62.73,158,89.28,157.44,107.68,145,126.78,132,134.28,107.33,125.08,86.21Z"/></g></g></svg>