<svg xmlns="http://www.w3.org/2000/svg" viewBox="0 0 155.79 161.27"><defs><style>.cls-1{fill:#fff;}</style></defs><title>mu</title><g id="Warstwa_2" data-name="Warstwa 2"><g id="Layer_1" data-name="Layer 1"><path class="cls-1" d="M127,100.28c-4.54-3.3-11.45-.78-14.07,3.69-3.05,5.2-.83,10.78,3.69,14.07-1.07-.78.8,1,.46.43a18.92,18.92,0,0,1,1.49,2.63c-.54-1.08,0,.56.22,1.38-.06.12.23,2.21.23,2.22a11.15,11.15,0,0,1-.51,3.7,16.62,16.62,0,0,1-4.4,5.94c-7.64,7.26-20.51,6.72-30.48,5.89a111.51,111.51,0,0,1-14.58-2c-5.17-1-8.82-2.24-12.78-4.79l-.59-.37a5.27,5.27,0,0,0-.78-.82c.05.05-1.61-2-1.39-1.62A11.24,11.24,0,0,1,51.7,126a43.86,43.86,0,0,1,.59-11.65C59.34,103.73,60,88.4,61,76.05q1-12.47,1.19-25,16.42-.42,32.78-2.35c5.57-.67,10.29-4.18,10.29-10.29,0-5.1-4.71-10.95-10.29-10.28q-16.44,1.95-33,2.35-.32-10.12-1.1-20.23C60.42,4.7,56.51,0,50.57,0,45.3,0,39.85,4.69,40.29,10.28q.8,10.07,1.11,20.14Q25.82,29.9,10.28,28C4.71,27.31,0,33.19,0,38.28c0,6.12,4.72,9.6,10.28,10.28Q25.88,50.48,41.57,51c0,.48,0,1,0,1.45-.11,6.17-.34,12.81-.73,19.33C31.33,66,18.14,68.72,10.08,76.14c-10,9.23-10.43,25-4.24,36.32,4.94,9,15.27,14.26,25.36,13.87a40.62,40.62,0,0,0,3.55,13C39.38,149.5,51,155,61.2,157.57a121.35,121.35,0,0,0,36.6,3.49c15.11-.95,30.26-7.63,37.94-21.26A30.58,30.58,0,0,0,127,100.28Zm-93.67,2c0,.84-.11,1.72-.2,2.61-.43.23-1,.59-.51.42-1.93.73-3.33.58-5.66-.13-6.22-1.88-6.35-12.63-.12-15.95.28-.15,2.59-.09,2.34-.2.13.06,2.63,1.91,1.42.84l.55.46a7.06,7.06,0,0,0,.43.76,16.2,16.2,0,0,1,1.57,4.74c.06.27.1.47.14.64a9.9,9.9,0,0,0,0,1.18A42.07,42.07,0,0,1,33.3,102.31Z"/><path class="cls-1" d="M152.8,68.92,124,42.88c-4.15-3.76-10.43-4.11-14.54,0-3.82,3.81-4.16,10.78,0,14.54l28.78,26c4.16,3.76,10.44,4.11,14.55,0C156.61,79.65,157,72.68,152.8,68.92Z"/></g></g></svg>