<svg xmlns="http://www.w3.org/2000/svg" viewBox="0 0 156.19 145.23"><defs><style>.cls-1{fill:#fff;}</style></defs><title>n</title><g id="Warstwa_2" data-name="Warstwa 2"><g id="Layer_1" data-name="Layer 1"><path class="cls-1" d="M151.26,82.07c-4.51-2.64-11.69-1.39-14.07,3.69-6.18,13.13-12.72,27.86-25.34,35.71a22.08,22.08,0,0,1-7,2.7,23.83,23.83,0,0,1-4,.07,5.16,5.16,0,0,0-1.1-.25c-.36-.09-.6-.14-.77-.17a6.5,6.5,0,0,0-.8-.49c-.47-.26-1.49-1.47-1-.85-1.4-2-.76-.94-1.34-3.24-.06-.33-.11-.57-.14-.74-.05-.6-.09-1.2-.11-1.81a49.71,49.71,0,0,1,.17-5.59c.49-7.5,1.32-14.48.17-22-1.25-8.21-7-15.36-14.2-19.23-7.94-4.29-16.07-4.62-23.93-2.75Q70.2,40.48,80.91,13C83,7.81,78.71,1.76,73.73.39c-5.83-1.61-10.61,2-12.65,7.18A848.85,848.85,0,0,1,1.5,129.89c-6.75,11.45,11,21.79,17.76,10.38q12.47-21.15,23.68-43c6.57-4.6,13.15-9.21,21.18-10.7,1.78-.34,4.64.21,7.15,1-.1,0,.25.17,1,.56.49.26.74.38.87.43a4,4,0,0,0,.71.76c.87.9,1.06,1.11.57.64,0,0,.76,1.66.92,1.88a15.24,15.24,0,0,0,.6,2.4,42.62,42.62,0,0,1,.08,5.3c-.11,3.46-.55,6.91-.84,10.36-.68,7.88-.11,16,4.14,22.9,10,16.28,32.43,13.89,46.11,4.21,14.18-10,22.26-25.6,29.47-40.93C157.33,91.06,156.41,85.09,151.26,82.07Z"/></g></g></svg>