<svg xmlns="http://www.w3.org/2000/svg" viewBox="0 0 156.89 156.79"><defs><style>.cls-1{fill:#fff;}</style></defs><title>na</title><g id="Warstwa_2" data-name="Warstwa 2"><g id="Layer_1" data-name="Layer 1"><path class="cls-1" d="M93.53,31c-1.38-5-7.42-9.21-12.65-7.18a142,142,0,0,1-18.44,5.72c2.12-5.48,4.15-11,6-16.55,1.82-5.31-2-11.24-7.18-12.65C55.65-1.18,50.47,2.26,48.66,7.56Q44.25,20.45,39,33A120.87,120.87,0,0,1,16,32c-5.54-.77-11,1.26-12.65,7.18C2,44.08,5,51.09,10.56,51.86a164.55,164.55,0,0,0,19.15,1.55A418.8,418.8,0,0,1,1.46,102.66C-1.66,107.33.53,114,5.15,116.73c5,3,11,1,14.07-3.69A426.49,426.49,0,0,0,53,52.15a143.47,143.47,0,0,0,33.36-8.46C91.57,41.67,95.13,36.86,93.53,31Z"/><path class="cls-1" d="M144.94,129.35a78.08,78.08,0,0,0-29.84-24.78c.31-13-1.43-26.47-1-39.21.4-13.27-20.17-13.24-20.56,0-.32,10.54.93,21,1.31,31.53,0,.44,0,.88,0,1.33a80,80,0,0,0-8.1-1c-10.63-.73-22.38,1.32-31.24,7.52-10.07,7-15.31,19.36-11.07,31.3a31.49,31.49,0,0,0,26.9,20.65c12.14.88,23.92-5.32,31.58-14.5a48.53,48.53,0,0,0,9-16.34,54,54,0,0,1,15.31,13.86c3.3,4.52,8.87,6.74,14.07,3.69C145.72,140.81,148.25,133.89,144.94,129.35Zm-53.32-7.68c-2.82,6.63-7.71,12-14.3,14a10.67,10.67,0,0,1-7.58-.2c-3-1.43-4.49-3.19-6.06-6.31.52,1,0-1.83-.2-1.86,0-.3,0-.49,0-.62.28-.78.92-2.59.36-1.43,1-2,.78-1.47,2.39-3-.69.42-.51.29.54-.41a25,25,0,0,1,2.93-1.69,35.15,35.15,0,0,1,8.6-2.34c-.83.14-.6.14.68,0s2.58-.13,3.87-.14a57.73,57.73,0,0,1,6.44.31c1.16.1,2.31.27,3.47.47A30.23,30.23,0,0,1,91.62,121.67Z"/><path class="cls-1" d="M151.84,45.3,114.43,25.84c-5-2.59-11.14-1.32-14.07,3.68C97.63,34.18,99.08,41,104.05,43.6l37.41,19.46c5,2.59,11.13,1.32,14.07-3.69C158.26,54.72,156.81,47.89,151.84,45.3Z"/></g></g></svg>