<svg xmlns="http://www.w3.org/2000/svg" viewBox="0 0 167.08 159.59"><defs><style>.cls-1{fill:#fff;}</style></defs><title>ne</title><g id="Warstwa_2" data-name="Warstwa 2"><g id="Layer_1" data-name="Layer 1"><path class="cls-1" d="M165.54,126.86a183.85,183.85,0,0,0-13.33-16.07c.38-1.15.74-2.29,1.07-3.41,7.21-24.73-1.36-52.89-26.57-62.75-11.58-4.53-25.37-1.77-36.47,2.72C79.37,51.74,69.35,57.91,59.81,64.67c.12-2.68.24-5.36.38-8,1.88-.4,3.75-.8,5.62-1.22C71.29,54.19,74.43,48,73,42.77a10.34,10.34,0,0,0-11.47-7.38q.9-12.57,2.11-25.11C64.18,4.69,58.56,0,53.36,0c-6,0-9.75,4.71-10.29,10.28q-1.41,14.66-2.41,29.34Q26.29,42.3,11.79,44.13C6.23,44.82,1.5,48.28,1.5,54.41c0,5.08,4.71,11,10.29,10.29Q25.65,63,39.42,60.62,38.91,71,38.6,81.39C26.22,92.1,14.58,103.68,3,115.27c-9.38,9.4,5.17,23.94,14.54,14.54,6.78-6.8,13.57-13.62,20.54-20.26q-.09,20.06.55,40.11c.43,13.22,21,13.27,20.57,0q-1-29.29-.32-58.59c4.37-3.55,8.85-7,13.48-10.21,9.75-6.79,20.22-13.33,31.73-16.57,10.14-2.86,19-.8,25.62,7,5.56,6.56,6.39,17.1,4.78,26-10.48-5-23-5.92-33.71-1.24s-17,15.41-18,26.75c-1,12.37,8.47,22.5,19.66,25.86,17.24,5.17,30.84-4.72,40-18.17,1.88,2.29,3.64,4.58,5.28,6.73,3.4,4.45,8.79,6.79,14.07,3.69C166.24,138.36,169,131.33,165.54,126.86Zm-45.42-1.14c-3.87,3-6.08,3.59-10.37,3.47a8.13,8.13,0,0,1-3.45-1,6.79,6.79,0,0,0-.83-.38c-.1-.11-.29-.31-.63-.62s-.87-1.21-1-1.22c-.11-.48-.31-1.42-.41-1.66,0-.89,0-2.35-.16-.91a9.12,9.12,0,0,1,1.61-4.64,10.52,10.52,0,0,1,7.66-5.18,23.47,23.47,0,0,1,14.94,3.2A30.2,30.2,0,0,1,120.12,125.72Z"/></g></g></svg>