<svg xmlns="http://www.w3.org/2000/svg" viewBox="0 0 153.22 144.09"><defs><style>.cls-1{fill:#fff;}</style></defs><title>ni</title><g id="Warstwa_2" data-name="Warstwa 2"><g id="Layer_1" data-name="Layer 1"><path class="cls-1" d="M35.88,115.48a10.17,10.17,0,0,0-9.91,8c-2.38-2.07-3.24-5.29-3.64-8.62C21,103.61,20.82,92.06,20.59,80.73c-.44-22.68.79-45.45,5.08-67.74C26.73,7.49,24.21,1.91,18.49.34,13.41-1.06,6.9,2,5.84,7.52.15,37.1-.85,67.19.59,97.22c.67,14,0,30.7,11.1,41.07,12.42,11.59,33.31,5,34.47-12.52C46.54,120.17,41.2,115.48,35.88,115.48Z"/><path class="cls-1" d="M143.28,120.88c-15.82-.3-31.67-.64-46.75-6-10.37-3.68-21.35-11.88-25.42-22-2.1-5.19-6.77-8.8-12.65-7.18-4.93,1.36-9.29,7.45-7.18,12.65,6.3,15.6,18.46,27.16,33.81,33.9,18.33,8,38.46,8.78,58.19,9.14C156.55,141.69,156.53,121.12,143.28,120.88Z"/><path class="cls-1" d="M132.31,22.69q-33.94-2.24-68-1.91c-13.26.12-13.27,20.69,0,20.57q34-.33,68,1.91c5.6.36,10.29-5,10.29-10.29C142.6,27.09,137.91,23.06,132.31,22.69Z"/></g></g></svg>