<svg xmlns="http://www.w3.org/2000/svg" viewBox="0 0 155.34 128.9"><defs><style>.cls-1{fill:#fff;}</style></defs><title>no</title><g id="Warstwa_2" data-name="Warstwa 2"><g id="Layer_1" data-name="Layer 1"><path class="cls-1" d="M148.56,32.14C136.9,10,109.66,1.21,86.26.1,62.11-1,37.28,7.81,20.51,25.44A74.77,74.77,0,0,0,0,74c-.67,18.94,9.78,40.7,31.69,39C52.84,111.42,65,90.66,72.64,73.26A138.29,138.29,0,0,0,84.43,20.43c13.85.1,27.95,3.85,38.12,12.21C136.79,44.35,138,64.47,129.76,80c-8.92,16.91-28.84,26.37-46.83,28.26-5.57.58-10.29,4.23-10.29,10.28,0,5.16,4.7,10.87,10.29,10.29,23.94-2.52,45.65-12.74,60.48-32.06C157.33,78.66,159.11,52.19,148.56,32.14Zm-104.19,50a27.71,27.71,0,0,1-10.26,9.48,11,11,0,0,1-5,.92,5.58,5.58,0,0,1-4-1.67C19.55,85.85,19.93,74,21.43,66.4c4.08-20.65,20.14-36.47,40-42.68l2.31-.67A116.12,116.12,0,0,1,44.37,82.18Z"/></g></g></svg>