<svg xmlns="http://www.w3.org/2000/svg" viewBox="0 0 172.16 150.54"><defs><style>.cls-1{fill:#fff;}</style></defs><title>nu</title><g id="Warstwa_2" data-name="Warstwa 2"><g id="Layer_1" data-name="Layer 1"><path class="cls-1" d="M171.91,137.55A59,59,0,0,0,159,111.4,61.89,61.89,0,0,0,150,57.29c-11-14.82-27.63-23.84-45.48-26.93.84-6.78,1.35-13.61,1.53-20.42.36-13.27-20.21-13.24-20.57,0a184.32,184.32,0,0,1-1.57,19.5c-17.1,1.5-33.24,8.73-47,18.9A142.74,142.74,0,0,1,30,24.84c-1.09-5.5-7.55-8.59-12.65-7.18-5.69,1.56-8.27,7.15-7.18,12.65A156.58,156.58,0,0,0,20.47,62.87c-15.1,16.18-26.49,38.23-17,60,5.06,11.61,15.45,18.47,27.88,19.6,12.78,1.17,25.17-6.65,33.41-15.68.88-1,1.74-2,2.58-3,4.38,3.34,10.1,4.1,14.35-.15,3.61-3.61,4.41-11.06,0-14.54-.9-.71-1.8-1.44-2.68-2.17a214.5,214.5,0,0,0,15.8-35.31A188.44,188.44,0,0,0,101,50.46c15.57,2.51,30,11.95,36.84,26.6a39.41,39.41,0,0,1,3.35,19.87,56.39,56.39,0,0,0-13.32-5.09c-11.3-2.73-24-.9-32.58,7.33-9.82,9.38-8.57,25.08-.68,35.09s22.15,12.61,34,9.27a41.81,41.81,0,0,0,19.11-12.3A41.72,41.72,0,0,1,152.07,143c1.12,5.5,7.53,8.59,12.65,7.18C170.4,148.64,173,143,171.91,137.55ZM79.66,51A178.77,178.77,0,0,1,69.25,80.43c-1.76,3.86-3.65,7.78-5.69,11.63A142.72,142.72,0,0,1,45.77,67.28,77.65,77.65,0,0,1,79.66,51ZM28,120.89a13.74,13.74,0,0,1-6.14-7.08c-1.79-4.62-1.94-8.06-.81-13.07C22.55,94,26.27,87.9,30.7,82.43A159.38,159.38,0,0,0,52.06,110c-.31.38-.6.78-.91,1.16C45.64,117.78,36,124.88,28,120.89Zm99.85.45c-6.33,4.23-14.84,4.52-18.39-1.57a5.65,5.65,0,0,1,.34-6.06,6.39,6.39,0,0,1,3-1.77c-.11,0,2.76-.6,2.11-.57,1-.11,2.12-.13,3.19-.14a28.3,28.3,0,0,1,15.6,4.82A28,28,0,0,1,127.83,121.34Z"/></g></g></svg>