<svg xmlns="http://www.w3.org/2000/svg" viewBox="0 0 153.62 152.34"><defs><style>.cls-1{fill:#fff;}</style></defs><title>o</title><g id="Warstwa_2" data-name="Warstwa 2"><g id="Layer_1" data-name="Layer 1"><path class="cls-1" d="M145.69,101.11c-3.24-11.83-12.25-21.42-22.5-27.67C105,62.31,81.11,62.78,60.44,68.5l-.69-18.77q15-1.44,29.82-4.25c5.52-1,8.58-7.59,7.19-12.65-1.58-5.73-7.15-8.22-12.66-7.18Q71.62,28,59,29.23q-.34-9.64-.7-19.3c-.48-13.22-21-13.26-20.57,0l.75,20.61q-14.08.41-28.2-.47C4.68,29.73,0,35,0,40.35c0,5.87,4.69,9.94,10.28,10.29q14.49.88,28.95.41.47,12.56.92,25.11C20.85,85.43.27,101.34,1.73,124.22A30,30,0,0,0,11,144.61c6.56,6,15.47,7.7,24.08,7.73,7.93,0,17-1.35,22.28-7.93,5.66-7.09,5.24-15.52,4.93-24.09q-.55-15.3-1.12-30.61c18.88-6.15,47.1-8.59,60.49,9,6.28,8.26,7.78,21.33-1,27.71-10.6,7.72-23.68,2.11-31.88-7.12-3.73-4.19-10.76-3.79-14.55,0-4.13,4.14-3.72,10.36,0,14.54a49.32,49.32,0,0,0,33.08,16.72c12.63,1,25.6-5.21,33-15.34C147.46,125.5,148.83,112.54,145.69,101.11ZM41.27,131.34c.83-.46-1.51.19-1,.17a50.77,50.77,0,0,1-8,.21,14.41,14.41,0,0,1-5.54-1.1c-2.19-1-2.67-1.88-3.73-3.83s-1-6.13-.13-9.14c1.3-4.64,5.05-8.39,8.51-11.57A63,63,0,0,1,41,98.91q.3,8.16.59,16.31c.13,3.4.25,6.8.38,10.19,0,1.24,0,2.47,0,3.7,0,.5-.28,2.19-.12,1.83C41.86,130.94,44.49,129.54,41.27,131.34Z"/><path class="cls-1" d="M150.66,43.24A117.49,117.49,0,0,0,124,21.63c-11.43-6.8-21.76,11-10.38,17.76a98.43,98.43,0,0,1,22.47,18.4c3.78,4.13,10.71,3.83,14.54,0C154.76,53.69,154.44,47.37,150.66,43.24Z"/></g></g></svg>