<svg xmlns="http://www.w3.org/2000/svg" viewBox="0 0 120.29 152.18"><defs><style>.cls-1{fill:#fff;}</style></defs><title>ra</title><g id="Warstwa_2" data-name="Warstwa 2"><g id="Layer_1" data-name="Layer 1"><path class="cls-1" d="M79.87,14.09A367.23,367.23,0,0,1,31.71.48C26.43-1.41,20.46,2.56,19.06,7.66,17.49,13.37,21,18.43,26.24,20.31A365.69,365.69,0,0,0,74.4,33.92c5.48,1.16,11.1-1.53,12.65-7.18C88.47,21.59,85.36,15.24,79.87,14.09Z"/><path class="cls-1" d="M113.85,83.47c-12.72-18.14-37.09-19.63-57-16.27A88.83,88.83,0,0,0,24,80.07q2.31-17.83,4.63-35.65c.72-5.57-5.23-10.28-10.28-10.28-6.16,0-9.57,4.72-10.29,10.28Q4,75,.07,105.53c-1.15,8.82,12.09,13.76,17.56,7.27A74.85,74.85,0,0,1,55.69,88.47c12.92-3.5,30.2-4.36,39.62,4.69s3.09,24.41-7.1,31.32c-14.62,9.91-33.66,7.9-50.16,5-5.52-.95-11.06,1.39-12.65,7.19-1.38,5,1.65,11.69,7.18,12.65,22.62,3.9,47.14,5.65,67.11-7.87C118,129.11,127.45,102.86,113.85,83.47Z"/></g></g></svg>