<svg xmlns="http://www.w3.org/2000/svg" viewBox="0 0 161.79 159.27"><defs><style>.cls-1{fill:#fff;}</style></defs><title>re</title><g id="Warstwa_2" data-name="Warstwa 2"><g id="Layer_1" data-name="Layer 1"><path class="cls-1" d="M156.8,114.28c-4.64-2.72-11.51-1.29-14.07,3.69-1.74,3.37-3.8,8-6.65,10a3.71,3.71,0,0,1-2.48.93c-.06-.13-.16-.33-.33-.64.86,1.47-.87-3.58-.68-2.13a41.85,41.85,0,0,1-.18-6.9c.2-5.76.86-11.54,1.3-17.29.86-11.09,2.87-22.72,2-33.84-.43-5.9-2.2-11.68-6.2-16.16-4.38-4.91-9.92-6.74-16.23-7.59-10.2-1.36-21.18,4.41-30,8.68A188.27,188.27,0,0,0,59.11,67.33l-.21-7.67,1.69-.15c5.58-.49,10.28-4.32,10.28-10.29,0-5.24-4.69-10.76-10.28-10.28l-2.23.2-.78-29.2C57.23-3.3,36.66-3.33,37,9.94l.84,31.49q-11.14,1.49-22.21,3.46c-5.52,1-8.56,7.62-7.18,12.65,1.59,5.77,7.14,8.17,12.65,7.18Q29.74,63.18,38.4,62l.54,20.49c-12.36,10.06-24.08,20.9-35.73,31.76-9.73,9.05,4.85,23.57,14.54,14.54,7.23-6.73,14.47-13.48,21.89-20l1.08,40.56c.35,13.24,20.92,13.28,20.56,0q-.75-28.59-1.52-57.19c2.51-1.91,5-3.78,7.62-5.59A196.85,196.85,0,0,1,95,70.16a66.26,66.26,0,0,1,12.61-4.86,14.32,14.32,0,0,1,5.68-.37c-.6,0,1,1,.85.57,1.55,2.29,1.23,6.2,1,10.12-.36,6-.92,12-1.38,18-.85,11-3.08,22.72-1.61,33.69,1.61,12,8.92,22.19,22.08,22.22,12.82,0,21-10.91,26.23-21.14C163.05,123.36,161.82,117.22,156.8,114.28Z"/></g></g></svg>