<svg xmlns="http://www.w3.org/2000/svg" viewBox="0 0 102.17 154.24"><defs><style>.cls-1{fill:#fff;}</style></defs><title>ri</title><g id="Warstwa_2" data-name="Warstwa 2"><g id="Layer_1" data-name="Layer 1"><path class="cls-1" d="M41.25,69.88c-5.22-3-10.76-.81-14.07,3.69a64,64,0,0,1-6,6.87c0-.3,0-.59-.05-.87-.34-4.33-.51-8.66-.6-13A210.09,210.09,0,0,1,25.77,16C27,10.56,24.17,4.91,18.58,3.37,13.37,1.93,7.17,5.08,5.93,10.55A236.61,236.61,0,0,0,.71,81.19C1.1,86.11,1.13,91.64,3,96.26c2.78,6.9,9,11.49,16.72,9.89,5.63-1.18,10.16-5.61,14.25-9.4a89.38,89.38,0,0,0,11-12.8C48.27,79.43,45.71,72.49,41.25,69.88Z"/><path class="cls-1" d="M94.86,7.52C93.8,2,87.29-1.06,82.21.34,76.49,1.91,74,7.49,75,13c4.92,25.58,10,52.11,3.37,77.87C73,112.11,57.84,130.55,35.74,134.21c-5.54.92-8.55,7.68-7.18,12.66,1.6,5.82,7.12,8.09,12.65,7.18,27.72-4.59,47.45-27.89,55.78-53.49C106.82,70.36,100.69,37.83,94.86,7.52Z"/></g></g></svg>