<svg xmlns="http://www.w3.org/2000/svg" viewBox="0 0 137.49 149.85"><defs><style>.cls-1{fill:#fff;}</style></defs><title>ro</title><g id="Warstwa_2" data-name="Warstwa 2"><g id="Layer_1" data-name="Layer 1"><path class="cls-1" d="M131.73,74.43C119.26,52.54,90,51.37,68.33,56.52c-1.22.29-2.43.61-3.64.95q19.19-20,38.38-40.07c7.46-7.8-.13-19.08-10-17.19C69.87,4.63,46.58,8.83,22.88,6.76c-5.59-.49-10.29,5.05-10.29,10.29,0,6,4.71,9.79,10.29,10.28,14.7,1.28,29.36.23,43.93-1.8L3,92.16a10.42,10.42,0,0,0-1.61,12.46c2.63,4.48,9.52,7,14.07,3.69C31.11,97,47.26,85.25,65.63,78.77c14.74-5.2,35.78-8.43,47.17,4.25,1.76,2,2.85,4.94,3.67,8.16a28.64,28.64,0,0,1,.38,9c-1.28,8.16-5.64,14.06-12.13,19.45-14.28,11.87-36.36,11-53.89,8.08-5.52-.94-11,1.38-12.65,7.18-1.37,5,1.65,11.71,7.18,12.65,25.23,4.28,51.93,3.95,72.9-12.57C136.4,120.66,143.47,95,131.73,74.43Z"/></g></g></svg>