<svg xmlns="http://www.w3.org/2000/svg" viewBox="0 0 134.41 150.08"><defs><style>.cls-1{fill:#fff;}</style></defs><title>ru</title><g id="Warstwa_2" data-name="Warstwa 2"><g id="Layer_1" data-name="Layer 1"><path class="cls-1" d="M132.45,85.73c-3.59-11.33-12.54-20.28-23.3-25-16.78-7.38-35.1-5.17-52.12.19L95.4,17.57C101,11.25,97.65-.41,88.13,0L20.62,3C15,3.28,10.34,7.52,10.34,13.31c0,5.42,4.68,10.54,10.28,10.29l43.76-2L2.91,91.08c-8.87,10,4.45,23.07,14.54,14.54,17.47-14.77,40.92-27.14,64-29.05,10.4-.86,20.63,1.48,27.72,9,5.72,6,5.55,14.36,3.26,22a31.1,31.1,0,0,1-5.48,9.83,33,33,0,0,1-10.46,7.79c-4.37-11-10.63-21.08-21.24-27.21A30.45,30.45,0,0,0,39,101.69c-4.79,4.43-6.85,10.43-7.63,16.7-.85,6.84,3,13.44,7,18.54,7.89,10,23,12.42,34.87,13C96,151.2,120.63,140.51,130,118.8,134.57,108.37,135.93,96.71,132.45,85.73Zm-65.53,43c-4.84-.82-9.93-2.29-13.14-5.45-1.29-1.27-1.5-2-2-4a7,7,0,0,1,.92-2.18c5.21-6.34,14.71-1.6,19.54,5.29a41,41,0,0,1,4,7.16A57.4,57.4,0,0,1,66.92,128.76Z"/></g></g></svg>