<svg xmlns="http://www.w3.org/2000/svg" viewBox="0 0 127.55 158.6"><defs><style>.cls-1{fill:#fff;}</style></defs><title>sa</title><g id="Warstwa_2" data-name="Warstwa 2"><g id="Layer_1" data-name="Layer 1"><path class="cls-1" d="M127.16,33.61c-1.39-5.05-7.39-9.13-12.65-7.18a210,210,0,0,1-37.13,10A204,204,0,0,1,68.44,7.53C67.19,2.07,61-1.09,55.79.35A10.44,10.44,0,0,0,48.61,13a214.57,214.57,0,0,0,7.72,26A194.88,194.88,0,0,1,13,37.08c-5.54-.88-11,1.33-12.65,7.18C-1,49.2,2,56,7.51,56.91a229.65,229.65,0,0,0,57.23,1.87,222.06,222.06,0,0,0,14,24.78c-27-3.74-57.72.85-60.31,30.59-1.47,17,9.43,32,24.42,38.92,17.93,8.31,37.36,5.62,56.18,2.48,5.54-.92,8.55-7.67,7.18-12.65-1.6-5.82-7.12-8.11-12.65-7.18-13.26,2.21-26.53,4.16-39.18,0a27.88,27.88,0,0,1-12.31-8.58c-2.51-2.93-3.29-7.52-3.17-11.5,0,.59.4-2.28.38-2.19a7.77,7.77,0,0,1,1.21-2.93,11.25,11.25,0,0,1,4.34-4c4.46-2.66,10.11-3.08,15.26-3.32a98,98,0,0,1,41.78,7.6c4.21,1.71,9.49-1.11,11.62-4.73,2.46-4.2,1.45-9-1.61-12.46a195.21,195.21,0,0,1-25.74-37.9A215.92,215.92,0,0,0,120,46.26C125.23,44.31,128.75,39.37,127.16,33.61Z"/></g></g></svg>