<svg xmlns="http://www.w3.org/2000/svg" viewBox="0 0 165.31 141.73"><defs><style>.cls-1{fill:#fff;}</style></defs><title>se</title><g id="Warstwa_2" data-name="Warstwa 2"><g id="Layer_1" data-name="Layer 1"><path class="cls-1" d="M137.05,119c-15-.61-29.76,3.09-44.75,2.24a37.65,37.65,0,0,1-15-3.94c-5.39-2.84-8.58-7.57-11.16-13C63.45,98.65,62.31,92,61.15,86a170.52,170.52,0,0,1-2.53-23.1c-.82-15.78,0-31.6.74-47.37C59.63,9.88,54.48,5.2,49.08,5.2c-5.81,0-10,4.69-10.29,10.28C38,32.35,37.24,49.23,38.24,66.1s3.4,34.39,10.71,49.78c6.88,14.49,21.12,23,36.63,25.15,17.27,2.39,34.2-2.2,51.47-1.49,5.6.23,10.28-4.85,10.28-10.29A10.41,10.41,0,0,0,137.05,119Z"/><path class="cls-1" d="M155.36,40.81q-15.09,0-30.19.18-.36-15.38-1.77-30.71C122.89,4.7,119.1,0,113.11,0c-5.22,0-10.79,4.69-10.28,10.28.94,10.33,1.51,20.67,1.77,31q-47.19.91-94.32,3.53C4.69,45.15,0,49.28,0,55.12c0,5.37,4.68,10.6,10.28,10.28q47.19-2.64,94.45-3.53c0,5.54,0,11.11-1.78,16.39a5,5,0,0,1-2.69,2.87c.83-.48-.62-.21-1.27,0-4.17-3-9.69-3.14-13.58.74-3.73,3.74-4.26,10.9,0,14.55,7.69,6.58,17.51,6.88,26.19,1.9,9.11-5.23,12.12-15.59,13.24-25.32.43-3.78.62-7.61.68-11.46q14.91-.16,29.84-.18C168.63,61.39,168.62,40.82,155.36,40.81Z"/></g></g></svg>