<svg xmlns="http://www.w3.org/2000/svg" viewBox="0 0 116.77 143.55"><defs><style>.cls-1{fill:#fff;}</style></defs><title>shi</title><g id="Warstwa_2" data-name="Warstwa 2"><g id="Layer_1" data-name="Layer 1"><path class="cls-1" d="M111.55,93.64c-5.26-3.08-10.71-.78-14.07,3.69-8.4,11.19-20.86,19.14-34.08,23.1-11.93,3.57-27.89,4.75-36.74-3.85-4.17-4-5-11.41-5.42-17.42-.6-9.61-.5-19.29-.16-28.91A320.18,320.18,0,0,1,28.43,13c1.2-5.47-1.57-11.1-7.19-12.65C16.06-1.08,9.79,2.05,8.59,7.53a360.21,360.21,0,0,0-8.19,66C-.19,93-2.16,118.61,13.9,132.78c14.78,13,37.08,12.51,55,7.48,18.76-5.27,34.76-17.09,46.37-32.55C118.62,103.22,116,96.23,111.55,93.64Z"/></g></g></svg>