<svg xmlns="http://www.w3.org/2000/svg" viewBox="0 0 151.87 150.38"><defs><style>.cls-1{fill:#fff;}</style></defs><title>so</title><g id="Warstwa_2" data-name="Warstwa 2"><g id="Layer_1" data-name="Layer 1"><path class="cls-1" d="M141.93,53.12l-46.09.56a8.87,8.87,0,0,0-2.18,0L66.85,54l45.72-36.47c7.27-5.81,1-17.63-7.28-17.56L38.51.54c-13.26.11-13.27,20.68,0,20.57l37.21-.3L33.57,54.43,10,54.72c-13.26.16-13.27,20.73,0,20.57l53.89-.65a71.75,71.75,0,0,0-4.68,5.66A47.18,47.18,0,0,0,51.52,120c3.78,13.65,15.47,22.83,28.25,27.5,14,5.1,30,2.55,43.87-1.62,12.67-3.81,7.26-23.67-5.47-19.83-15.49,4.67-40.66,7.23-46.81-11.52-5.83-17.76,12-32.12,26.18-40.34l44.39-.54C155.18,73.53,155.2,53,141.93,53.12Z"/></g></g></svg>