<svg xmlns="http://www.w3.org/2000/svg" viewBox="0 0 163.5 165.86"><defs><style>.cls-1{fill:#fff;}</style></defs><title>su</title><g id="Warstwa_2" data-name="Warstwa 2"><g id="Layer_1" data-name="Layer 1"><path class="cls-1" d="M153.22,28.38q-23.76,2.52-47.63,3.37c-.76-8.13-2-16.23-3.52-24.23C101,2,94.51-1.06,89.41.34,83.71,1.91,81.16,7.49,82.23,13c1.25,6.37,2.16,12.77,2.78,19.2a688.53,688.53,0,0,1-74.73-3.54C4.7,28.08,0,33.76,0,38.94c0,6,4.71,9.71,10.28,10.28A688.9,688.9,0,0,0,86,52.75c0,4.54-.08,9.08-.37,13.57a42.69,42.69,0,0,0-15.5-4.72c-12-1.29-24.61,6.22-30.27,16.58-6.26,11.45-3,25,5.1,34.48s23.45,11.82,34.71,7.26A34.22,34.22,0,0,0,86.73,116c-2.94,15.1-14,28.58-30.24,29.28a10.41,10.41,0,0,0-10.28,10.28c0,5.43,4.68,10.53,10.28,10.29,26.14-1.13,46.51-21.63,50.63-47,1.77-10.91.91-22.14-3.38-32.25,2.38-10.87,2.7-22.54,2.8-33.45,0-.3,0-.6,0-.89q23.37-.88,46.68-3.34c5.57-.59,10.28-4.23,10.28-10.29C163.5,33.5,158.81,27.79,153.22,28.38ZM69.38,101.59c-7.91.81-13.17-5.62-12.29-11,1.24-7.58,9.63-9.7,16.5-7.49a17,17,0,0,1,8.11,6.08C79.55,95.29,75.79,100.93,69.38,101.59Z"/></g></g></svg>