<svg xmlns="http://www.w3.org/2000/svg" viewBox="0 0 151.1 153.46"><defs><style>.cls-1{fill:#fff;}</style></defs><title>ta</title><g id="Warstwa_2" data-name="Warstwa 2"><g id="Layer_1" data-name="Layer 1"><path class="cls-1" d="M94.4,31.82C93,26.87,87,22.56,81.75,24.64a157.61,157.61,0,0,1-20.43,6.57Q63.21,22.14,64.78,13C65.73,7.46,63.4,1.92,57.6.33,52.6-1,45.89,2,45,7.51Q42.58,21.31,39.51,35a155.06,155.06,0,0,1-29.23.15C4.69,34.63,0,40.19,0,45.42c0,6,4.7,9.78,10.28,10.28a168,168,0,0,0,24.06.4,524.59,524.59,0,0,1-29.19,82c-2.31,5.11-1.51,11,3.69,14.07,4.46,2.61,11.76,1.42,14.07-3.69a561.24,561.24,0,0,0,33.3-95,167.2,167.2,0,0,0,31-9C92.42,42.39,96,37.68,94.4,31.82Z"/><path class="cls-1" d="M141.15,54.62,86.3,54.9C73,55,73,75.54,86.3,75.47l54.85-.28C154.41,75.12,154.42,54.55,141.15,54.62Z"/><path class="cls-1" d="M138.19,127.18c-13.69,3.25-27.89,6.72-41.85,3-10.9-2.88-19.12-11.6-18.3-22.43.43-5.6-5-10.28-10.28-10.28-5.93,0-9.86,4.69-10.28,10.28C56,127,70.1,142,86.87,148.72c18.06,7.24,38.67,2.59,56.79-1.71C156.56,144,151.09,124.12,138.19,127.18Z"/></g></g></svg>