<svg xmlns="http://www.w3.org/2000/svg" viewBox="0 0 152.17 131.1"><defs><style>.cls-1{fill:#fff;}</style></defs><title>te</title><g id="Warstwa_2" data-name="Warstwa 2"><g id="Layer_1" data-name="Layer 1"><path class="cls-1" d="M151.85,7.35c-1.62-5.89-7.11-8-12.65-7.18A708.43,708.43,0,0,1,9.93,7.07c-13.27-.48-13.22,20.09,0,20.57q29.66,1.08,59.25-.3a81,81,0,0,0-6.82,8.09c-10,13.66-12.8,30.74-10.45,47.19,4.78,33.44,40.61,56.4,72.87,45.93,5.33-1.73,8.72-7.06,7.18-12.65-1.43-5.22-7.31-8.91-12.65-7.18-10,3.26-20.18,2-29.52-3.3-9.93-5.63-15.65-15.74-17.83-27-4.32-22.37,12.41-43.62,33.12-50.3a11.13,11.13,0,0,0,5.5-3.9q17.08-1.74,34.09-4.26C150.22,19.18,153.2,12.25,151.85,7.35Z"/></g></g></svg>