<svg xmlns="http://www.w3.org/2000/svg" viewBox="0 0 114.39 151.51"><defs><style>.cls-1{fill:#fff;}</style></defs><title>to</title><g id="Warstwa_2" data-name="Warstwa 2"><g id="Layer_1" data-name="Layer 1"><path class="cls-1" d="M114.05,42.56c-1.57-5.73-7.14-8.21-12.65-7.18-17.25,3.24-34.46,6.75-50.65,13.4a95.84,95.84,0,0,1-4.2-38.5C47,4.69,41.5,0,36.27,0c-6,0-9.8,4.7-10.29,10.28a112.31,112.31,0,0,0,6.48,47.88C17.61,67.7,4.58,81.8.88,99.23a36.61,36.61,0,0,0,7.08,31c6.33,7.93,15.65,12.57,25,15.89,21,7.44,45,7,66-.09,5.3-1.79,8.73-7,7.18-12.65-1.42-5.17-7.34-9-12.65-7.18a85.05,85.05,0,0,1-50.62,1.48c-7-2-13.71-4.81-18.73-10-4.48-4.67-4.13-11-2.45-16.8C26,86,41.07,76.05,54.08,69.66c16.37-8,35-11.11,52.79-14.45C112.39,54.18,115.45,47.62,114.05,42.56Z"/></g></g></svg>