<svg xmlns="http://www.w3.org/2000/svg" viewBox="0 0 158.34 104.44"><defs><style>.cls-1{fill:#fff;}</style></defs><title>tsu</title><g id="Warstwa_2" data-name="Warstwa 2"><g id="Layer_1" data-name="Layer 1"><path class="cls-1" d="M154.13,28.88C143.35,5.33,114,0,91,0,63,.06,34.87,3.58,7.52,9.41,2,10.58-1.08,16.9.34,22.06,1.89,27.7,7.51,30.41,13,29.24a398.36,398.36,0,0,1,70-8.51c17.72-.59,40.91-.71,51.53,15.24,9.63,14.46-1.1,32.19-15.1,40.25C100.78,87,77.36,84.3,56.89,82.55c-5.6-.48-10.29,5-10.29,10.28,0,6,4.7,9.8,10.29,10.28,25.61,2.2,52.47,3.35,75.29-10.53C153.83,79.41,165,52.58,154.13,28.88Z"/></g></g></svg>