<svg xmlns="http://www.w3.org/2000/svg" viewBox="0 0 114.5 167.76"><defs><style>.cls-1{fill:#fff;}</style></defs><title>u</title><g id="Warstwa_2" data-name="Warstwa 2"><g id="Layer_1" data-name="Layer 1"><path class="cls-1" d="M88.22,11.64a99.9,99.9,0,0,1-51-10.35C32.18-1.24,26.07-.07,23.12,5c-2.71,4.62-1.31,11.54,3.69,14.07A120.79,120.79,0,0,0,88.22,32.21c5.59-.32,10.28-4.44,10.28-10.28C98.5,16.56,93.82,11.32,88.22,11.64Z"/><path class="cls-1" d="M113.43,88.69c-3.63-19.92-19.3-34-38.91-37.34-22-3.75-46.07-.1-67.29,6.19C-5.46,61.3,0,81.15,12.7,77.37a154,154,0,0,1,52.2-6.56c7,.39,13.57,2.1,19.36,6.07,4.54,3.12,7.31,9.28,8.8,14.87,3.25,12.21-.86,27.45-9.33,37.88-9.65,11.88-24.22,18-39.4,17.53-13.28-.43-13.23,20.14,0,20.57a68.51,68.51,0,0,0,54-23.56A66.93,66.93,0,0,0,113.43,88.69Z"/></g></g></svg>