<svg xmlns="http://www.w3.org/2000/svg" viewBox="0 0 166.91 160.54"><defs><style>.cls-1{fill:#fff;}</style></defs><title>wa</title><g id="Warstwa_2" data-name="Warstwa 2"><g id="Layer_1" data-name="Layer 1"><path class="cls-1" d="M141.72,53.6C118,41.23,91.12,48.74,68.62,60Q63.1,62.79,57.79,66q.36-6,.8-12.07L64,52.53c12.17-3.11,7.92-21-3.48-20.16Q61.58,21.32,63,10.28C63.74,4.71,57.79,0,52.73,0c-6.15,0-9.56,4.73-10.28,10.28Q40.68,23.9,39.39,37.57L11,44.83C-1.89,48.12,3.56,68,16.42,64.67l21.23-5.42c-.48,7.2-.88,14.41-1.16,21.63A188.76,188.76,0,0,0,12.65,104c-4,4.57-7.63,9.38-11.15,14.28-3.27,4.56-.8,11.44,3.69,14.07,5.18,3,10.81.86,14.07-3.69a160.83,160.83,0,0,1,16.63-19.58q-.07,20.6.91,41.19c.27,5.59,4.47,10.28,10.29,10.28,5.4,0,10.55-4.68,10.28-10.28q-1.42-29.47-.65-58.95Q59.89,89,63.14,86.9c16.28-10.63,38.22-22,57.53-18.83,8.65,1.43,15.58,5,21.19,11.55,5,5.78,5.39,14.58,3.64,21.73-4.3,17.64-23.11,26.23-40.35,26.1-13.27-.11-13.26,20.46,0,20.57,24.41.19,48.59-12,58.15-35.25A46.25,46.25,0,0,0,141.72,53.6Z"/></g></g></svg>