<svg xmlns="http://www.w3.org/2000/svg" viewBox="0 0 155.47 156.96"><defs><style>.cls-1{fill:#fff;}</style></defs><title>we</title><g id="Warstwa_2" data-name="Warstwa 2"><g id="Layer_1" data-name="Layer 1"><path class="cls-1" d="M133.53,109.14c-17.84-4.21-36.67,1.32-51.1,12.31A27.16,27.16,0,0,0,71,112.75l2.09-1.94a76.5,76.5,0,0,0,16.34-.92,44.68,44.68,0,0,0,31.05-20.32c6.78-10.86,5.76-24.14.12-35.16C113,39.5,97.17,32.59,81.26,32.22l16-14.66C103.86,11.49,98.75-.21,90,0L40.82,1.18c-13.24.32-13.27,20.89,0,20.57l22-.53L18.51,61.87c-4.13,3.79-3.83,10.71,0,14.55,4.26,4.26,10.21,3.54,14.54,0,15.57-12.71,39.26-32,60.59-20.93a22.15,22.15,0,0,1,8.64,8.23,15.56,15.56,0,0,1,2.33,10.73c-1.51,7.74-8.72,12.67-16.28,14.74a21.91,21.91,0,0,0-2.47-15.71C79.1,61.07,62.78,59,52.25,67.54,41.07,76.6,42,92.26,51.53,102.05c.19.2.39.38.58.57-4.23,3.61-8.58,7-12.73,10.41a308.51,308.51,0,0,1-30.65,21.6c-1.31.82-2.63,1.62-3.95,2.42-9.72,5.88-3.37,22.77,7.92,18.8,14.47-5.1,24.47-16.7,38.05-23.27,4-1.92,9.29-2.54,13-.72,1.76.86,2.25,1.63,3.33,3.74-.37-.68-.35-.44.08.73,0-.9,0-.72,0,.57a4.57,4.57,0,0,0,.06.55,3.87,3.87,0,0,0-.35.55c-6.37,11.72,10.52,21.42,17.76,10.38,8-12.22,22.36-19.55,36.53-19.9a25.83,25.83,0,0,1,9.13,1.06c2.15.59,1.84.6,3.7,1.77-.55-.35.63,1,.57.61l0,.14c-.09.15-.18,1.35.06,1a15,15,0,0,1-1.09,1.85c.56-.88-1.16.72-.69.46-2.72,1.77-5.92,1.36-8.88.63-12.87-3.21-18.33,16.63-5.47,19.83,15,3.75,30.66-1.76,35.86-17.2C159.32,124,146.5,112.19,133.53,109.14Zm-69-24.76a3.42,3.42,0,0,1,1.6-1.6c-.35.19.49.21.79.11.08,0,.14,0,.15,0,.52.61,1.59,1.91,1,1,.22.32.35.52.45.64s0,.16,0,.44-.1.42-.17.71a15.25,15.25,0,0,0-1.21,2l-.39.47a7.33,7.33,0,0,1-1.56-1.53c-.88-1.25-.52-.74-.9-2.2C64.71,86,64.87,83.76,64.57,84.38Z"/></g></g></svg>