<svg xmlns="http://www.w3.org/2000/svg" viewBox="0 0 149.19 146.53"><defs><style>.cls-1{fill:#fff;}</style></defs><title>wi</title><g id="Warstwa_2" data-name="Warstwa 2"><g id="Layer_1" data-name="Layer 1"><path class="cls-1" d="M146.17,81.66c-8.63-23.82-31.78-37.2-55.93-40a75.18,75.18,0,0,0-9-.5c2-9.39,3.53-18.88,5.06-28.33C87.79,3.58,79.77-2.74,71.19,1.19a91.8,91.8,0,0,1-44,7.73c-5.6-.35-10.28,4.94-10.28,10.29,0,5.87,4.69,9.93,10.28,10.28a109.69,109.69,0,0,0,36.27-3.9c-1.1,6.19-2.33,12.36-3.77,18.48A100.18,100.18,0,0,0,23.08,62.64,67.39,67.39,0,0,0,3.92,87.42c-5.67,12.72-6.51,29.51,6.54,38.14,12,7.91,25.71,1.33,34.89-7.52,8.7-8.38,15.48-19.27,20.77-30.05a164.32,164.32,0,0,0,9.94-26c20.15-1.81,40.16,5.13,49.76,24,4,7.89,3.92,17.71.38,25.77-8-8.11-17-15-28.83-16C85.9,94.94,73.79,102.79,71,114c-3.41,13.63,7.5,25.33,19.28,30,11,4.34,22.78,2.68,33.41-1.86C146.38,132.45,154.08,103.5,146.17,81.66Zm-99.74-.24c-4.76,9.19-11.2,20-20.14,25.71a7.43,7.43,0,0,1-2.48,1.21c-.69.23-1.78.29-.89.42-1.59-.22-1.34-.33-2.17-1.75-1.73-3,.77-9.1,2.55-12.64,5.77-11.46,16.49-20.49,29-26.12A130.18,130.18,0,0,1,46.43,81.42ZM102.18,126a23,23,0,0,1-5.35-1.35,16.14,16.14,0,0,1-4.6-3.25c.52.53-1.22-1.89-1.21-1.86.27.48.06-1.78-.21,0,0-.32.07-.54.08-.69a3.54,3.54,0,0,0,.23-.32l.55-.59c-.75.48-.61.38.43-.29a8.25,8.25,0,0,0,.68-.48,7.46,7.46,0,0,0,.81-.25s1.71-.32,2-.44c.74,0,2,0,1.64-.07a13.25,13.25,0,0,1,3.17,1c3.91,1.81,7.13,4.74,10.13,7.82A28.86,28.86,0,0,1,102.18,126Z"/></g></g></svg>