<svg xmlns="http://www.w3.org/2000/svg" viewBox="0 0 141.26 156.6"><defs><style>.cls-1{fill:#fff;}</style></defs><title>wo</title><g id="Warstwa_2" data-name="Warstwa 2"><g id="Layer_1" data-name="Layer 1"><path class="cls-1" d="M140.92,60c-1.57-5.7-7.15-8.26-12.65-7.18A171,171,0,0,0,83.39,68.47,36.53,36.53,0,0,0,66.22,57.68,39.85,39.85,0,0,0,54.08,56q3.75-5.19,7.14-10.6,21.15-.72,42.23-3c5.57-.61,10.28-4.21,10.28-10.28,0-5.14-4.7-10.9-10.28-10.29Q87.9,23.5,72.28,24.33c1.61-3.8,3-7.68,4.29-11.68,4-12.7-15.9-18.09-19.83-5.47a111.74,111.74,0,0,1-7.41,17.91q-19.53.24-39-.87C4.68,23.9,0,29.14,0,34.5c0,5.85,4.69,10,10.28,10.29q13.05.75,26.09.88c-9.13,12.39-19.78,23.81-30.16,35-9.1,9.78,4.62,23.24,14.55,14.54C27.09,89.64,33.39,84.3,40.84,80.3,46.78,77.11,53.27,76,58.48,77a18.36,18.36,0,0,1,6.69,2.42c-3.78,2.63-7.45,5.4-11.05,8.27-7.15,5.69-14,12.19-18.22,20.42-4,7.83-5.25,17.54-2.07,25.88,3.73,9.75,12,15.22,21.8,17.93,9.93,2.76,20.72,3.64,31,4.33a193.48,193.48,0,0,0,31.66-.64c5.58-.55,10.29-4.26,10.29-10.28,0-5.19-4.7-10.84-10.29-10.29a188.73,188.73,0,0,1-52.1-1.85,42.27,42.27,0,0,1-8.67-2.23,10.57,10.57,0,0,1-3.08-2c-.41-.38-1.26-1.84-1.17-1.6a11,11,0,0,1-.29-6.62,18.09,18.09,0,0,1,3.56-7.08,76.25,76.25,0,0,1,14.72-13.8c-.29,2.66-.73,5.3-1.15,7.82-.93,5.53,1.37,11,7.18,12.65,5,1.37,11.72-1.65,12.65-7.18,1.43-8.47,2.73-17.24,1.62-25.78l.18-.09a149.85,149.85,0,0,1,42-14.64C139.24,71.58,142.32,65.1,140.92,60Z"/></g></g></svg>