<svg xmlns="http://www.w3.org/2000/svg" viewBox="0 0 157.88 151.49"><defs><style>.cls-1{fill:#fff;}</style></defs><title>ya</title><g id="Warstwa_2" data-name="Warstwa 2"><g id="Layer_1" data-name="Layer 1"><path class="cls-1" d="M146.66,44.4c-11.51-11.34-27.15-12.95-42.73-11.27A73,73,0,0,1,107.74,13c1.79-5.32-2-11.23-7.18-12.66C94.92-1.18,89.7,2.25,87.91,7.56A89.39,89.39,0,0,0,83.27,36.8c-2.64.6-5.22,1.21-7.71,1.79C68.79,40.17,62.08,42,55.42,44Q51.13,29.32,47.3,14.52C44,1.68,24.15,7.13,27.47,20Q31.42,35.31,35.9,50.5A324,324,0,0,0,5,63.73C0,66.2-1.33,73.23,1.35,77.8c3,5.09,9,6.16,14.07,3.69A278.17,278.17,0,0,1,41.93,70.16q11.91,37.41,26.95,73.76c2.14,5.17,6.74,8.81,12.65,7.18,4.9-1.35,9.33-7.46,7.18-12.65Q73.49,101.64,61.43,63.66c2.46-.73,4.92-1.45,7.39-2.13,9.11-2.51,18.32-4.6,27.59-6.42,8.69-1.7,17.78-3,26.29-.92,6.08,1.49,11.51,5.38,13.53,10.61,2.3,5.93,1.84,12.26-2.14,17a18.84,18.84,0,0,1-6.69,5.12,34,34,0,0,1-4.55,1.3,15,15,0,0,1-4.55-.1c-5.67-1.07-11.09-5.19-13-10.12-2-5.22-6.82-8.79-12.65-7.18-5,1.37-9.23,7.42-7.18,12.65,8.57,21.91,33.5,32,54.38,20.06C161.2,91.35,163.75,61.25,146.66,44.4Z"/></g></g></svg>