<svg xmlns="http://www.w3.org/2000/svg" viewBox="0 0 132.33 151.1"><defs><style>.cls-1{fill:#fff;}</style></defs><title>yo</title><g id="Warstwa_2" data-name="Warstwa 2"><g id="Layer_1" data-name="Layer 1"><path class="cls-1" d="M129.26,123.67A123,123,0,0,0,76.36,93c.36-4.47.56-8.86.69-13,.19-5.79.23-11.57.17-17.36a281.52,281.52,0,0,0,45.08-3.38c5.55-.86,8.54-7.73,7.19-12.65-1.62-5.87-7.12-8-12.65-7.19A243.08,243.08,0,0,1,76.59,42c-.49-10.59-1.21-21.18-2-31.75C74.24,4.69,70.25,0,64.35,0,59,0,53.67,4.69,54.06,10.28c1.85,26.22,3.53,52.58,2,78.86C34.09,86.89,8.23,90.6,1,114.48c-3.79,12.58,3.37,24.67,13.5,31.6,10.42,7.14,23.72,6,34.53.65,13.71-6.8,20.6-19.45,24.15-33.46a103.4,103.4,0,0,1,41.51,24.94C124.17,147.52,138.72,133,129.26,123.67Zm-82.82-.93a23.74,23.74,0,0,1-9.88,7.11c-4.3,1.46-7,1.09-10.64-.91a9.76,9.76,0,0,1-5.3-7c.2.64.15-.94,0-1,.21-.68.76-2.67.49-2.08a13.16,13.16,0,0,1,3.75-4.95c7.69-5.88,18.84-5.44,28.3-4.5A35.49,35.49,0,0,1,46.44,122.74Z"/></g></g></svg>