<svg xmlns="http://www.w3.org/2000/svg" viewBox="0 0 154.82 155.58"><defs><style>.cls-1{fill:#fff;}</style></defs><title>yu</title><g id="Warstwa_2" data-name="Warstwa 2"><g id="Layer_1" data-name="Layer 1"><path class="cls-1" d="M116.19,32.52a59.44,59.44,0,0,0-14.2-2.8A144.12,144.12,0,0,0,96.48,7.56c-1.79-5.31-7-8.73-12.66-7.19-5.17,1.43-9,7.34-7.18,12.66A127.61,127.61,0,0,1,81.3,31.29,102.52,102.52,0,0,0,46.13,46.85,184.56,184.56,0,0,0,21,68,237.06,237.06,0,0,1,22.16,27.1c.65-5.58-5.17-10.28-10.28-10.28-6.1,0-9.64,4.72-10.29,10.28A247.57,247.57,0,0,0,9.53,123c3.62,12.74,23.47,7.32,19.83-5.46A231,231,0,0,1,24,94.2C39.49,78.1,55.8,61.31,77.28,53.71a59.25,59.25,0,0,1,6.09-1.79,134.32,134.32,0,0,1-8.49,50.19c-3.83-1.64-7.27-3.91-9.36-6.82-3.27-4.54-8.89-6.72-14.07-3.69-4.5,2.63-7,9.51-3.69,14.07a44.84,44.84,0,0,0,18.47,14.85A122.55,122.55,0,0,1,54.11,138c-3.57,4.31-4.23,10.31,0,14.54,3.69,3.69,11,4.32,14.55,0a151.73,151.73,0,0,0,17.78-26.81,114.49,114.49,0,0,0,21.42.18c12.5-1,24.3-4.51,33.84-12.93,8.49-7.5,12.33-19,13-30C156.28,58.76,137.93,39.68,116.19,32.52Zm17.06,55.79A20.71,20.71,0,0,1,128,97.66c-3.36,3.5-7.8,5.15-12.32,6.37a68.66,68.66,0,0,1-20.56,1.77,154.66,154.66,0,0,0,8.86-55c10.2,1.44,19.56,6.11,25.59,14.92A27.21,27.21,0,0,1,133.25,88.31Z"/></g></g></svg>